<svg width="71" height="198" viewBox="0 0 71 198" fill="none" xmlns="http://www.w3.org/2000/svg"><path d="M38.256 196.556L70.028 178.2v1.406L38.256 198v-1.444z" fill="#2E383B"/><path d="M.365 176.223v-1.444l37.89 21.777V198L.366 176.223z" fill="#414E52"/><path d="M.365 174.779l31.81-18.356L70.028 178.2l-31.772 18.356L.365 174.779z" fill="#5B686C"/><path d="M38.256 105.838l-33.14-19.04v81.559l33.14 19.078v-81.597z" fill="#D1D9DD"/><path opacity=".2" d="M38.256 105.838l-33.14-19.04v5.016l33.14 19.041v-5.017z" fill="#000"/><path d="M64.973 31.045l-26.717 74.793v81.597l26.717-15.43V31.045z" fill="#B7BFC3"/><path opacity=".2" d="M64.973 31.045l-26.717 74.793v5.017l2.774-2.432 23.943-67.84v-9.538z" fill="#000"/><path d="M34.227 107.281c1.444.836 3.04.228 3.61-1.33l28.428-82.243c.532-1.558-.19-3.534-1.634-4.37L32.175.525c-1.444-.836-3.04-.228-3.61 1.33L.174 84.136c-.532 1.558.19 3.535 1.634 4.37l32.418 18.775z" fill="#DEE6EA"/><path d="M43.652 76.803l18.699-54.12L31.795 4.935 13.058 59.092l30.594 17.71z" fill="#414E52"/><path d="M15.529 58.18L32.897 7.9 59.92 23.596 42.55 73.838 15.53 58.18z" fill="#508ECF"/><path d="M67.786 19.263L35.367.451c-.532-.304-1.102-.419-1.634-.343l-3.078.077a2.525 2.525 0 0 1 1.52.38l32.418 18.812c1.444.836 2.166 2.812 1.634 4.37l-28.39 82.205c-.303.836-.912 1.407-1.634 1.635h2.585c.988 0 1.862-.647 2.242-1.711l28.39-82.242c.532-1.597-.19-3.535-1.634-4.371z" fill="url(#a)"/><path d="M7.32 169.649v5.624l30.936 17.787v-5.625L7.32 169.649z" fill="#414E52"/><path d="M62.959 173.145l-24.703 14.29v5.625l24.703-14.252v-5.663z" fill="#2E383B"/><path opacity=".2" d="M31.795 4.935L13.058 59.092l4.599 2.66c5.169-9.083 18.052-27.629 42.832-40.133L31.795 4.935z" fill="#fff"/><path d="M5.115 156.385l33.14 19.078v-.19l-33.14-19.078v.19zm0-61.796v.19l33.065 19.116.076.038v-.19L5.116 94.589z" fill="#fff"/><path opacity=".2" d="M5.115 156.575l33.065 19.04.076.038v-.19l-33.14-19.078v.19zm0-62.176v.19l33.14 19.154v-.19L5.116 94.399z" fill="#000"/><path opacity=".5" d="M47.415 108.575a.733.733 0 0 0-.38.114l-8.78 5.054v.19l.077-.038 8.779-5.054a.606.606 0 0 1 .304-.114c.266 0 .304.342.304.456v59.706c0 .494-.342 1.102-.798 1.368l-8.665 5.016v.19l8.779-5.054c.494-.266.874-.95.874-1.52v-59.668c0-.418-.19-.646-.494-.646z" fill="#fff"/><path opacity=".2" d="M47.415 108.423a.92.92 0 0 0-.494.152l-8.703 5.016v.19l8.779-5.054c.152-.076.266-.114.38-.114.266 0 .494.228.494.608v59.706c0 .57-.38 1.216-.874 1.52l-8.78 5.054v.191l.077-.038 8.779-5.055c.532-.304.95-1.026.95-1.672v-59.706c.076-.494-.19-.798-.608-.798z" fill="#000"/><path d="M24.992 89.496l8.513 4.94 5.435-15.695-8.513-4.941-5.435 15.696z" fill="#D1D9DD"/><path d="M26.512 89.002l7.373 4.257L38.94 78.74l-7.373-4.295-5.055 14.556z" fill="url(#b)"/><path d="M31.529 78.475l6.233 3.61 1.178-3.344-6.271-3.649-1.14 3.383z" fill="#3B9536"/><path d="M27.31 88.622l.722-2.052 1.787 1.064-.685 2.014-1.824-1.026z" fill="#586770"/><path d="M29.705 87.672l-1.635-.95-.608 1.824 1.634.95.609-1.824z" fill="url(#c)"/><path d="M29.667 89.952l.684-2.014 1.824 1.064-.722 2.014-1.786-1.064z" fill="#586770"/><path d="M32.061 89.04l-1.634-.95-.646 1.824 1.634.95.646-1.824z" fill="url(#d)"/><path d="M31.985 91.32l.722-2.052 1.786 1.064-.684 2.015-1.824-1.026z" fill="#586770"/><path d="M34.38 90.37l-1.635-.95-.646 1.824 1.634.95.646-1.824z" fill="url(#e)"/><path d="M28.222 86.152l.684-2.014 1.825 1.026-.722 2.052-1.787-1.064z" fill="#586770"/><path d="M30.579 85.24l-1.596-.95-.647 1.824 1.635.95.608-1.824z" fill="url(#f)"/><path d="M30.54 87.52l.685-2.052 1.824 1.064-.684 2.014-1.824-1.026z" fill="#586770"/><path d="M32.935 86.57l-1.634-.95-.646 1.862 1.634.95.646-1.862z" fill="url(#g)"/><path d="M32.86 88.85l.721-2.014 1.786 1.026-.684 2.052-1.824-1.064z" fill="#586770"/><path d="M35.253 87.938l-1.634-.95-.608 1.824 1.596.95.646-1.824z" fill="url(#h)"/><path d="M29.097 83.72l.684-2.053 1.824 1.064-.722 2.015-1.786-1.027z" fill="#586770"/><path d="M31.49 82.77l-1.633-.95-.647 1.861 1.635.913.646-1.825z" fill="url(#i)"/><path d="M31.415 85.05l.722-2.015 1.786 1.064-.684 2.015-1.824-1.065z" fill="#586770"/><path d="M33.81 84.137l-1.635-.95-.646 1.825 1.634.95.646-1.825z" fill="url(#j)"/><path d="M33.771 86.418l.684-2.053 1.824 1.065-.722 2.014-1.786-1.026z" fill="#586770"/><path d="M36.127 85.468l-1.634-.95-.608 1.824 1.634.95.608-1.824z" fill="url(#k)"/><path d="M29.97 81.249l.723-2.014 1.786 1.064-.684 2.014-1.824-1.064z" fill="#586770"/><path d="M32.365 80.337l-1.634-.95-.646 1.824 1.634.95.646-1.824z" fill="url(#l)"/><path d="M32.327 82.617l.684-2.014 1.824 1.026-.722 2.052-1.786-1.064z" fill="#586770"/><path d="M34.683 81.667l-1.634-.912-.608 1.824 1.634.95.608-1.862z" fill="url(#m)"/><path d="M34.645 83.947l.684-2.014 1.825 1.026-.723 2.052-1.786-1.064z" fill="#586770"/><path d="M37.04 83.035l-1.635-.95-.646 1.824 1.635.95.646-1.824z" fill="url(#n)"/><path d="M24.992 89.496l8.513 4.94-.988 2.851-11.516-6.689 3.991-1.102z" fill="#EBF3F7"/><path d="M24.992 89.496l-3.99 1.102 6.384-18.546 3.04 1.748-5.434 15.696zM18.95 78.779l-8.134-4.713-3.04 8.855 8.133 4.713 3.04-8.855z" fill="#B7BFC3"/><path d="M18.95 78.779l-8.134-4.713V81.211l6.081 3.535 2.052-5.967z" fill="#D1D9DD"/><path d="M18.76 79.31l-7.298-4.256v5.891l5.625 3.268 1.672-4.902z" fill="url(#o)"/><path d="M19.671 75.206c.228.152.494.038.608-.228l1.863-5.434a.669.669 0 0 0-.266-.723l-7.26-4.218c-.227-.152-.493-.038-.607.228l-1.863 5.435a.669.669 0 0 0 .266.722l7.26 4.218z" fill="url(#p)"/><path d="M19.253 75.206c.228.152.494.038.608-.228l1.863-5.434a.669.669 0 0 0-.267-.723l-7.259-4.218c-.228-.152-.494-.038-.607.228l-1.863 5.435a.669.669 0 0 0 .266.722l7.26 4.218z" fill="#414E52"/><path d="M19.443 74.902l-7.297-4.218c-.076-.038-.114-.152-.076-.266l1.863-5.435L21.23 69.2c.075.039.113.153.075.267l-1.862 5.434z" fill="#fff"/><path d="M20.317 72.432l1.027-3.002c.038-.076-.038-.19-.076-.266l-7.297-4.219-1.103 3.155 7.45 4.332z" fill="#7A8391"/><path d="M16.897 84.746l-.988 2.888-8.133-4.713 3.04-1.71 6.08 3.535z" fill="#EBF3F7"/><path d="M18.38 111.311l-8.894-5.131v-1.064l8.893 5.131v1.064zM31.605 123.701l-6.385-3.649v-6.271l6.385 3.649v6.271z" fill="#2E383B"/><path d="M26.132 119.292l5.473 3.154v-5.016l-5.473-3.155v5.017z" fill="#2E383B"/><path d="M31.605 122.447l-5.473-3.155-.912.76 6.385 3.649v-1.254z" fill="#626C6F"/><path d="M25.22 120.052l.912-.76v-5.017l-.912-.494v6.271z" fill="#485255"/><path d="M31.605 120.508l-4.865-2.812v-2.394l4.865 2.812v2.394z" fill="#840000"/><path d="M26.816 117.657v-2.204l4.674 2.736v2.166l-4.674-2.698z" fill="#950708"/><path d="M26.892 117.62v-2.015l4.523 2.623v1.976l-4.523-2.584z" fill="#A50F0F"/><path d="M27.006 117.544v-1.787l4.333 2.509v1.786l-4.333-2.508z" fill="#B61617"/><path opacity=".5" d="M31.605 120.28l-6.385-3.648v-2.851l6.385 3.649v2.85z" fill="url(#q)"/><path d="M14.693 70.76c-.114.266-.418.38-.684.19-.305-.152-.457-.532-.343-.798.114-.267.418-.38.684-.19.267.152.419.532.343.798z" fill="#F4872A"/><path d="M13.97 70.38c-.114.266-.418.38-.684.19-.304-.152-.456-.532-.342-.799.114-.266.418-.38.684-.19.304.152.457.495.342.798z" fill="#DC2620"/><path d="M18.987 73.8l-1.824-1.026.342-.988 1.786 1.064-.304.95z" fill="#508ECF"/><path d="M18.607 68.935l-4.598-2.66.076-.228 4.598 2.622-.076.266zM15.453 68.973l-1.976-1.14.075-.266 1.977 1.178-.076.228z" fill="#fff"/><path d="M17.011 71.938l-1.862-1.064.114-.266 1.824 1.064-.076.266zM16.859 72.432l-1.862-1.064.076-.228 1.862 1.064-.076.228z" fill="#7A8391"/><path d="M20.583 70.684l-6.764-3.877.075-.266 6.803 3.915-.114.228zM20.431 71.216L13.628 67.3l.115-.228 6.764 3.877-.076.266z" fill="#fff"/><path d="M16.897 81.401c0 1.216-.836 1.71-1.9 1.102-1.065-.608-1.9-2.09-1.9-3.306 0-1.216.835-1.71 1.9-1.102 1.026.608 1.9 2.09 1.9 3.306z" fill="url(#r)"/><path d="M17.885 81.82l-5.587-3.231v.532l5.435 3.154.152-.456z" fill="#414E52"/><path opacity=".3" d="M27.386 72.052l-6.384 18.546 11.515 6.69L38.94 78.74l-11.554-6.69z" fill="url(#s)"/><defs><linearGradient id="a" x1="39.069" y1="30.142" x2="40.75" y2="34.346" gradientUnits="userSpaceOnUse"><stop stop-color="#F2F5F7"/><stop offset="1" stop-color="#C7CED2"/></linearGradient><linearGradient id="b" x1="24.184" y1="87.713" x2="53.663" y2="74.426" gradientUnits="userSpaceOnUse"><stop stop-color="#879099"/><stop offset=".273" stop-color="#D0D8DF"/><stop offset=".351" stop-color="#EEF7FF"/><stop offset=".533" stop-color="#D3DBE1"/><stop offset=".807" stop-color="#879099"/><stop offset=".842" stop-color="#D3DBE1"/><stop offset="1" stop-color="#879099"/></linearGradient><linearGradient id="c" x1="28.291" y1="88.257" x2="40.824" y2="82.345" gradientUnits="userSpaceOnUse"><stop stop-color="#879099"/><stop offset=".273" stop-color="#D0D8DF"/><stop offset=".351" stop-color="#EEF7FF"/><stop offset=".533" stop-color="#D3DBE1"/><stop offset=".807" stop-color="#879099"/><stop offset=".842" stop-color="#D3DBE1"/><stop offset="1" stop-color="#879099"/></linearGradient><linearGradient id="d" x1="29.237" y1="90.262" x2="41.769" y2="84.351" gradientUnits="userSpaceOnUse"><stop stop-color="#879099"/><stop offset=".273" stop-color="#D0D8DF"/><stop offset=".351" stop-color="#EEF7FF"/><stop offset=".533" stop-color="#D3DBE1"/><stop offset=".807" stop-color="#879099"/><stop offset=".842" stop-color="#D3DBE1"/><stop offset="1" stop-color="#879099"/></linearGradient><linearGradient id="e" x1="30.177" y1="92.258" x2="42.714" y2="86.345" gradientUnits="userSpaceOnUse"><stop stop-color="#879099"/><stop offset=".273" stop-color="#D0D8DF"/><stop offset=".351" stop-color="#EEF7FF"/><stop offset=".533" stop-color="#D3DBE1"/><stop offset=".807" stop-color="#879099"/><stop offset=".842" stop-color="#D3DBE1"/><stop offset="1" stop-color="#879099"/></linearGradient><linearGradient id="f" x1="27.506" y1="86.594" x2="40.042" y2="80.681" gradientUnits="userSpaceOnUse"><stop stop-color="#879099"/><stop offset=".273" stop-color="#D0D8DF"/><stop offset=".351" stop-color="#EEF7FF"/><stop offset=".533" stop-color="#D3DBE1"/><stop offset=".807" stop-color="#879099"/><stop offset=".842" stop-color="#D3DBE1"/><stop offset="1" stop-color="#879099"/></linearGradient><linearGradient id="g" x1="28.453" y1="88.6" x2="40.985" y2="82.689" gradientUnits="userSpaceOnUse"><stop stop-color="#879099"/><stop offset=".273" stop-color="#D0D8DF"/><stop offset=".351" stop-color="#EEF7FF"/><stop offset=".533" stop-color="#D3DBE1"/><stop offset=".807" stop-color="#879099"/><stop offset=".842" stop-color="#D3DBE1"/><stop offset="1" stop-color="#879099"/></linearGradient><linearGradient id="h" x1="29.393" y1="90.596" x2="41.928" y2="84.683" gradientUnits="userSpaceOnUse"><stop stop-color="#879099"/><stop offset=".273" stop-color="#D0D8DF"/><stop offset=".351" stop-color="#EEF7FF"/><stop offset=".533" stop-color="#D3DBE1"/><stop offset=".807" stop-color="#879099"/><stop offset=".842" stop-color="#D3DBE1"/><stop offset="1" stop-color="#879099"/></linearGradient><linearGradient id="i" x1="26.722" y1="84.932" x2="39.257" y2="79.019" gradientUnits="userSpaceOnUse"><stop stop-color="#879099"/><stop offset=".273" stop-color="#D0D8DF"/><stop offset=".351" stop-color="#EEF7FF"/><stop offset=".533" stop-color="#D3DBE1"/><stop offset=".807" stop-color="#879099"/><stop offset=".842" stop-color="#D3DBE1"/><stop offset="1" stop-color="#879099"/></linearGradient><linearGradient id="j" x1="27.669" y1="86.938" x2="40.202" y2="81.026" gradientUnits="userSpaceOnUse"><stop stop-color="#879099"/><stop offset=".273" stop-color="#D0D8DF"/><stop offset=".351" stop-color="#EEF7FF"/><stop offset=".533" stop-color="#D3DBE1"/><stop offset=".807" stop-color="#879099"/><stop offset=".842" stop-color="#D3DBE1"/><stop offset="1" stop-color="#879099"/></linearGradient><linearGradient id="k" x1="28.609" y1="88.934" x2="41.144" y2="83.021" gradientUnits="userSpaceOnUse"><stop stop-color="#879099"/><stop offset=".273" stop-color="#D0D8DF"/><stop offset=".351" stop-color="#EEF7FF"/><stop offset=".533" stop-color="#D3DBE1"/><stop offset=".807" stop-color="#879099"/><stop offset=".842" stop-color="#D3DBE1"/><stop offset="1" stop-color="#879099"/></linearGradient><linearGradient id="l" x1="25.938" y1="83.27" x2="38.473" y2="77.358" gradientUnits="userSpaceOnUse"><stop stop-color="#879099"/><stop offset=".273" stop-color="#D0D8DF"/><stop offset=".351" stop-color="#EEF7FF"/><stop offset=".533" stop-color="#D3DBE1"/><stop offset=".807" stop-color="#879099"/><stop offset=".842" stop-color="#D3DBE1"/><stop offset="1" stop-color="#879099"/></linearGradient><linearGradient id="m" x1="26.885" y1="85.275" x2="39.417" y2="79.364" gradientUnits="userSpaceOnUse"><stop stop-color="#879099"/><stop offset=".273" stop-color="#D0D8DF"/><stop offset=".351" stop-color="#EEF7FF"/><stop offset=".533" stop-color="#D3DBE1"/><stop offset=".807" stop-color="#879099"/><stop offset=".842" stop-color="#D3DBE1"/><stop offset="1" stop-color="#879099"/></linearGradient><linearGradient id="n" x1="27.824" y1="87.272" x2="40.36" y2="81.359" gradientUnits="userSpaceOnUse"><stop stop-color="#879099"/><stop offset=".273" stop-color="#D0D8DF"/><stop offset=".351" stop-color="#EEF7FF"/><stop offset=".533" stop-color="#D3DBE1"/><stop offset=".807" stop-color="#879099"/><stop offset=".842" stop-color="#D3DBE1"/><stop offset="1" stop-color="#879099"/></linearGradient><linearGradient id="o" x1="19.694" y1="77.986" x2="8.33" y2="81.428" gradientUnits="userSpaceOnUse"><stop stop-color="#879099"/><stop offset=".273" stop-color="#D0D8DF"/><stop offset=".351" stop-color="#EEF7FF"/><stop offset=".533" stop-color="#D3DBE1"/><stop offset=".807" stop-color="#879099"/><stop offset=".842" stop-color="#D3DBE1"/><stop offset="1" stop-color="#879099"/></linearGradient><linearGradient id="p" x1="17.24" y1="70.277" x2="17.483" y2="71.049" gradientUnits="userSpaceOnUse"><stop stop-color="#87A3AB"/><stop offset="1" stop-color="#2E383B"/></linearGradient><linearGradient id="q" x1="28.412" y1="118.464" x2="29.639" y2="116.339" gradientUnits="userSpaceOnUse"><stop stop-color="#fff"/><stop offset="1"/></linearGradient><linearGradient id="r" x1="16.017" y1="78.693" x2="13.757" y2="82.197" gradientUnits="userSpaceOnUse"><stop stop-color="#879099"/><stop offset=".556" stop-color="#BFC7CC"/><stop offset=".833" stop-color="#EDF7FF"/><stop offset="1" stop-color="#879099"/></linearGradient><linearGradient id="s" x1="31.508" y1="81.852" x2="35.236" y2="75.124" gradientUnits="userSpaceOnUse"><stop stop-color="#fff"/><stop offset="1"/></linearGradient></defs></svg>