<svg width="81" height="192" viewBox="0 0 81 192" fill="none" xmlns="http://www.w3.org/2000/svg"><path d="M76 33.5l-55-31-5.5 7.5 4 23.5 46.5 29L78 56l1-12.5-3-10z" fill="#D1D9DD"/><path d="M81 43l-8 5.5-4-12c2.333-1.166 7.1-3.5 7.5-3.5.4 0 .833.667 1 1l1.5 2 1.5 3 .5 2v2z" fill="#D1D9DD"/><path d="M76.26 32.755c2.633 1.529 4.74 5.233 4.74 8.35v1.059c0-3.646-2.517-8.115-5.677-9.938l.936.529z" fill="#D1D5D6"/><path d="M76.552 187.884l.41-143.368L81 42.164v-1.059l-.41 143.368v1.059c0 1.823-.644 3.116-1.697 3.704-1.346.765-2.692 1.588-4.038 2.353 1.053-.589 1.697-1.882 1.697-3.705z" fill="#B7BFC3"/><path d="M70.055 190.765c.176.059.293.177.41.236.058 0 .058.058.117.058.117.059.293.118.41.177h.058c.117.059.234.059.351.117h.059c.117 0 .234.059.351.059h.469c.116 0 .233 0 .35-.059h.059c.234-.058.41-.117.644-.235 0 0 .058 0 .058-.059.117-.058.176-.117.293-.176l.059-.059c.058-.059.175-.118.234-.235l.058-.059c.059-.059.117-.176.176-.235 0 0 0-.059.058-.059l.176-.353c.058-.117.117-.294.175-.47 0-.059.059-.177.059-.235 0-.059.058-.177.058-.236 0-.117.059-.294.059-.47v-.059-.529l.41-143.368h1.814l-.468 143.368v.588c0 .176-.059.353-.059.47v.059c-.058.177-.058.353-.117.529v.059c0 .118-.058.177-.058.235v.059c-.059.118-.059.177-.117.294v.059a1.286 1.286 0 0 1-.176.294c-.058.118-.117.176-.234.294v.059c-.059.059-.117.118-.117.176l-.059.059-.175.177s-.059 0-.059.058c-.058.059-.117.059-.175.118l-.059.059c-.058.059-.117.059-.175.117 0 0-.059 0-.059.059-.058.059-.175.059-.234.118-.059.059-.176.059-.234.059h-.059c-.058 0-.117.058-.175.058H72.806c-.058 0-.176-.058-.234-.058h-.059a.445.445 0 0 1-.292-.118h-.059a.442.442 0 0 1-.234-.118c-.058 0-.058 0-.117-.058-.059-.059-.176-.059-.234-.118-.059 0-.059-.059-.117-.059l-.351-.176c-.41-.118-.703-.294-1.054-.471z" fill="#E3EBEF"/><path d="M16.209 4.705c-2.634-1.53-4.8-.294-4.8 2.822L11 150.895c0 3.058 2.107 6.822 4.74 8.351l54.198 31.46c2.634 1.529 4.74.295 4.8-2.822l.41-143.368c0-3.058-2.108-6.821-4.742-8.35L16.21 4.705z" fill="#D1D9DD"/><path d="M15.682 4.47c-.117-.118-.292-.118-.41-.177h-.058c-.175-.118-.293-.118-.41-.176h-.058c-.117 0-.234-.06-.351-.06h-.527c-.117 0-.234 0-.351.06h-.059c-.058 0-.175.058-.234.058h-.058c-.117.118-.235.118-.351.177 0 0-.059 0-.059.059-.059.058-.176.117-.234.176-.117.118-.176.176-.293.235l-.058.06c-.059.117-.117.175-.176.293 0 0 0 .059-.058.059 0 .059-.059.176-.117.294 0 0 0 .059-.059.059-.059.117-.117.235-.117.353v.117c-.059.118-.059.235-.059.353v.118c0 .176-.058.294-.058.47v.589V6.41v-.47c0-.118.058-.294.058-.412V5.41c-.058-.294 0-.411 0-.529v-.059c0-.117.059-.176.117-.294V4.411c0-.06.059-.177.059-.236v-.058c.059-.177.176-.353.293-.53 0 0 0-.058.058-.058.117 0 .117-.06.176-.06v-.058l.058-.059c.059-.059.059-.117.117-.117l.059-.06c.058-.058.117-.117.175-.117.059-.118.176-.176.235-.235 0 0 .058 0 .058-.059.059-.059.117-.059.176-.118H13.283c.058 0 .117-.058.175-.058H13.575c.059 0 .117-.06.235-.06h.058c.059 0 .176-.058.293-.058h.058c-.117-.118 0-.118.059-.118h.819c.117 0 .234.06.351.06h.059c.117 0 .175.058.292.058H15.916c.059 0 .176.059.235.059H16.268c0 .176 0 .176.058.176.059 0 .059 0 .117.06h.059c.058 0 .058.058.117.058 0 0 .058 0 .058.059 0 0 .059.058.117.058h.059c.058.06.117.06.175.118l.06.059 54.196 31.46.059.06c.058 0 .117.058.117.058.059 0 .117.06.117.06.059 0 .117.058.117.058l.059.059c.058 0 .058.059.117.059.058 0 .058.059.117.059.058 0 .058.058.117.058.058.06.058.06.117.118l.058.059h.059l.117.117c.058.06.058.06.117.118.058.059.117.117.176.117.058.06.058.06.117.118l.058.059.293.294c.058.059.058.118.117.118l.117.117.117.118c.117.117.176.235.293.294l.058.059.059.058c.058.06.058.118.117.177.058.059.058.117.117.117 0 .06.058.06.058.118 0 .059.059.059.059.118s.058.059.058.117c0 .06.059.06.059.118 0 .059.058.059.058.117 0 .06.059.06.059.118 0 .059.059.059.059.118s.058.059.058.117c0 .06.059.06.059.118 0 .059.058.059.058.118 0 .058.059.058.059.117 0 .059.058.059.058.118s.059.059.059.117c0 .06.058.06.058.118 0 .059.059.059.059.118 0 .058.058.117.058.117 0 .06.059.118.059.118 0 .059.058.117.058.117 0 .06.059.118.059.118v.059c0 .059.058.117.058.176 0 .06.059.118.059.177.058.059.058.117.117.235 0 0 0 .059.058.059 0 .059.059.059.059.117.058.06.058.177.117.236.059.117.059.176.117.294v.058c.059.06.059.177.059.236.058.117.058.235.117.352v.118c0 .059.058.177.058.235.059.118.059.294.117.412v.059c0 .117.059.235.059.353 0 .058 0 .176.058.235v.177c0 .176.059.293.059.47v.764H74.62v-.53-.117c0-.176-.059-.353-.059-.529v-.059c0-.176-.059-.353-.117-.529v-.059l-.176-.53v-.058c-.058-.176-.117-.353-.175-.588-.059-.176-.117-.412-.234-.588v-.059c-.059-.176-.176-.353-.234-.588-.293-.588-.644-1.117-.996-1.646a3.23 3.23 0 0 0-.41-.53c-.116-.117-.233-.294-.35-.411l-.117-.118c-.117-.117-.234-.235-.352-.412a3.346 3.346 0 0 0-.468-.411c-.175-.118-.292-.235-.468-.353-.176-.118-.293-.235-.468-.294L16.209 4.704a2.074 2.074 0 0 0-.527-.235z" fill="#E3EBEF"/><path d="M16.384 2.764s-.058 0-.058-.059c-.117 0-.176-.059-.293-.117h-.058c-.117 0-.176-.06-.293-.06h-.058a1.099 1.099 0 0 0-.469-.117c-.117-.059-.234-.059-.35-.059h-.41-.059c-.059 0-.176 0-.234.06h-.059c-.117 0-.234 0-.35.058-.118 0-.176.059-.293.118 0 0-.059 0-.059.058-.058 0-.117 0-.175.06 0 0-.06 0-.06.058h.06l.058-.059c.176-.176.468-.294.702-.47.059-.059.117-.059.176-.118L17.087.353H17.204c.058-.059.117-.059.234-.118H17.555c.059-.058.176-.058.293-.117.117 0 .175-.059.292-.059H18.257c.059 0 .176 0 .234-.059h.527a.74.74 0 0 1 .351.059c.176 0 .293.059.469.118.117 0 .175.058.292.117h.059c.058 0 .175.06.234.118h.059s.058 0 .058.059c.059.058.176.058.234.117.059 0 .059.06.117.06l.351.176c-.058 0-.058-.06-.117-.06l.937.53c.058 0 .058.059.117.059l54.197 31.46-.936-.529.526.353c.059.06.118.06.176.118.117.059.234.176.351.294l.176.176c.117.118.234.177.292.294l.176.177.117.117c.059.06.059.118.117.118.117.118.234.235.351.412l.117.117c.059.06.059.118.117.118.059.117.176.176.234.294.06.059.06.117.118.176.058.06.058.118.117.177.058.059.117.117.175.235l.117.118c.059.117.117.235.234.294.059.058.059.058.059.117 0 0 0 .059.058.059.118.176.176.294.293.47 0 0 0 .06.059.06 0 .058.058.058.058.117.059.117.117.176.176.294.058.059.058.117.117.176 0 .06.058.118.058.177s.059.059.059.117c.058.177.175.353.234.53.058.176.117.352.176.47 0 .059 0 .059.058.118 0 .059.059.117.059.176 0 .059.058.176.058.235 0 .06.059.177.059.236 0 .058.058.176.058.235 0 .058 0 .059.059.117 0 .118.058.177.058.294 0 .118.059.177.059.294v.06c0 .058 0 .117.058.176.059.176.059.352.059.47V42.105l-4.039 2.352v-.647-.176c0-.118-.058-.294-.058-.412 0-.176-.059-.294-.059-.47 0-.118-.058-.177-.058-.294 0-.118-.059-.177-.059-.294-.058-.118-.058-.294-.117-.412 0-.059-.058-.176-.058-.235-.059-.177-.117-.294-.176-.47 0-.06-.058-.118-.058-.177-.176-.412-.352-.823-.527-1.294 0-.058-.059-.117-.059-.176a1.281 1.281 0 0 0-.292-.47c0-.06-.059-.118-.059-.118-.117-.176-.234-.412-.351-.588 0-.059-.059-.059-.059-.118-.117-.176-.175-.294-.292-.47-.059-.059-.117-.118-.176-.235-.058-.118-.175-.236-.292-.353-.059-.118-.117-.177-.235-.294-.058-.06-.175-.177-.234-.235-.117-.118-.234-.295-.35-.412l-.235-.235-.175-.177c-.118-.117-.235-.176-.352-.294l-.175-.176c-.117-.118-.234-.177-.351-.294-.059-.06-.117-.06-.176-.118l-.527-.353L17.087 3.117l-.351-.176s-.059 0-.117-.06a.443.443 0 0 0-.235-.117z" fill="url(#a)"/><path d="M14.102 16.76l-.293 119.551 58.236 33.814.293-119.61L14.102 16.76z" fill="#508ECF"/><path d="M14.102 16.76l.82.411L14.57 135.9l57.475 33.342v.883L13.81 136.311l.293-119.551z" fill="url(#b)"/><path d="M40.03 156.011c-1.053-.647-1.931-.117-1.931 1.118v6.292c0 1.235.878 2.764 1.931 3.352l5.385 3.116c1.053.588 1.931.118 1.931-1.117v-6.292c0-1.235-.878-2.764-1.931-3.352l-5.385-3.117z" fill="#B7BFC3"/><path d="M39.62 156.305c-1.053-.588-1.931-.117-1.931 1.118v6.292c0 1.235.878 2.764 1.931 3.352l5.385 3.116c1.053.588 1.931.118 1.931-1.117v-6.292c0-1.235-.877-2.764-1.931-3.352l-5.385-3.117z" fill="#E3EBEF"/><mask id="d" maskUnits="userSpaceOnUse" x="13" y="16" width="60" height="155"><path d="M25.222 23.17l46.882 128.372-.059 18.583-58.236-33.814.293-119.551 11.12 6.41z" fill="url(#c)"/></mask><g mask="url(#d)"><path opacity=".5" d="M25.222 23.17l46.882 128.372-.059 18.583-58.236-33.814.293-119.551 11.12 6.41z" fill="#73A5D9"/><g opacity=".8"><mask id="f" maskUnits="userSpaceOnUse" x="16" y="2" width="57" height="34"><path opacity=".8" d="M72.045 35.401c-.058 0-.117 0-.175-.059L16.91 3.47a.384.384 0 0 1-.117-.53.38.38 0 0 1 .527-.117l54.9 31.873a.384.384 0 0 1 .117.529.322.322 0 0 1-.293.176z" fill="url(#e)"/></mask><path opacity=".8" d="M72.045 35.401c-.058 0-.117 0-.175-.059L16.91 3.47a.384.384 0 0 1-.117-.53.38.38 0 0 1 .527-.117l54.9 31.873a.384.384 0 0 1 .117.529.322.322 0 0 1-.293.176z" fill="url(#g)" mask="url(#f)"/></g><g opacity=".8"><mask id="i" maskUnits="userSpaceOnUse" x="13" y="135" width="60" height="36"><path opacity=".8" d="M72.045 170.183c-.058 0-.117 0-.175-.058l-58.295-33.872a.385.385 0 0 1-.117-.53.38.38 0 0 1 .527-.117l58.236 33.872a.384.384 0 0 1 .117.529.32.32 0 0 1-.293.176z" fill="url(#h)"/></mask><path opacity=".8" d="M72.045 170.183c-.058 0-.117 0-.175-.058l-58.295-33.872a.385.385 0 0 1-.117-.53.38.38 0 0 1 .527-.117l58.236 33.872a.384.384 0 0 1 .117.529.32.32 0 0 1-.293.176z" fill="url(#j)" mask="url(#i)"/></g><g opacity=".8"><mask id="l" maskUnits="userSpaceOnUse" x="38" y="155" width="9" height="6"><path opacity=".8" d="M46.117 160.245c-.058 0-.117 0-.175-.059l-6.79-3.94a.384.384 0 0 1-.117-.529.38.38 0 0 1 .527-.117l6.79 3.939a.385.385 0 0 1 .116.53c-.117.059-.234.176-.35.176z" fill="url(#k)"/></mask><path opacity=".8" d="M46.117 160.245c-.058 0-.117 0-.175-.059l-6.79-3.94a.384.384 0 0 1-.117-.529.38.38 0 0 1 .527-.117l6.79 3.939a.385.385 0 0 1 .116.53c-.117.059-.234.176-.35.176z" fill="url(#m)" mask="url(#l)"/></g></g><path d="M49.336 29.403c.234.118.468.588.468 1.059v.235c0 .411-.234.647-.468.529l-9.13-5.293c-.235-.117-.469-.646-.469-1.058v-.235c0-.412.234-.647.468-.53l9.131 5.293z" fill="#414E52"/><path d="M35.523 20.7c.703.412 1.347 1.47 1.347 2.352 0 .882-.586 1.235-1.347.823-.76-.411-1.346-1.47-1.346-2.352 0-.882.586-1.235 1.346-.823z" fill="url(#n)"/><path d="M28.5 15.819c1.112.647 1.99 2.234 1.99 3.528s-.878 1.823-1.99 1.176c-1.112-.646-1.99-2.234-1.99-3.528 0-1.235.878-1.764 1.99-1.176z" fill="url(#o)"/><path d="M39.5 94.5l-.5 28-10-.5-26.5-14V77.5l7.5-3L34 88l5.5 6.5z" fill="#FDCD5C"/><path d="M40.516 89.508l-.856-.529-1.977-1.058v-2.05c0-2.78-.593-5.756-1.58-8.733-2.24-6.615-6.72-12.9-11.925-16.008-.198-.133-.593-.331-.79-.463-3.36-1.852-6.391-2.051-8.763-.86l-.131.066a.499.499 0 0 1-.264.132l-4.15 2.315c2.305-1.058 5.27-.793 8.498.993.198.132.593.33.79.463 6.984 4.167 12.584 14.024 13.374 22.69l-.79.529.856.529v5.622l-1.779 1.059.857.53c1.317.793 2.438 3.108 2.438 5.159v17.794l-23.586-13.891-3.557 5.16 25.89 18.191 8.697-5.16-.066-.066c.066 0 .198-.066.264-.066l.131-.066a.677.677 0 0 0 .33-.397c.263-.397.46-.926.527-1.522V94.668c0-2.05-1.12-4.366-2.438-5.16zM32.808 86.4l.33-1.19.724.463-1.054.727z" fill="#FCD478"/><path d="M17.59 94.8c-.198-.132-.593-.397-.79-.463-1.911-.992-3.426.133-3.426 2.514 0 1.257.395 2.58 1.12 3.837v7.938l1.712-.926 3.822 2.183v-6.02c.658-.397 1.12-1.323 1.12-2.58-.132-2.381-1.648-5.292-3.558-6.483zM.856 77.601l8.433-5.093.395.463-3.887 4.3-2.832 1.72L.856 77.6z" fill="#FCD478"/><path d="M42.954 94.668l-8.565 5.16v23.814l-1.383.794v2.712l8.96-5.292.131-.066.33-.397c.263-.397.46-.926.527-1.522V94.668z" fill="#E4B84F"/><path d="M21.674 103.135v7.475c0 .86-.592 1.257-1.317.794l-2.899-1.72c-.724-.397-1.317-1.455-1.317-2.315V99.96c-.66-1.19-1.12-2.58-1.12-3.837 0-2.381 1.515-3.506 3.425-2.513.198.132.593.33.791.463 1.91 1.19 3.426 4.101 3.426 6.483.066 1.256-.33 2.182-.989 2.579z" fill="#C19C44"/><path d="M17.722 76.278l-1.977-1.19v-2.051c0-1.059.132-1.985.396-2.779.066-.264.197-.529.263-.727-2.635-.397-4.611 1.058-5.27 3.969l-1.054.728.856.529c0 .33-.066.595-.066.926v4.63l-1.779 1.059 16.273 9.46 1.779-1.191v-4.565c0-1.19-.198-2.447-.527-3.704l-8.894-5.094zM28.526 91.824c-1.581-.927-1.384-2.117-1.384-2.117l-1.778 1.19 5.731 3.308 1.78-1.058s-2.834-.397-4.349-1.323z" fill="#FCD478"/><path d="M9.026 81.438L3.294 78.13l1.779-1.058s-.198 1.058 1.383 1.984c1.581.927 4.348 1.39 4.348 1.39l-1.778.992z" fill="#FCD478"/><path d="M19.369 63.776c-.198-.133-.593-.331-.79-.463-7.511-4.168-13.44 0-13.44 9.062v4.63c0 .133-.066 1.125 1.383 1.985 1.581.927 4.348 1.39 4.348 1.39v-4.631c0-5.424 3.624-7.806 8.103-5.226 4.48 2.58 8.104 9.195 8.104 14.62v4.564s-.198 1.124 1.383 2.117c1.581.926 4.348 1.389 4.348 1.389v-4.63c.066-9.196-5.929-20.309-13.44-24.807z" fill="#FCE4AD"/><path d="M31.952 94.734l-.857-.529-5.731-3.308-16.338-9.459-5.732-3.308-.856-.529C1.12 76.807 0 77.866 0 79.917v24.74c0 2.05 1.12 4.366 2.438 5.16l29.514 17.133c1.317.793 2.437-.265 2.437-2.316v-24.74c0-2.117-1.12-4.432-2.437-5.16zm-11.99 9.129v7.475c0 .86-.593 1.257-1.318.794l-2.899-1.72c-.724-.397-1.317-1.455-1.317-2.315v-7.475c-.66-1.191-1.12-2.58-1.12-3.837 0-2.382 1.515-3.506 3.425-2.514.198.132.593.33.791.463 1.91 1.19 3.426 4.102 3.426 6.483.066 1.323-.33 2.183-.988 2.646z" fill="#FDCD5C"/><path d="M15.745 77.535c0 .066.132.53.066 1.059-.132.595-.725 1.653-2.767 1.852-.659.066-1.45 0-2.108-.067v-4.63c0-1.19.198-2.25.527-3.11l4.743-2.314c-.263.793-.395 1.72-.395 2.778l-.066 4.432z" fill="#EDC872"/><path d="M37.683 90.236v-4.432c0-.926-.066-1.919-.197-2.91l-4.875 2.645c.131.992.197 1.985.197 2.91v4.631c.659.067 1.45.133 2.108.067 2.109-.199 2.702-1.257 2.767-1.853.198-.529 0-1.058 0-1.058z" fill="#EDC871"/><defs><linearGradient id="a" x1="13.098" y1="22.241" x2="80.991" y2="22.241" gradientUnits="userSpaceOnUse"><stop stop-color="#B7BFC3"/><stop offset=".556" stop-color="#B7BFC3"/><stop offset="1" stop-color="#D3D6D8"/></linearGradient><linearGradient id="b" x1="42.904" y1="16.746" x2="42.904" y2="170.116" gradientUnits="userSpaceOnUse"><stop stop-color="#8D9AC0"/><stop offset="1" stop-color="#8BAECE"/></linearGradient><linearGradient id="c" x1="7.078" y1="129.595" x2="69.398" y2="67.569" gradientUnits="userSpaceOnUse"><stop stop-color="#fff"/><stop offset=".275" stop-color="#fff"/><stop offset="1"/></linearGradient><linearGradient id="e" x1="72.414" y1="19.076" x2="16.735" y2="19.076" gradientUnits="userSpaceOnUse"><stop/><stop offset=".503" stop-color="#fff"/><stop offset="1"/></linearGradient><linearGradient id="g" x1="72.414" y1="19.076" x2="16.735" y2="19.076" gradientUnits="userSpaceOnUse"><stop stop-color="#fff"/><stop offset=".503" stop-color="#fff"/><stop offset="1" stop-color="#fff"/></linearGradient><linearGradient id="h" x1="72.414" y1="152.878" x2="13.409" y2="152.878" gradientUnits="userSpaceOnUse"><stop/><stop offset=".503" stop-color="#fff"/><stop offset="1"/></linearGradient><linearGradient id="j" x1="72.414" y1="152.878" x2="13.409" y2="152.878" gradientUnits="userSpaceOnUse"><stop stop-color="#fff"/><stop offset=".503" stop-color="#fff"/><stop offset="1" stop-color="#fff"/></linearGradient><linearGradient id="k" x1="46.493" y1="157.871" x2="38.95" y2="157.871" gradientUnits="userSpaceOnUse"><stop/><stop offset=".503" stop-color="#fff"/><stop offset="1"/></linearGradient><linearGradient id="m" x1="46.493" y1="157.871" x2="38.95" y2="157.871" gradientUnits="userSpaceOnUse"><stop stop-color="#fff"/><stop offset=".503" stop-color="#fff"/><stop offset="1" stop-color="#fff"/></linearGradient><linearGradient id="n" x1="36.807" y1="23.581" x2="34.186" y2="20.972" gradientUnits="userSpaceOnUse"><stop stop-color="#A5AFBB"/><stop offset="1" stop-color="#CCD7D9"/></linearGradient><linearGradient id="o" x1="30.441" y1="20.166" x2="26.508" y2="16.251" gradientUnits="userSpaceOnUse"><stop stop-color="#A5AFBB"/><stop offset="1" stop-color="#CCD7D9"/></linearGradient></defs></svg>