<svg width="170" height="184" fill="none" xmlns="http://www.w3.org/2000/svg"><path d="M10.738 112.152l74.31-42.904 74.306 42.904-74.306 42.899-74.31-42.899z" fill="#E3EBEF"/><path d="M44.165 112.152l40.883-23.606 40.88 23.606-40.88 23.601-40.883-23.601z" fill="#FFF200"/><path d="M10.77 112.252l74.278 42.757v5.382L10.77 117.534v-5.282zm-5.387 8.518l79.766 45.627-.128 5.758-79.638-46.003v-5.382zM0 129.136l85.048 48.445.082 6.141L0 134.522v-5.386z" fill="#D1D9DD"/><path d="M5.383 120.646l5.386-3.112 74.28 42.857.1 6.006-79.766-45.751zM0 129.186l5.383-3.111 85.16 49.06-5.386 3.107L0 129.186z" fill="#E3EBEF"/><path d="M85.049 135.753v-28.369l41.281-23.833v28.601l-41.281 23.601z" fill="#D1D9DD"/><path d="M43.77 112.283V83.651l41.336 23.834v28.373L43.77 112.283z" fill="#D1D9DD"/><path d="M76.794 142.796l8.308-4.798 8.204 4.798-8.258 4.702-8.254-4.702z" fill="#BCC5CA"/><path d="M93.306 142.742v2.949l-8.258 4.705v-2.894l8.258-4.76z" fill="#C7D1D6"/><path d="M76.79 142.793v2.898l8.258 4.706v-2.895l-8.258-4.709z" fill="#D1D9DD"/><path d="M82.83 144.982l-2.216-2.236 2.217-2.233h4.435l2.22 2.233-2.22 2.236H82.83z" fill="#9C9C95"/><path d="M87.254 103.677h-4.462v41.305h4.462v-41.305z" fill="#E3EBEF"/><path d="M87.25 144.982l2.256-2.213v-39.092H87.25v41.305z" fill="#B2BDC3"/><path d="M80.613 142.753l2.179 2.229v-41.34h-2.206l.027 39.111z" fill="#F4F9FB"/><path d="M91.24 134.461l8.312-4.799 8.2 4.799-8.254 4.701-8.258-4.701z" fill="#BCC5CA"/><path d="M107.752 134.41v2.945l-8.254 4.706v-2.895l8.254-4.756z" fill="#C7D1D6"/><path d="M91.24 134.458v2.898l8.258 4.705v-2.894l-8.258-4.709z" fill="#D1D9DD"/><path d="M97.28 136.647l-2.22-2.233 2.22-2.237h4.435l2.218 2.237-2.218 2.233h-4.434z" fill="#9C9C95"/><path d="M101.699 95.346h-4.461v41.305h4.461V95.346z" fill="#E3EBEF"/><path d="M101.7 136.647l2.256-2.21V95.346H101.7v41.301z" fill="#B2BDC3"/><path d="M95.063 134.418l2.175 2.229v-41.34h-2.202l.027 39.111z" fill="#F4F9FB"/><path d="M105.689 126.125l8.312-4.798 8.2 4.798-8.254 4.702-8.258-4.702z" fill="#BCC5CA"/><path d="M122.201 126.075v2.945l-8.258 4.705v-2.894l8.258-4.756z" fill="#C7D1D6"/><path d="M105.689 126.123v2.898l8.254 4.706v-2.895l-8.254-4.709z" fill="#D1D9DD"/><path d="M111.726 128.312l-2.217-2.233 2.217-2.237h4.438l2.218 2.237-2.218 2.233h-4.438z" fill="#9C9C95"/><path d="M116.149 87.01h-4.462v41.306h4.462V87.01z" fill="#E3EBEF"/><path d="M116.145 128.312l2.26-2.21V87.01h-2.26v41.302z" fill="#B2BDC3"/><path d="M109.509 126.083l2.178 2.229V86.975h-2.202l.024 39.108z" fill="#F4F9FB"/><path d="M120.139 117.79l8.308-4.798 8.204 4.798-8.258 4.706-8.254-4.706z" fill="#BCC5CA"/><path d="M136.651 117.74v2.948l-8.258 4.702v-2.895l8.258-4.755z" fill="#C7D1D6"/><path d="M120.135 117.787v2.902l8.258 4.702v-2.895l-8.258-4.709z" fill="#D1D9DD"/><path d="M126.176 119.98l-2.218-2.237 2.218-2.236h4.434l2.221 2.236-2.221 2.237h-4.434z" fill="#9C9C95"/><path d="M130.599 78.675h-4.462v41.305h4.462V78.675z" fill="#E3EBEF"/><path d="M130.595 119.98l2.256-2.213V78.675h-2.256v41.305z" fill="#B2BDC3"/><path d="M123.958 117.747l2.179 2.233V78.64h-2.206l.027 39.107z" fill="#F4F9FB"/><path d="M134.584 109.455l8.312-4.799 8.2 4.799-8.254 4.705-8.258-4.705z" fill="#BCC5CA"/><path d="M151.096 109.404v2.949l-8.254 4.702v-2.895l8.254-4.756z" fill="#C7D1D6"/><path d="M134.584 109.451v2.903l8.258 4.701v-2.894l-8.258-4.71z" fill="#D1D9DD"/><path d="M140.625 111.645l-2.221-2.237 2.221-2.236h4.434l2.218 2.236-2.218 2.237h-4.434z" fill="#9C9C95"/><path d="M145.044 70.34h-4.462v41.305h4.462V70.34z" fill="#E3EBEF"/><path d="M145.044 111.645l2.256-2.214V70.34h-2.256v41.305z" fill="#B2BDC4"/><path d="M138.407 109.412l2.175 2.233v-41.34h-2.202l.027 39.107z" fill="#F4F9FB"/><path d="M85.049 12.325l74.306 42.9L122.167 0 85.049 12.325z" fill="#222220"/><path d="M66.458 125.645v-23.578l-10.336-5.97v23.872l10.336 5.676z" fill="#BAC2C7"/><path d="M56.122 96.096l1.815 1.072v21.713l-1.815 1.088V96.096z" fill="#B2BDC3"/><path d="M55.716 119.868l2.221-.987 8.622 4.833v2.593l-10.843-6.439z" fill="#F4F9FB"/><path d="M159.208 112.268L85.03 155.024v5.484l74.178-42.854v-5.386zm5.382 8.618l-79.541 45.511-.028 5.557 79.569-45.682v-5.386zm5.383 8.37l-84.952 49.002.008 5.464 84.944-49.083v-5.383z" fill="#D1D9DD"/><path d="M164.59 120.762l-5.382-3.108-74.16 42.737-.019 6.006 79.561-45.635zm5.383 8.54l-5.383-3.212-79.569 45.864v6.304l84.952-48.956z" fill="#E3EBEF"/><path d="M18.962 109.42l8.312-4.799 8.2 4.799-8.254 4.705-8.258-4.705z" fill="#BCC5CA"/><path d="M35.474 109.369v2.949l-8.258 4.702v-2.895l8.258-4.756z" fill="#C7D1D6"/><path d="M18.962 109.417v2.902l8.254 4.702v-2.895l-8.254-4.709z" fill="#D1D9DD"/><path d="M24.999 111.61l-2.218-2.237L25 107.137h4.438l2.217 2.236-2.217 2.237H25z" fill="#9C9C95"/><path d="M29.422 70.305H24.96v41.305h4.462V70.305z" fill="#E3EBEF"/><path d="M29.422 111.61l2.255-2.214V70.305h-2.255v41.305z" fill="#B2BDC3"/><path d="M22.785 109.377l2.175 2.233V70.27h-2.202l.027 39.107z" fill="#F4F9FB"/><path d="M33.419 117.763l8.312-4.799 8.2 4.799-8.254 4.705-8.258-4.705z" fill="#BCC5CA"/><path d="M49.93 117.712v2.949l-8.257 4.702v-2.895l8.258-4.756z" fill="#C7D1D6"/><path d="M33.419 117.76v2.902l8.254 4.702v-2.895l-8.254-4.709z" fill="#D1D9DD"/><path d="M39.46 119.953l-2.222-2.237 2.221-2.236h4.435l2.218 2.236-2.218 2.237H39.46z" fill="#9C9C95"/><path d="M43.879 78.648h-4.462v41.305h4.462V78.648z" fill="#E3EBEF"/><path d="M43.879 119.953l2.256-2.213V78.648h-2.256v41.305z" fill="#B2BDC3"/><path d="M37.242 117.72l2.175 2.233v-41.34h-2.202l.027 39.107z" fill="#F4F9FB"/><path d="M62.333 134.453l8.312-4.799 8.204 4.799-8.258 4.701-8.258-4.701z" fill="#BCC5CA"/><path d="M78.845 134.399v2.948l-8.254 4.702v-2.891l8.254-4.759z" fill="#C7D1D6"/><path d="M62.333 134.45v2.898l8.258 4.702v-2.891l-8.258-4.709z" fill="#D1D9DD"/><path d="M68.374 136.639l-2.218-2.237 2.218-2.232h4.434l2.218 2.232-2.218 2.237h-4.434z" fill="#9C9C95"/><path d="M72.793 95.334H68.33v41.305h4.462V95.334z" fill="#E3EBEF"/><path d="M72.793 136.639l2.256-2.213V95.334h-2.256v41.305z" fill="#B2BDC3"/><path d="M66.156 134.406l2.175 2.233v-41.34H66.13l.027 39.107z" fill="#F4F9FB"/><path d="M10.843 64.605l74.306-42.9 74.306 42.9-74.306 42.903-74.306-42.903z" fill="#898982"/><path d="M10.843 55.124l74.306-42.903 74.306 42.903-74.306 42.9-74.306-42.9z" fill="#61615C"/><path d="M85.149 98.023v9.485l-37.153-21.45-37.153-21.453v-9.481l37.153 21.45 37.153 21.45z" fill="#E3EBEF"/><path d="M85.149 98.023v9.485l74.306-42.903v-9.481l-74.306 42.9z" fill="#4F6175"/><path d="M10.843 55.124l74.306 42.9L47.96 42.798 10.843 55.124z" fill="#E3EBEF"/><path d="M47.961 42.799L122.166 0l37.188 55.224-74.205 42.8L47.96 42.798z" fill="#617990"/><path d="M10.843 55.124L47.96 42.799 122.167 0 85.048 12.325 10.843 55.124z" fill="#788DA3"/><path d="M47.907 50.221l28.686 42.865-57.786-33.477 29.1-9.388z" fill="#D1D9DD"/><path d="M50.17 67.54c1.908-1.102 1.871-4.738-.082-8.121s-5.084-5.233-6.992-4.131c-1.908 1.102-1.872 4.737.082 8.12 1.953 3.384 5.084 5.233 6.992 4.132z" fill="#BAC3C7"/><path d="M44.653 62.6c-1.343-2.604-1.955-6.145-.685-7.62a2.391 2.391 0 00-.89.295c-1.908 1.103-1.873 4.74.08 8.122 1.955 3.383 5.086 5.232 6.993 4.133.229-.131.43-.302.604-.503-2.778.132-4.825-1.954-6.102-4.427zm-21.895-4.264l49.745 28.64 6.342 8.265-61.803-35.233 5.716-1.672z" fill="#F4F9FB"/><path d="M31.035 65.514l1.331-.697L59.984 80.71l-1.432.879-27.517-16.075z" fill="#8CB9E9"/><path d="M58.553 81.589l1.431-.879.039 9.265-1.47.893v-9.28z" fill="#567CA5"/><path d="M31.035 65.514l27.517 16.075v9.426L31.035 75.126v-9.612z" fill="#6199D4"/><path d="M33.674 69.248l2.945 1.703c.491.283.867.623 1.13 1.018.263.395.395.774.395 1.13 0 .301-.093.507-.283.611-.124.07-.31.078-.55.023.368.298.635.608.81.921.173.314.259.635.259.956 0 .263-.062.465-.186.608a.637.637 0 01-.503.209c-.132 0-.333-.058-.596-.178a9.68 9.68 0 01-.704-.337l-2.717-1.567v-5.097zm1.587 2.914l.685.395c.243.143.418.197.51.17.097-.03.144-.124.144-.282a.742.742 0 00-.144-.43c-.096-.14-.263-.278-.503-.414l-.696-.402v.963h.004zm0 2l.8.465c.272.155.461.22.573.186.113-.031.167-.128.167-.29a.773.773 0 00-.167-.457c-.108-.155-.301-.313-.576-.472l-.797-.46v1.029zm6.954 4.269l-1.788-1.033-.248.697-1.606-.93 1.916-3.989 1.718.99 1.916 6.2-1.649-.952-.26-.983zm-.33-1.288l-.56-2.156-.558 1.51 1.119.645zm2.745-1.572l1.47.848 1.919 3.924v-2.817l1.482.855v5.092l-1.482-.855-1.908-3.897v2.798l-1.482-.855V75.57zm5.92 3.421l1.575.91v1.923l1.648-.971 2.094 1.207-1.857.851 1.942 4.292-1.939-1.119-1.075-2.716-.813.383v1.242l-1.575-.91v-5.092z" fill="#E3EBEF"/><path d="M22.758 58.336l2.202-.712 45.604 26.453 1.939 2.898-49.745-28.64z" fill="#F4F9FB"/></svg>