<svg width="175" height="153" viewBox="0 0 175 153" fill="none" xmlns="http://www.w3.org/2000/svg"><circle cx="86" cy="74" r="68" fill="#4F57AA"/><path d="M168.534 87C165.46 87 163 84.54 163 81.534A5.511 5.511 0 0 1 168.534 76a5.51 5.51 0 0 1 5.534 5.534C174 84.54 171.54 87 168.534 87zm0-9.633a4.141 4.141 0 0 0-4.168 4.167 4.141 4.141 0 0 0 4.168 4.168 4.141 4.141 0 0 0 4.168-4.168c-.068-2.323-1.913-4.168-4.168-4.168z" fill="#FB9F88"/><path d="M13.378 44c-.486 0-.81-.162-1.135-.486l-8.757-8.757c-.648-.649-.648-1.622 0-2.27.65-.65 1.622-.65 2.27 0l8.758 8.756c.648.649.648 1.622 0 2.27-.325.325-.65.487-1.136.487z" fill="#4F57AA"/><path d="M4.622 44c-.487 0-.811-.162-1.136-.486-.648-.65-.648-1.622 0-2.27l8.757-8.758c.649-.648 1.622-.648 2.27 0 .65.65.65 1.622 0 2.27l-8.756 8.758c-.325.324-.811.486-1.135.486z" fill="#4F57AA"/><path d="M147.4 130.4c-.3 0-.5-.1-.7-.3l-5.4-5.4c-.4-.4-.4-1 0-1.4.4-.4 1-.4 1.4 0l5.4 5.4c.4.4.4 1 0 1.4-.2.2-.4.3-.7.3z" fill="#FB9F88"/><path d="M142 130.4c-.3 0-.5-.1-.7-.3-.4-.4-.4-1 0-1.4l5.4-5.4c.4-.4 1-.4 1.4 0 .4.4.4 1 0 1.4l-5.4 5.4c-.2.2-.5.3-.7.3z" fill="#FB9F88"/><path d="M149.216 60.937l-34.412-17.602a3.9 3.9 0 0 0-5.267 1.714l-8.001 15.781 41.416 21.184 8.002-15.78c.982-1.939.196-4.308-1.738-5.297zM115.553 54.6a2.83 2.83 0 0 1-1.233-3.793 2.807 2.807 0 0 1 3.779-1.23 2.83 2.83 0 0 1 1.233 3.794 2.807 2.807 0 0 1-3.779 1.23zm24.171 12.364a2.832 2.832 0 0 1-1.233-3.794 2.808 2.808 0 0 1 3.78-1.23 2.831 2.831 0 0 1 1.232 3.794 2.807 2.807 0 0 1-3.779 1.23z" fill="#F16D61"/><path d="M114.925 55.896a4.3 4.3 0 0 1-1.885-5.777 4.304 4.304 0 0 1 7.669 3.905 4.304 4.304 0 0 1-5.784 1.872zm3.125-6.13a2.572 2.572 0 0 0-3.458 1.119 2.574 2.574 0 0 0 4.586 2.335 2.585 2.585 0 0 0-1.128-3.455zM139.037 68.355a4.3 4.3 0 0 1-1.886-5.777 4.304 4.304 0 0 1 7.67 3.905 4.304 4.304 0 0 1-5.784 1.872zm3.125-6.131a2.574 2.574 0 0 0-3.459 1.12 2.57 2.57 0 0 0 1.128 3.454 2.572 2.572 0 0 0 3.458-1.12 2.585 2.585 0 0 0-1.127-3.454z" fill="#F9C5C0"/><path d="M116.986 52.232l-.278-.14a1.649 1.649 0 0 1-.732-2.226l3.477-6.781a1.658 1.658 0 0 1 2.244-.723l.278.14c.813.412 1.156 1.401.732 2.227l-3.477 6.781a1.686 1.686 0 0 1-2.244.722zM141.098 64.691l-.278-.14a1.647 1.647 0 0 1-.732-2.226l3.477-6.782a1.671 1.671 0 0 1 2.244-.722l.278.14c.813.411 1.155 1.4.732 2.227l-3.477 6.78a1.686 1.686 0 0 1-2.244.723z" fill="#B55249"/><path d="M117.557 62.306l-2.314-1.174-1.599 1.622-.83-.421 5.392-5.258.91.461-1.09 7.464-.871-.44.402-2.254zm.124-.732l.196-1.117c.124-.83.278-1.62.462-2.47l-.039-.02c-.57.629-1.13 1.239-1.729 1.828l-.789.816 1.899.963zM122.154 59.135l1.959.992c1.406.711 2.114 1.665 1.4 3.065-.684 1.34-1.956 1.49-3.361.778l-1.148-.581-1.287 2.523-.812-.411 3.249-6.366zm.231 4.135c1.109.56 1.854.417 2.307-.47.472-.926.069-1.502-1.02-2.053l-1.049-.531-1.287 2.523 1.049.53zM127.979 70.153l-.176-3.462-1.148-.581-1.368 2.68-.811-.41 3.248-6.367 1.999 1.012c1.306.662 1.995 1.606 1.331 2.907-.503.985-1.388 1.306-2.34 1.072l.205 3.6-.93-.47-.01.02zm-.982-4.713l1.069.54c.989.502 1.754.369 2.167-.44.422-.827.019-1.404-.971-1.905l-1.068-.54-1.197 2.345zM133.368 64.922l.817.408-3.253 6.323-.817-.409 3.253-6.322zM135.894 66.234l.812.41-2.887 5.653 2.792 1.412-.352.69-3.605-1.823 3.24-6.342zM143.874 79.84l-12.808 25.192c-.893 1.757-3.176 2.382-5.111 1.394L91.495 88.84c-1.915-.978-2.772-3.206-1.88-4.963l12.808-25.19 41.451 21.154z" fill="#fff"/><path d="M100.005 84.196l4.123 2.084 6.745-13.214-3.27-1.654.764-1.496c1.786.556 3.206.704 4.499.614l1.784.902-8.183 16.03 3.727 1.884-.975 1.91-10.19-5.15.976-1.91zM120.132 85.083l.061-.119c-.855-1.597-1.371-3.518-.406-5.41 1.407-2.757 4.551-3.496 7.463-2.023 3.131 1.584 4.078 4.566 2.651 7.363-.965 1.891-3.166 2.785-4.708 3.071l-.06.118c1.132 1.738 2.015 3.77.779 6.194-1.367 2.679-4.76 3.614-8.268 1.84-3.388-1.715-4.839-5.076-3.392-7.912 1.216-2.335 3.744-3.088 5.88-3.122zm-1.524 9.34c2.1 1.063 4.19.484 5.135-1.368 1.176-2.304-.691-4.314-2.754-6.671-1.928.213-3.682 1.012-4.506 2.627-1.005 2.02-.074 4.3 2.125 5.412zm9.241-10.443c.905-1.773.449-3.763-1.513-4.755-1.664-.842-3.505-.311-4.39 1.422-1.095 2.147.434 4.036 2.182 5.986 1.751-.452 3.048-1.333 3.721-2.653z" fill="#32526E"/><path d="M78.315 55.77c-.713-1.451-2.483-2.037-3.926-1.32L27.683 77.917c-1.442.715-2.023 2.494-1.31 3.945l.77 1.57 51.942-26.094-.77-1.57z" fill="#FDCD5C"/><path d="M79.08 57.333l-51.868 26.08 2.93 5.87 51.867-26.081-2.93-5.87z" fill="#1A2943"/><path d="M30.142 89.225l9.522 19.021c.714 1.447 2.485 2.03 3.928 1.316l46.716-23.43c1.443-.715 2.023-2.49 1.31-3.937l-9.523-19.021-51.953 26.05z" fill="#FDCD5C"/><path d="M51.585 97.368l-7.999 4.025c-.97.49-2.154.08-2.643-.894a1.983 1.983 0 0 1 .89-2.65l7.998-4.027c.97-.489 2.155-.079 2.644.895.457.98.087 2.193-.89 2.65z" fill="#E6EFFF"/><path d="M77.6 86.505a3.97 3.97 0 1 0-3.562-7.099 3.971 3.971 0 1 0 3.562 7.099z" fill="#FF6B6B"/><path d="M82.92 83.833a3.971 3.971 0 1 0-3.562-7.099 3.97 3.97 0 1 0 3.562 7.099z" fill="#E6EFFF"/><path d="M56.894 118.735l56.738-10.934a2.573 2.573 0 0 0 2.042-3.022l-9.346-48.424-61.8 11.91 9.353 48.463c.264 1.364 1.611 2.277 3.013 2.007z" fill="#E6EFFF"/><path d="M106.614 106.303l-16.398 3.159a2.203 2.203 0 0 1-2.556-1.731l-3.17-16.408a2.2 2.2 0 0 1 1.729-2.556l16.397-3.159a2.204 2.204 0 0 1 2.557 1.731l3.169 16.408a2.175 2.175 0 0 1-1.728 2.556z" fill="#F16D61"/><path d="M101.226 30.546a2.574 2.574 0 0 0-3.019-2.05L41.53 39.425a2.577 2.577 0 0 0-2.042 3.026l4.99 25.935 61.737-11.906-4.989-25.935zM72.224 74.751l.767 3.976-5.998 1.155 1.16 6.002-3.934.758-1.16-6.002-6.037 1.163-.767-3.975 6.037-1.163-1.16-6.002 3.934-.758 1.16 6.002 5.998-1.156zM79.27 111.634l-16.397 3.158a2.203 2.203 0 0 1-2.556-1.731l-3.17-16.408a2.2 2.2 0 0 1 1.729-2.556l16.397-3.159a2.203 2.203 0 0 1 2.556 1.731L81 109.077a2.176 2.176 0 0 1-1.729 2.557zM101.769 81.45l-16.398 3.158a2.203 2.203 0 0 1-2.556-1.73l-3.17-16.409a2.2 2.2 0 0 1 1.729-2.556l16.398-3.159a2.203 2.203 0 0 1 2.556 1.731l3.169 16.408a2.2 2.2 0 0 1-1.728 2.556z" fill="#32526E"/><path d="M61.115 102.697l.764 4.011 15.957-3.065-.764-4.01-15.957 3.064zM72.224 74.751l.767 3.976-5.998 1.155 1.16 6.002-3.934.758-1.16-6.002-6.037 1.163-.767-3.975 6.037-1.163-1.16-6.002 3.934-.758 1.16 6.002 5.998-1.156zM89.171 101.005l.765 4.029 15.956-3.047-.765-4.029-15.956 3.047zM87.738 93.654l.765 4.029 15.956-3.048-.765-4.028-15.956 3.047zM99.925 75.457l-2.679 3.911-5.02-3.399-3.432 5.027-3.106-2.07 3.425-5.065-5.066-3.43 2.64-3.905 4.268 2.857.797.574 3.425-5.066 3.114 2.108-3.432 5.027 5.066 3.43zM96.576 36.577c-.661-1.13-1.955-1.771-3.279-1.516L48.77 43.649a3.122 3.122 0 0 0-2.482 3.681L48.9 60.933c.255 1.328 1.337 2.336 2.618 2.494.334.057.7.068 1.089-.007l44.528-8.588a3.122 3.122 0 0 0 2.482-3.681l-2.605-13.564a4.275 4.275 0 0 0-.436-1.01z" fill="#fff"/><path d="M85.854 47.417l.788-1.158-.731-3.78-2.376-1.61 1.116 5.765 1.203.783zM83.817 40.43l2.366 1.636 3.776-.72 1.603-2.394-7.745 1.477zM90.835 45.792l-3.775.721-.785 1.169 1.168.836 3.775-.721.778-1.208-1.161-.797zM92.087 52.205l-3.776.72-1.603 2.394 7.745-1.477-2.366-1.637zM92.455 46.847l-.82 1.204.724 3.74 2.376 1.612-1.108-5.727-1.172-.829zM75.002 49.532l.788-1.158-.73-3.78-2.338-1.618 1.116 5.766 1.164.79zM73.004 42.537l2.328 1.644 3.775-.72 1.603-2.394-7.706 1.47zM79.983 47.907l-3.775.721-.785 1.17 1.168.836 3.775-.722.817-1.215-1.2-.79zM81.235 54.32l-3.775.72-1.565 2.387 7.707-1.47-2.367-1.637zM81.603 48.962l-.819 1.205.724 3.74 2.375 1.611-1.108-5.727-1.172-.829zM80.352 42.545l-.827 1.165.732 3.78 2.375 1.61-1.115-5.765-1.165-.79zM69.443 49.6l1.164.79.788-1.159-1.115-5.766-1.569 2.355.732 3.78zM70.751 51.078l-.78 1.197.724 3.74 2.337 1.619-1.108-5.727-1.173-.83zM70.428 66.084l-16.397 3.159a2.2 2.2 0 0 0-1.729 2.556l3.17 16.408a2.203 2.203 0 0 0 2.556 1.731l16.397-3.159a2.2 2.2 0 0 0 1.729-2.556l-3.17-16.408a2.203 2.203 0 0 0-2.556-1.73zm2.564 12.644l-5.999 1.156 1.16 6.002-3.934.758-1.16-6.003-6.037 1.163-.767-3.975 6.037-1.163-1.16-6.002 3.973-.765 1.16 6.002 5.998-1.156.767 3.976-.038.007z" fill="#32526E"/><path d="M48.59 28.91c6.302-3.364 8.683-11.199 5.32-17.5-3.364-6.302-11.199-8.683-17.5-5.32-6.302 3.364-8.683 11.199-5.32 17.5 3.364 6.302 11.199 8.683 17.5 5.32z" fill="#FBA927"/><path d="M47.087 26.093c4.745-2.533 6.539-8.434 4.006-13.18-2.533-4.745-8.434-6.54-13.18-4.006-4.745 2.533-6.539 8.434-4.006 13.18 2.533 4.745 8.434 6.539 13.18 4.006z" fill="#FDCD5C"/><path d="M42.495 29.184a11.678 11.678 0 0 1-10.321-6.192c-3.032-5.677-.871-12.772 4.805-15.804 2.742-1.484 5.903-1.774 8.902-.87 3 .902 5.45 2.934 6.902 5.676 1.484 2.741 1.774 5.902.871 8.901-.903 3-2.903 5.45-5.676 6.902a11.536 11.536 0 0 1-5.483 1.387zm-9.773-6.483c2.87 5.387 9.58 7.418 14.965 4.548 2.613-1.387 4.516-3.709 5.387-6.547.87-2.839.58-5.806-.84-8.418-1.386-2.613-3.708-4.516-6.546-5.386-2.839-.871-5.806-.58-8.418.838-5.387 2.87-7.418 9.58-4.548 14.965z" fill="#FDCD5C"/><path d="M38.882 12.445l-.451-.806 1.419-.774.451.838c1.387-.419 2.516.194 3.322 1.71l.194.354-1.645.871-.258-.451c-.42-.807-.903-.936-1.451-.613-.549.29-.71.774-.29 1.548 1.225 2.29 4.676.58 6.385 3.741.807 1.516.678 2.806-.419 3.742l.42.806-1.42.774-.451-.838c-1.387.419-2.548-.226-3.355-1.71l-.419-.774 1.645-.87.452.87c.419.806.935.903 1.483.58.548-.29.742-.774.323-1.548-1.161-2.29-4.645-.58-6.322-3.74-.806-1.485-.71-2.775.387-3.71zM114.245 20.58c3.045 2.601 7.533 2.332 10.023-.602 2.491-2.934 2.042-7.422-1.003-10.024-3.045-2.601-7.532-2.332-10.023.602-2.491 2.934-2.042 7.422 1.003 10.024z" fill="#FBA927"/><path d="M115.359 19.268c2.293 1.96 5.672 1.756 7.548-.453 1.876-2.21 1.538-5.59-.755-7.549-2.293-1.96-5.673-1.756-7.549.453-1.876 2.21-1.538 5.59.756 7.549z" fill="#FDCD5C"/><path d="M112.824 17.497c-.875-2.201-.571-4.75.989-6.603 2.249-2.676 6.301-2.898 9.024-.496a6.808 6.808 0 0 1 2.299 4.508c.168 1.748-.352 3.423-1.441 4.709-1.081 1.303-2.625 2.06-4.336 2.158-1.711.1-3.372-.482-4.687-1.662a6.807 6.807 0 0 1-1.848-2.614zm1.251-6.37c-2.135 2.536-1.766 6.447.814 8.727 1.249 1.107 2.825 1.663 4.447 1.578 1.622-.086 3.068-.805 4.098-2.05 1.036-1.227 1.518-2.81 1.367-4.467a6.359 6.359 0 0 0-2.182-4.26c-2.58-2.28-6.409-2.065-8.544.472z" fill="#FDCD5C"/><path d="M120.558 12.376l.314-.394.691.614-.331.4c.505.664.431 1.384-.168 2.102l-.139.17-.788-.716.175-.224c.321-.376.284-.66.006-.893-.263-.239-.542-.234-.847.137-.903 1.088.69 2.615-.554 4.126-.599.718-1.281.892-1.986.481l-.321.377-.691-.615.331-.4c-.505-.664-.422-1.407.161-2.119l.304-.37.788.716-.347.407c-.32.376-.261.671.018.904.263.239.549.251.853-.12.917-1.053-.682-2.597.568-4.091.583-.712 1.258-.904 1.963-.492zM82.245 145.579c3.045 2.602 7.533 2.333 10.023-.601 2.491-2.934 2.042-7.422-1.003-10.024-3.045-2.601-7.532-2.332-10.023.602-2.49 2.934-2.042 7.422 1.003 10.023z" fill="#FBA927"/><path d="M83.359 144.268c2.293 1.959 5.672 1.756 7.548-.453 1.876-2.21 1.538-5.59-.755-7.549-2.293-1.959-5.673-1.756-7.549.453-1.876 2.21-1.537 5.59.756 7.549z" fill="#FDCD5C"/><path d="M80.824 142.497c-.875-2.201-.57-4.75.99-6.603 2.248-2.676 6.3-2.898 9.023-.496a6.81 6.81 0 0 1 2.3 4.508c.167 1.747-.353 3.423-1.442 4.709-1.081 1.303-2.625 2.059-4.336 2.158-1.71.099-3.372-.482-4.687-1.662a6.807 6.807 0 0 1-1.848-2.614zm1.25-6.37c-2.134 2.536-1.766 6.447.815 8.727 1.25 1.107 2.825 1.663 4.447 1.577 1.623-.085 3.068-.804 4.098-2.048 1.036-1.228 1.518-2.811 1.367-4.468a6.363 6.363 0 0 0-2.182-4.26c-2.58-2.28-6.41-2.065-8.544.472z" fill="#FDCD5C"/><path d="M88.558 137.376l.314-.394.69.614-.33.4c.505.664.431 1.384-.168 2.102l-.14.171-.787-.717.175-.224c.32-.376.285-.66.005-.893-.262-.239-.541-.234-.846.137-.903 1.088.69 2.615-.554 4.126-.6.718-1.28.892-1.986.481l-.32.377-.692-.615.33-.4c-.504-.664-.42-1.407.162-2.119l.305-.371.787.717-.347.407c-.32.376-.26.671.018.904.263.239.549.251.853-.119.917-1.054-.682-2.598.568-4.092.583-.712 1.258-.903 1.963-.492z" fill="#FBA927"/><path d="M7.5 123c-4.167 0-7.5-3.354-7.5-7.453C0 111.354 3.333 108 7.5 108s7.5 3.354 7.5 7.547c-.093 4.099-3.426 7.453-7.5 7.453zm0-13.137c-3.148 0-5.648 2.516-5.648 5.684 0 3.167 2.5 5.683 5.648 5.683 3.148 0 5.648-2.516 5.648-5.683-.092-3.168-2.592-5.684-5.648-5.684z" fill="#FB9F88"/><path d="M159 45c-2.222 0-4-1.789-4-3.975A3.996 3.996 0 0 1 159 37c2.222 0 4 1.789 4 4.025-.049 2.186-1.827 3.975-4 3.975zm0-7.006a3.002 3.002 0 0 0-3.012 3.03A3.002 3.002 0 0 0 159 44.057a3.002 3.002 0 0 0 3.012-3.031c-.049-1.69-1.382-3.031-3.012-3.031z" fill="#4F57AA"/></svg>