<svg width="45" height="40" fill="none" xmlns="http://www.w3.org/2000/svg"><path fill="#F1F2F9" d="M0 0h1v40H0z"/><path d="M20.491 7.427c-.307.322-.491.828-.491 1.472V32.09c0 .644.184 1.15.491 1.472l.077.076L33.583 20.64v-.306L20.568 7.335l-.077.092z" fill="url(#paint0_linear)"/><path d="M37.91 24.979l-4.327-4.338v-.307l4.343-4.338.092.061 5.142 2.913c1.473.827 1.473 2.192 0 3.035l-5.142 2.912-.107.062z" fill="url(#paint1_linear)"/><path d="M38.018 24.917l-4.435-4.43L20.49 33.563c.476.506 1.29.582 2.18.061l15.347-8.707z" fill="url(#paint2_linear)"/><path d="M38.018 16.073L22.67 7.366c-.905-.506-1.703-.445-2.179.061l13.092 13.076 4.435-4.43z" fill="url(#paint3_linear)"/><path opacity=".2" d="M37.91 24.825l-15.24 8.646c-.86.49-1.611.46-2.102.015l-.077.077.077.077c.49.444 1.258.475 2.102-.016l15.348-8.707-.107-.092z" fill="#000"/><path opacity=".12" d="M20.491 33.41c-.307-.322-.491-.828-.491-1.472v.153c0 .644.184 1.15.491 1.472l.077-.077-.077-.076zm22.654-11.558l-5.234 2.973.092.092 5.142-2.912c.736-.414 1.105-.966 1.105-1.518-.062.506-.43.981-1.105 1.365z" fill="#000"/><path opacity=".25" d="M22.67 7.504l20.475 11.619c.66.383 1.043.858 1.105 1.364 0-.552-.369-1.103-1.105-1.517L22.67 7.35C21.198 6.523 20 7.212 20 8.883v.154c0-1.671 1.197-2.361 2.67-1.533z" fill="#fff"/><defs><linearGradient id="paint0_linear" x1="32.416" y1="8.646" x2="14.813" y2="26.271" gradientUnits="userSpaceOnUse"><stop stop-color="#00A0FF"/><stop offset=".007" stop-color="#00A1FF"/><stop offset=".26" stop-color="#00BEFF"/><stop offset=".512" stop-color="#00D2FF"/><stop offset=".76" stop-color="#00DFFF"/><stop offset="1" stop-color="#00E3FF"/></linearGradient><linearGradient id="paint1_linear" x1="45.06" y1="20.495" x2="19.648" y2="20.495" gradientUnits="userSpaceOnUse"><stop stop-color="#FFE000"/><stop offset=".409" stop-color="#FFBD00"/><stop offset=".775" stop-color="orange"/><stop offset="1" stop-color="#FF9C00"/></linearGradient><linearGradient id="paint2_linear" x1="35.604" y1="22.906" x2="11.733" y2="46.807" gradientUnits="userSpaceOnUse"><stop stop-color="#FF3A44"/><stop offset="1" stop-color="#C31162"/></linearGradient><linearGradient id="paint3_linear" x1="17.194" y1="-.303" x2="27.854" y2="10.369" gradientUnits="userSpaceOnUse"><stop stop-color="#32A071"/><stop offset=".069" stop-color="#2DA771"/><stop offset=".476" stop-color="#15CF74"/><stop offset=".801" stop-color="#06E775"/><stop offset="1" stop-color="#00F076"/></linearGradient></defs></svg>