<svg width="157" height="46" fill="none" xmlns="http://www.w3.org/2000/svg"><path d="M151.183 46H5.817C2.61 46 0 43.407 0 40.25V5.75C0 2.581 2.611 0 5.817 0h145.366C154.386 0 157 2.581 157 5.75v34.5c0 3.157-2.614 5.75-5.817 5.75z" fill="#000"/><path d="M151.183.92c2.689 0 4.89 2.172 4.89 4.83v34.5c0 2.658-2.187 4.83-4.89 4.83H5.817c-2.689 0-4.89-2.172-4.89-4.83V5.75c0-2.658 2.187-4.83 4.89-4.83h145.366zm0-.92H5.817C2.61 0 0 2.593 0 5.75v34.5C0 43.419 2.611 46 5.817 46h145.366c3.203 0 5.817-2.581 5.817-5.75V5.75c0-3.157-2.614-5.75-5.817-5.75z" fill="#9D9DB4"/><path d="M82.708 15.217c-1.048 0-1.932-.365-2.631-1.082a3.668 3.668 0 01-1.063-2.638c0-1.047.358-1.933 1.063-2.636.696-.717 1.58-1.08 2.628-1.08 1.037 0 1.921.363 2.632 1.08a3.661 3.661 0 011.062 2.636c-.011 1.05-.37 1.936-1.063 2.636-.695.722-1.58 1.084-2.628 1.084zm-31.196 0a3.671 3.671 0 01-2.643-1.067c-.722-.706-1.088-1.598-1.088-2.65 0-1.053.366-1.945 1.088-2.65.714-.708 1.603-1.067 2.643-1.067.508 0 1.002.1 1.476.304.465.198.843.468 1.124.797l.069.084-.783.762-.08-.094c-.443-.522-1.035-.777-1.817-.777a2.52 2.52 0 00-1.811.734c-.506.49-.763 1.133-.763 1.91 0 .777.257 1.42.763 1.91a2.52 2.52 0 001.81.734c.746 0 1.373-.247 1.86-.734.29-.287.468-.689.532-1.196h-2.51v-1.073h3.587l.015.098c.026.18.052.367.052.539 0 .99-.3 1.79-.895 2.38-.676.7-1.56 1.056-2.629 1.056zm41.478-.152h-1.106l-3.388-5.383.03.969v4.41h-1.107V7.936h1.262l.035.055 3.186 5.07-.03-.966v-4.16h1.118v7.13zm-18.594 0h-1.12V9.008H71.33V7.935h5.006v1.073h-1.944v6.057h.003zm-3.977 0H69.3v-7.13h1.118v7.13zm-6.282 0h-1.118V9.008h-1.944V7.935h5.005v1.073h-1.943v6.057zm-3.77-.012h-4.286V7.935h4.286v1.073h-3.165v1.956h2.857v1.06h-2.857v1.957h3.166v1.072zm20.53-1.655a2.48 2.48 0 001.811.746c.725 0 1.317-.244 1.811-.746.491-.487.74-1.127.74-1.898 0-.772-.249-1.414-.737-1.899a2.487 2.487 0 00-1.81-.745c-.726 0-1.318.243-1.809.745-.49.488-.74 1.127-.74 1.899 0 .771.246 1.414.734 1.898zM78.91 25.019c-2.73 0-4.942 2.056-4.942 4.892 0 2.81 2.227 4.893 4.942 4.893 2.73 0 4.942-2.07 4.942-4.893 0-2.836-2.212-4.892-4.942-4.892zm0 7.846c-1.493 0-2.778-1.227-2.778-2.965 0-1.764 1.288-2.965 2.778-2.965 1.493 0 2.779 1.201 2.779 2.965.003 1.75-1.286 2.965-2.779 2.965zM68.128 25.02c-2.73 0-4.941 2.056-4.941 4.892 0 2.81 2.226 4.893 4.941 4.893 2.73 0 4.942-2.07 4.942-4.893 0-2.836-2.215-4.892-4.942-4.892zm0 7.846c-1.493 0-2.778-1.227-2.778-2.965 0-1.764 1.288-2.965 2.778-2.965 1.494 0 2.779 1.201 2.779 2.965 0 1.75-1.285 2.965-2.779 2.965zm-12.83-6.352v2.07h5.006c-.153 1.162-.54 2.02-1.132 2.607-.734.729-1.866 1.52-3.862 1.52-3.076 0-5.482-2.466-5.482-5.52 0-3.055 2.406-5.52 5.482-5.52 1.661 0 2.871.65 3.77 1.482l1.478-1.469c-1.248-1.187-2.908-2.096-5.236-2.096-4.22 0-7.761 3.413-7.761 7.591 0 4.19 3.538 7.591 7.76 7.591 2.28 0 3.99-.74 5.341-2.133 1.378-1.368 1.814-3.298 1.814-4.856 0-.484-.038-.92-.115-1.29h-7.065c.003-.003.003.023.003.023zm52.477 1.612c-.413-1.099-1.66-3.118-4.219-3.118-2.536 0-4.645 1.982-4.645 4.893 0 2.747 2.086 4.892 4.89 4.892 2.253 0 3.564-1.368 4.104-2.17l-1.672-1.113c-.554.817-1.326 1.353-2.42 1.353-1.106 0-1.88-.499-2.395-1.482l6.589-2.71-.232-.545zm-6.718 1.634c-.052-1.89 1.479-2.85 2.574-2.85.863 0 1.583.421 1.828 1.035l-4.402 1.815zm-5.352 4.74h2.164V20.127h-2.164V34.5zm-3.552-8.393h-.078c-.488-.577-1.415-1.099-2.6-1.099-2.457 0-4.722 2.148-4.722 4.907 0 2.748 2.253 4.87 4.722 4.87 1.17 0 2.112-.525 2.6-1.113h.078v.703c0 1.867-1.005 2.873-2.626 2.873-1.325 0-2.148-.946-2.483-1.738l-1.88.78c.54 1.29 1.98 2.888 4.36 2.888 2.537 0 4.685-1.482 4.685-5.099V25.3h-2.045v.806h-.011zm-2.484 6.76c-1.493 0-2.741-1.24-2.741-2.952 0-1.726 1.248-2.977 2.741-2.977 1.479 0 2.625 1.265 2.625 2.977.015 1.712-1.143 2.951-2.625 2.951zm28.236-12.74h-5.173V34.5h2.163v-5.443h3.013c2.394 0 4.748-1.724 4.748-4.46 0-2.736-2.345-4.47-4.751-4.47zm.063 6.923h-3.076v-4.932h3.076a2.5 2.5 0 012.536 2.466c0 1.127-.927 2.466-2.536 2.466zm13.358-2.056c-1.571 0-3.191.691-3.861 2.197l1.918.791c.413-.791 1.169-1.06 1.969-1.06 1.121 0 2.253.665 2.279 1.852v.152c-.387-.218-1.236-.55-2.253-.55-2.071 0-4.17 1.123-4.17 3.231 0 1.93 1.698 3.17 3.59 3.17 1.453 0 2.253-.652 2.752-1.406h.078v1.113h2.086v-5.507c0-2.563-1.918-3.983-4.388-3.983zm-.271 7.872c-.708 0-1.698-.344-1.698-1.227 0-1.113 1.236-1.535 2.29-1.535.953 0 1.404.204 1.97.485a2.598 2.598 0 01-2.562 2.277zm12.266-7.565l-2.484 6.235h-.078l-2.573-6.235h-2.328l3.862 8.715-2.201 4.844h2.253l5.941-13.56h-2.392zm-19.472 9.2h2.163V20.126h-2.163V34.5z" fill="#fff"/><path d="M12.085 8.664c-.336.358-.53.906-.53 1.623v25.429c0 .717.194 1.265.541 1.609l.09.077 14.348-14.247v-.319l-14.36-14.25-.09.078z" fill="url(#paint0_linear)"/><path d="M31.309 27.918l-4.786-4.752v-.332l4.786-4.753.104.064 5.66 3.194c1.621.907 1.621 2.404 0 3.321l-5.66 3.195-.104.063z" fill="url(#paint1_linear)"/><path d="M31.413 27.855L26.523 23 12.085 37.336c.528.562 1.415.626 2.405.078l16.923-9.559z" fill="url(#paint2_linear)"/><path d="M31.413 18.145L14.49 8.6c-.99-.562-1.88-.485-2.405.077L26.523 23l4.89-4.855z" fill="url(#paint3_linear)"/><path opacity=".2" d="M31.309 27.752l-16.807 9.481c-.939.536-1.776.499-2.317.012l-.09.088.09.078c.54.484 1.378.525 2.317-.012l16.922-9.544-.115-.103z" fill="#000"/><path opacity=".12" d="M37.074 24.494l-5.78 3.258.104.103 5.661-3.195c.812-.458 1.21-1.06 1.21-1.66-.049.55-.462 1.073-1.195 1.494z" fill="#000"/><path opacity=".25" d="M14.49 8.767l22.584 12.739c.733.41 1.146.946 1.21 1.494 0-.6-.399-1.202-1.21-1.66L14.49 8.6c-1.62-.92-2.934-.151-2.934 1.687v.166c0-1.841 1.314-2.595 2.934-1.686z" fill="#fff"/><defs><linearGradient id="paint0_linear" x1="25.247" y1="10.013" x2="2.285" y2="16.175" gradientUnits="userSpaceOnUse"><stop stop-color="#00A0FF"/><stop offset=".007" stop-color="#00A1FF"/><stop offset=".26" stop-color="#00BEFF"/><stop offset=".512" stop-color="#00D2FF"/><stop offset=".76" stop-color="#00DFFF"/><stop offset="1" stop-color="#00E3FF"/></linearGradient><linearGradient id="paint1_linear" x1="39.187" y1="23" x2="11.162" y2="23" gradientUnits="userSpaceOnUse"><stop stop-color="#FFE000"/><stop offset=".409" stop-color="#FFBD00"/><stop offset=".775" stop-color="orange"/><stop offset="1" stop-color="#FF9C00"/></linearGradient><linearGradient id="paint2_linear" x1="28.753" y1="25.641" x2="10.494" y2="56.591" gradientUnits="userSpaceOnUse"><stop stop-color="#FF3A44"/><stop offset="1" stop-color="#C31162"/></linearGradient><linearGradient id="paint3_linear" x1="8.449" y1=".206" x2="16.595" y2="14.028" gradientUnits="userSpaceOnUse"><stop stop-color="#32A071"/><stop offset=".069" stop-color="#2DA771"/><stop offset=".476" stop-color="#15CF74"/><stop offset=".801" stop-color="#06E775"/><stop offset="1" stop-color="#00F076"/></linearGradient></defs></svg>