<svg width="175" height="136" fill="none" xmlns="http://www.w3.org/2000/svg"><circle cx="90" cy="68" r="68" fill="#4F57AA"/><path d="M161.534 22C158.46 22 156 19.54 156 16.534A5.511 5.511 0 01161.534 11a5.51 5.51 0 015.534 5.534C167 19.54 164.54 22 161.534 22zm0-9.633a4.141 4.141 0 00-4.168 4.167 4.141 4.141 0 004.168 4.168 4.141 4.141 0 004.168-4.168c-.068-2.323-1.913-4.167-4.168-4.167z" fill="#FB9F88"/><path d="M17.4 23.4c-.3 0-.5-.1-.7-.3l-5.4-5.4c-.4-.4-.4-1 0-1.4.4-.4 1-.4 1.4 0l5.4 5.4c.4.4.4 1 0 1.4-.2.2-.4.3-.7.3z" fill="#4F57AA"/><path d="M12 23.4c-.3 0-.5-.1-.7-.3-.4-.4-.4-1 0-1.4l5.4-5.4c.4-.4 1-.4 1.4 0 .4.4.4 1 0 1.4l-5.4 5.4c-.2.2-.5.3-.7.3z" fill="#4F57AA"/><path d="M137.4 134.4c-.3 0-.5-.1-.7-.3l-5.4-5.4c-.4-.4-.4-1 0-1.4.4-.4 1-.4 1.4 0l5.4 5.4c.4.4.4 1 0 1.4-.2.2-.4.3-.7.3z" fill="#FB9F88"/><path d="M132 134.4c-.3 0-.5-.1-.7-.3-.4-.4-.4-1 0-1.4l5.4-5.4c.4-.4 1-.4 1.4 0 .4.4.4 1 0 1.4l-5.4 5.4c-.2.2-.5.3-.7.3z" fill="#FB9F88"/><path d="M114 27.492A4.496 4.496 0 00109.51 23H71.49A4.48 4.48 0 0067 27.492V31.6h47v-4.107z" fill="#E6EFFF"/><path d="M114 31.6H67v72.774h47V31.599z" fill="#573856"/><path d="M67 104.374v5.134A4.496 4.496 0 0071.49 114h38.046a4.496 4.496 0 004.49-4.492v-5.134H67z" fill="#E6EFFF"/><path d="M90.5 113.23a4.02 4.02 0 01-3.489-2.028 4.038 4.038 0 010-4.03 4.02 4.02 0 013.49-2.028c1.436 0 2.77.77 3.489 2.028a4.038 4.038 0 010 4.03 4.02 4.02 0 01-3.49 2.028zm0-7.419a3.352 3.352 0 00-2.924 1.694 3.466 3.466 0 000 3.389 3.352 3.352 0 002.925 1.694 3.352 3.352 0 002.924-1.694 3.466 3.466 0 000-3.389 3.352 3.352 0 00-2.924-1.694zm3.848-77.985h-7.696a.515.515 0 01-.513-.513c0-.283.23-.514.513-.514h7.696a.515.515 0 010 1.027zm3.232.59a1.104 1.104 0 100-2.207 1.104 1.104 0 000 2.207z" fill="#1A2943"/><path d="M140.151 114.301c6.158 0 11.15-4.992 11.15-11.15 0-6.159-4.992-11.151-11.15-11.151C133.992 92 129 96.992 129 103.151c0 6.158 4.992 11.15 11.151 11.15z" fill="#FB9F88"/><path d="M144.903 108.928h-9.504a.853.853 0 01-.864-.864v-7.019c0-.486.378-.864.864-.864h9.504c.486 0 .864.378.864.864v7.046c-.027.459-.405.837-.864.837zm-8.64-1.7h7.776v-5.346h-7.776v5.346z" fill="#fff"/><path d="M143.904 101.882a.853.853 0 01-.864-.864v-2.592a.755.755 0 00-.756-.756h-4.293a.755.755 0 00-.756.756v2.592a.853.853 0 01-.864.864.853.853 0 01-.864-.864v-2.592a2.477 2.477 0 012.484-2.484h4.293a2.477 2.477 0 012.483 2.484v2.592a.853.853 0 01-.863.864zm-2.889 1.944a.853.853 0 00-.864-.864.853.853 0 00-.864.864c0 .378.216.675.54.81l-.54 1.35h1.728l-.54-1.35a.898.898 0 00.54-.81z" fill="#fff"/><path d="M87.154 54.162c-.412-1.556-2.031-2.476-3.587-2.063L33.162 65.748c-1.556.412-2.476 2.03-2.063 3.586l.444 1.683 56.056-15.173-.445-1.682z" fill="#FDCD5C"/><path d="M87.61 55.863l-56.04 15.17 1.708 6.311 56.04-15.17-1.708-6.311z" fill="#1A2943"/><path d="M33.29 77.365l5.554 20.473c.413 1.556 2.031 2.476 3.587 2.063l50.405-13.648c1.556-.413 2.476-2.032 2.064-3.587l-5.555-20.474-56.056 15.173z" fill="#FDCD5C"/><path d="M52.65 89.554l-8.633 2.349c-1.048.285-2.127-.35-2.412-1.397-.286-1.047.349-2.127 1.396-2.412l8.634-2.35c1.047-.285 2.127.35 2.412 1.397.254 1.048-.349 2.159-1.396 2.413z" fill="#E6EFFF"/><path d="M80.322 84.143a3.968 3.968 0 10-2.074-7.66 3.968 3.968 0 002.073 7.66z" fill="#FF6B6B"/><path d="M86.07 82.592a3.968 3.968 0 10-2.074-7.66 3.968 3.968 0 002.074 7.66z" fill="#E6EFFF"/><path d="M128.942 39H104.36c-.745 0-1.36.615-1.36 1.36v13.894c0 .745.615 1.36 1.36 1.36h24.582c.745 0 1.361-.615 1.361-1.36V40.36c.032-.745-.583-1.36-1.361-1.36z" fill="#008AA9"/><path d="M122.821 52.182a5.182 5.182 0 100-10.364 5.182 5.182 0 000 10.364z" fill="#fff"/><path d="M123.533 47.291a1.724 1.724 0 001.004-1.554c0-.94-.777-1.717-1.716-1.717-.94 0-1.717.777-1.717 1.717 0 .68.421 1.295 1.004 1.554-1.198.324-2.105 1.425-2.105 2.72h5.635a2.79 2.79 0 00-2.105-2.72z" fill="#008AA9"/><path d="M110.449 43.372h-4.048a.512.512 0 01-.518-.518c0-.291.227-.518.518-.518h4.048c.292 0 .519.227.519.518a.512.512 0 01-.519.518zm4.243 0h-1.587a.512.512 0 01-.518-.518c0-.291.227-.518.518-.518h1.587c.292 0 .518.227.518.518a.511.511 0 01-.518.518zm-4.049.908h4.049c.291 0 .518.226.518.517a.512.512 0 01-.518.519h-4.049a.512.512 0 01-.518-.519c.032-.291.259-.518.518-.518zm-4.242 0h1.587c.291 0 .518.226.518.517a.512.512 0 01-.518.519h-1.587a.512.512 0 01-.518-.519c0-.291.259-.518.518-.518zm4.242 6.185h4.049c.291 0 .518.227.518.518a.512.512 0 01-.518.519h-4.049a.512.512 0 01-.518-.519c.032-.291.259-.518.518-.518zm-4.242 0h1.587c.291 0 .518.227.518.518a.512.512 0 01-.518.519h-1.587a.512.512 0 01-.518-.519c0-.291.259-.518.518-.518z" fill="#fff"/><path d="M46.59 39.91c6.302-3.364 8.683-11.199 5.32-17.5-3.364-6.302-11.199-8.683-17.5-5.32-6.302 3.364-8.683 11.199-5.32 17.5 3.364 6.302 11.199 8.683 17.5 5.32z" fill="#FBA927"/><path d="M45.087 37.093c4.745-2.533 6.539-8.434 4.006-13.18-2.533-4.745-8.434-6.539-13.18-4.006-4.745 2.533-6.54 8.434-4.006 13.18 2.533 4.745 8.434 6.54 13.18 4.006z" fill="#FDCD5C"/><path d="M40.495 40.184a11.678 11.678 0 01-10.32-6.192c-3.032-5.677-.872-12.772 4.805-15.804 2.741-1.484 5.902-1.774 8.902-.871 3 .903 5.45 2.935 6.902 5.676 1.483 2.742 1.774 5.903.87 8.902-.903 3-2.902 5.45-5.676 6.902a11.536 11.536 0 01-5.483 1.387zm-9.772-6.483c2.87 5.386 9.579 7.418 14.965 4.548 2.612-1.387 4.515-3.71 5.386-6.547.87-2.839.58-5.806-.839-8.418-1.386-2.613-3.709-4.516-6.547-5.386-2.838-.871-5.805-.581-8.418.838-5.386 2.87-7.418 9.58-4.547 14.965z" fill="#FDCD5C"/><path d="M36.883 23.445l-.452-.806 1.42-.774.45.838c1.387-.419 2.516.194 3.323 1.71l.193.354-1.645.871-.258-.451c-.419-.807-.903-.936-1.451-.613-.548.29-.71.774-.29 1.548 1.225 2.29 4.676.58 6.386 3.741.806 1.516.677 2.806-.42 3.742l.42.806-1.42.774-.451-.839c-1.387.42-2.548-.225-3.354-1.709l-.42-.774 1.645-.87.452.87c.42.806.935.903 1.483.58.549-.29.742-.773.323-1.547-1.161-2.29-4.644-.581-6.322-3.742-.806-1.483-.71-2.774.388-3.709zm101.156 43.419c3.054 2.592 7.541 2.306 10.024-.638 2.482-2.944 2.019-7.431-1.034-10.023-3.054-2.592-7.541-2.306-10.024.638-2.482 2.944-2.019 7.431 1.034 10.023z" fill="#FBA927"/><path d="M139.15 65.548c2.299 1.952 5.679 1.737 7.548-.48 1.87-2.217 1.521-5.597-.778-7.549-2.3-1.952-5.68-1.737-7.549.48-1.87 2.217-1.521 5.597.779 7.549z" fill="#FDCD5C"/><path d="M136.627 63.791c-.883-2.191-.592-4.736.955-6.593 2.23-2.683 6.272-2.926 9-.545a6.79 6.79 0 012.317 4.485c.176 1.743-.335 3.417-1.414 4.706-1.073 1.306-2.61 2.07-4.316 2.178-1.706.108-3.367-.463-4.685-1.633a6.805 6.805 0 01-1.857-2.597zm1.217-6.362c-2.117 2.542-1.73 6.442.856 8.703 1.251 1.097 2.826 1.642 4.444 1.549a5.61 5.61 0 004.078-2.067c1.028-1.23 1.501-2.813 1.343-4.465a6.347 6.347 0 00-2.198-4.238c-2.587-2.26-6.406-2.025-8.523.518z" fill="#FDCD5C"/><path d="M144.316 58.643l.311-.394.693.606-.327.4c.508.658.439 1.375-.155 2.094l-.138.171-.791-.708.173-.224c.318-.377.28-.659 0-.889-.263-.236-.542-.229-.844.142-.895 1.09.704 2.598-.528 4.111-.594.72-1.273.897-1.979.493l-.318.377-.694-.606.327-.4c-.507-.658-.429-1.399.149-2.111l.301-.371.791.708-.344.407c-.318.377-.256.67.023.9.264.236.55.246.851-.125.91-1.056-.697-2.58.542-4.077.578-.713 1.25-.908 1.957-.504z" fill="#FBA927"/><path d="M7.5 77C3.333 77 0 73.646 0 69.547 0 65.354 3.333 62 7.5 62s7.5 3.354 7.5 7.547C14.907 73.646 11.574 77 7.5 77zm0-13.137c-3.148 0-5.648 2.516-5.648 5.684 0 3.167 2.5 5.683 5.648 5.683 3.148 0 5.648-2.516 5.648-5.683-.092-3.168-2.592-5.684-5.648-5.684z" fill="#FB9F88"/><path d="M171 78c-2.222 0-4-1.789-4-3.975A3.996 3.996 0 01171 70c2.222 0 4 1.789 4 4.025-.049 2.186-1.827 3.975-4 3.975zm0-7.006a3.002 3.002 0 00-3.012 3.03A3.002 3.002 0 00171 77.057a3.002 3.002 0 003.012-3.031c-.049-1.69-1.382-3.031-3.012-3.031z" fill="#4F57AA"/></svg>