<svg width="42" height="47" fill="none" xmlns="http://www.w3.org/2000/svg"><path d="M36.4 11.9l1.6-1.6 1.9 1.9 1.2-1.3-5.1-5-1.2 1.3 1.9 1.9-1.6 1.6C31.7 7.3 27 5.2 21.8 5V2.8h4.1V0h-10v2.8H20V5c-5 .2-9.6 2.3-13.2 5.5L5.2 8.8 7 7.1 5.7 5.9l-5 5L2 12.1l2-2 1.6 1.6C2.1 15.4 0 20.4 0 25.9c0 11.6 9.4 20.9 20.9 20.9 11.6 0 20.9-9.4 20.9-20.9.1-5.4-2-10.3-5.4-14zM20.9 44.1c-10 0-18.2-8.2-18.2-18.2S10.9 7.7 20.9 7.7s18.2 8.2 18.2 18.2c0 10.1-8.1 18.2-18.2 18.2zm0-35c-9.3 0-16.8 7.5-16.8 16.8s7.5 16.8 16.8 16.8 16.8-7.5 16.8-16.8c.1-9.3-7.5-16.8-16.8-16.8zm0 31.9c-8.3 0-15.1-6.8-15.1-15.1s6.8-15.1 15.1-15.1S36 17.6 36 25.9 29.3 41 20.9 41zm1.4-17.6l-1.4 1.4-3.6-3.6-1.3 1.2 4.2 4.2c.2.2.4.3.6.3.2 0 .4-.1.6-.3l7.4-7.2-1.2-1.3-5.3 5.3zM8.1 26.9h2.6v-1.8H8.1v1.8zm23.2-1.8v1.8h2.4v-1.8h-2.4zm-9.6-11.9H20v2.3h1.8v-2.3h-.1zM20 38.8h1.8v-2.2H20v2.2z" fill="#fff"/></svg>