<svg width="71" height="198" viewBox="0 0 71 198" fill="none" xmlns="http://www.w3.org/2000/svg">
<path d="M38.2557 196.556L70.0279 178.2V179.606L38.2557 198V196.556Z" fill="#2E383B"/>
<path d="M0.364807 176.223V174.779L38.2558 196.556V198L0.364807 176.223Z" fill="#414E52"/>
<path d="M0.364807 174.779L32.175 156.423L70.0279 178.2L38.2558 196.556L0.364807 174.779Z" fill="#5B686C"/>
<path d="M38.2558 105.838L5.11548 86.7979V168.357L38.2558 187.435V105.838Z" fill="#D1D9DD"/>
<path opacity="0.2" d="M38.2558 105.838L5.11548 86.7979V91.8145L38.2558 110.855V105.838Z" fill="black"/>
<path d="M64.9732 31.0446L38.2557 105.838V187.435L64.9732 172.005V31.0446Z" fill="#B7BFC3"/>
<path opacity="0.2" d="M64.9732 31.0446L38.2557 105.838V110.855L41.0301 108.423L64.9732 40.5838V31.0446Z" fill="black"/>
<path d="M34.2272 107.281C35.6714 108.117 37.2676 107.509 37.8377 105.951L66.2654 23.7082C66.7975 22.15 66.0754 20.1738 64.6312 19.3377L32.1749 0.525192C30.7307 -0.310918 29.1345 0.297162 28.5645 1.85537L0.17475 84.1361C-0.357319 85.6943 0.364775 87.6706 1.80896 88.5067L34.2272 107.281Z" fill="#DEE6EA"/>
<path d="M43.6524 76.8026L62.3508 22.6835L31.7948 4.93518L13.0583 59.0923L43.6524 76.8026Z" fill="#414E52"/>
<path d="M15.5288 58.1801L32.8971 7.89954L59.9186 23.5956L42.5503 73.8382L15.5288 58.1801Z" fill="#508ECF"/>
<path d="M67.7856 19.263L35.3673 0.450541C34.8353 0.146501 34.2652 0.0324864 33.7331 0.108496L30.6547 0.184506C31.1488 0.146501 31.6809 0.260516 32.1749 0.564556L64.5932 19.377C66.0374 20.2131 66.7595 22.1894 66.2274 23.7476L37.8377 105.952C37.5336 106.788 36.9255 107.359 36.2035 107.587H38.7878C39.7759 107.587 40.65 106.94 41.0301 105.876L69.4198 23.6336C69.9519 22.0374 69.2298 20.0991 67.7856 19.263Z" fill="url(#paint0_linear)"/>
<path d="M7.3197 169.649V175.273L38.2557 193.06V187.435L7.3197 169.649Z" fill="#414E52"/>
<path d="M62.959 173.145L38.2557 187.435V193.06L62.959 178.808V173.145Z" fill="#2E383B"/>
<path opacity="0.2" d="M31.7948 4.93518L13.0583 59.0923L17.6569 61.7526C22.8256 52.6694 35.7093 34.123 60.4885 21.6194L31.7948 4.93518Z" fill="white"/>
<path d="M5.11548 156.385L38.2558 175.463V175.273L5.11548 156.195V156.385ZM5.11548 94.5889V94.7789L38.1798 113.895L38.2558 113.933V113.743L5.11548 94.5889Z" fill="white"/>
<path opacity="0.2" d="M5.11548 156.575L38.1798 175.615L38.2558 175.653V175.463L5.11548 156.385V156.575ZM5.11548 94.3988V94.5888L38.2558 113.743V113.553L5.11548 94.3988Z" fill="black"/>
<path opacity="0.5" d="M47.4149 108.575C47.3009 108.575 47.1489 108.613 47.0349 108.689L38.2557 113.743V113.933L38.3317 113.895L47.1109 108.841C47.2249 108.765 47.3389 108.727 47.4149 108.727C47.681 108.727 47.719 109.069 47.719 109.183V168.889C47.719 169.383 47.3769 169.991 46.9209 170.257L38.2557 175.273V175.463L47.0349 170.409C47.529 170.143 47.909 169.459 47.909 168.889V109.221C47.909 108.803 47.719 108.575 47.4149 108.575Z" fill="white"/>
<path opacity="0.2" d="M47.4149 108.423C47.2629 108.423 47.1109 108.461 46.9209 108.575L38.2177 113.591V113.781L46.9969 108.727C47.1489 108.651 47.2629 108.613 47.3769 108.613C47.6429 108.613 47.871 108.841 47.871 109.221V168.927C47.871 169.497 47.4909 170.143 46.9969 170.447L38.2177 175.501V175.692L38.2937 175.654L47.0729 170.599C47.6049 170.295 48.023 169.573 48.023 168.927V109.221C48.099 108.727 47.833 108.423 47.4149 108.423Z" fill="black"/>
<path d="M24.9921 89.4961L33.5052 94.4367L38.9399 78.7407L30.4268 73.8L24.9921 89.4961Z" fill="#D1D9DD"/>
<path d="M26.5122 89.0022L33.8852 93.2588L38.9398 78.7409L31.5669 74.4463L26.5122 89.0022Z" fill="url(#paint1_linear)"/>
<path d="M31.5288 78.4747L37.7616 82.0852L38.9398 78.7408L32.669 75.0923L31.5288 78.4747Z" fill="#3B9536"/>
<path d="M27.3102 88.6221L28.0323 86.5698L29.8185 87.634L29.1344 89.6482L27.3102 88.6221Z" fill="#586770"/>
<path d="M29.7046 87.6719L28.0704 86.7218L27.4623 88.546L29.0965 89.4962L29.7046 87.6719Z" fill="url(#paint2_linear)"/>
<path d="M29.6666 89.9521L30.3507 87.9379L32.175 89.002L31.4529 91.0163L29.6666 89.9521Z" fill="#586770"/>
<path d="M32.0611 89.0401L30.4268 88.09L29.7808 89.9142L31.415 90.8643L32.0611 89.0401Z" fill="url(#paint3_linear)"/>
<path d="M31.9849 91.3205L32.707 89.2682L34.4932 90.3323L33.8091 92.3466L31.9849 91.3205Z" fill="#586770"/>
<path d="M34.3792 90.3703L32.745 89.4202L32.0989 91.2444L33.7331 92.1945L34.3792 90.3703Z" fill="url(#paint4_linear)"/>
<path d="M28.2224 86.1517L28.9065 84.1375L30.7307 85.1636L30.0086 87.2159L28.2224 86.1517Z" fill="#586770"/>
<path d="M30.5787 85.2397L28.9825 84.2896L28.3364 86.1138L29.9706 87.0639L30.5787 85.2397Z" fill="url(#paint5_linear)"/>
<path d="M30.5407 87.5199L31.2248 85.4677L33.049 86.5318L32.3649 88.5461L30.5407 87.5199Z" fill="#586770"/>
<path d="M32.935 86.5698L31.3008 85.6196L30.6547 87.4819L32.2889 88.432L32.935 86.5698Z" fill="url(#paint6_linear)"/>
<path d="M32.8591 88.8501L33.5812 86.8358L35.3674 87.8619L34.6833 89.9142L32.8591 88.8501Z" fill="#586770"/>
<path d="M35.2533 87.9379L33.6191 86.9878L33.011 88.812L34.6072 89.7622L35.2533 87.9379Z" fill="url(#paint7_linear)"/>
<path d="M29.0966 83.7194L29.7806 81.6671L31.6049 82.7313L30.8828 84.7455L29.0966 83.7194Z" fill="#586770"/>
<path d="M31.4907 82.7692L29.8565 81.8191L29.2104 83.6813L30.8447 84.5935L31.4907 82.7692Z" fill="url(#paint8_linear)"/>
<path d="M31.4148 85.0495L32.1369 83.0353L33.9231 84.0994L33.239 86.1137L31.4148 85.0495Z" fill="#586770"/>
<path d="M33.8091 84.1374L32.1749 83.1873L31.5288 85.0115L33.163 85.9616L33.8091 84.1374Z" fill="url(#paint9_linear)"/>
<path d="M33.7711 86.4177L34.4552 84.3655L36.2794 85.4296L35.5574 87.4439L33.7711 86.4177Z" fill="#586770"/>
<path d="M36.1274 85.4676L34.4932 84.5175L33.8851 86.3417L35.5193 87.2918L36.1274 85.4676Z" fill="url(#paint10_linear)"/>
<path d="M29.9706 81.249L30.6927 79.2347L32.4789 80.2989L31.7948 82.3131L29.9706 81.249Z" fill="#586770"/>
<path d="M32.3649 80.337L30.7307 79.3868L30.0846 81.2111L31.7188 82.1612L32.3649 80.337Z" fill="url(#paint11_linear)"/>
<path d="M32.327 82.6173L33.0111 80.603L34.8353 81.6292L34.1132 83.6814L32.327 82.6173Z" fill="#586770"/>
<path d="M34.6833 81.6671L33.0491 80.755L32.441 82.5792L34.0752 83.5294L34.6833 81.6671Z" fill="url(#paint12_linear)"/>
<path d="M34.6451 83.9474L35.3292 81.9331L37.1535 82.9592L36.4314 85.0115L34.6451 83.9474Z" fill="#586770"/>
<path d="M37.0396 83.0353L35.4054 82.0852L34.7593 83.9094L36.3935 84.8596L37.0396 83.0353Z" fill="url(#paint13_linear)"/>
<path d="M24.992 89.4961L33.5051 94.4367L32.517 97.2871L21.0015 90.5982L24.992 89.4961Z" fill="#EBF3F7"/>
<path d="M24.992 89.4962L21.0015 90.5983L27.3863 72.0519L30.4267 73.8001L24.992 89.4962Z" fill="#B7BFC3"/>
<path d="M18.9492 78.7788L10.8162 74.0662L7.77576 82.9213L15.9088 87.6339L18.9492 78.7788Z" fill="#B7BFC3"/>
<path d="M18.9492 78.7788L10.8162 74.0662V74.1042V81.2111L16.897 84.7456L18.9492 78.7788Z" fill="#D1D9DD"/>
<path d="M18.7591 79.3108L11.4622 75.0542V80.945L17.0869 84.2134L18.7591 79.3108Z" fill="url(#paint14_linear)"/>
<path d="M19.6713 75.2063C19.8993 75.3583 20.1654 75.2443 20.2794 74.9782L22.1416 69.5435C22.2176 69.2775 22.1036 68.9734 21.8756 68.8214L14.6166 64.6029C14.3886 64.4509 14.1226 64.5649 14.0086 64.8309L12.1463 70.2656C12.0703 70.5317 12.1843 70.8357 12.4123 70.9877L19.6713 75.2063Z" fill="url(#paint15_linear)"/>
<path d="M19.2532 75.2063C19.4812 75.3583 19.7473 75.2443 19.8613 74.9782L21.7235 69.5435C21.7995 69.2775 21.6855 68.9734 21.4575 68.8214L14.1985 64.6029C13.9705 64.4509 13.7045 64.5649 13.5905 64.8309L11.7282 70.2656C11.6522 70.5317 11.7662 70.8357 11.9943 70.9877L19.2532 75.2063Z" fill="#414E52"/>
<path d="M19.4433 74.9022L12.1463 70.6837C12.0703 70.6457 12.0323 70.5316 12.0703 70.4176L13.9326 64.9829L21.2295 69.2015C21.3055 69.2395 21.3435 69.3535 21.3055 69.4675L19.4433 74.9022Z" fill="white"/>
<path d="M20.3174 72.432L21.3436 69.4297C21.3816 69.3536 21.3056 69.2396 21.2676 69.1636L13.9706 64.9451L12.8685 68.0995L20.3174 72.432Z" fill="#7A8391"/>
<path d="M16.8969 84.7455L15.9088 87.6339L7.77576 82.9213L10.8162 81.2111L16.8969 84.7455Z" fill="#EBF3F7"/>
<path d="M18.3791 111.311L9.48596 106.18V105.116L18.3791 110.247V111.311Z" fill="#2E383B"/>
<path d="M31.6049 123.701L25.22 120.052V113.781L31.6049 117.43V123.701Z" fill="#2E383B"/>
<path d="M26.1321 119.292L31.6048 122.446V117.43L26.1321 114.275V119.292Z" fill="#2E383B"/>
<path d="M31.6049 122.447L26.1322 119.292L25.22 120.052L31.6049 123.701V122.447Z" fill="#626C6F"/>
<path d="M25.22 120.052L26.1322 119.292V114.275L25.22 113.781V120.052Z" fill="#485255"/>
<path d="M31.6049 120.508L26.7402 117.696V115.302L31.6049 118.114V120.508Z" fill="#840000"/>
<path d="M26.8158 117.657V115.453L31.4904 118.189V120.355L26.8158 117.657Z" fill="#950708"/>
<path d="M26.8923 117.62V115.605L31.4149 118.228V120.204L26.8923 117.62Z" fill="#A50F0F"/>
<path d="M27.0062 117.544V115.757L31.3388 118.266V120.052L27.0062 117.544Z" fill="#B61617"/>
<path opacity="0.5" d="M31.6049 120.28L25.22 116.632V113.781L31.6049 117.43V120.28Z" fill="url(#paint16_linear)"/>
<path d="M14.6926 70.7597C14.5786 71.0257 14.2745 71.1397 14.0085 70.9497C13.7045 70.7977 13.5524 70.4176 13.6665 70.1516C13.7805 69.8855 14.0845 69.7715 14.3505 69.9615C14.6166 70.1136 14.7686 70.4936 14.6926 70.7597Z" fill="#F4872A"/>
<path d="M13.9705 70.3795C13.8565 70.6456 13.5525 70.7596 13.2865 70.5696C12.9824 70.4175 12.8304 70.0375 12.9444 69.7714C13.0584 69.5054 13.3625 69.3914 13.6285 69.5814C13.9325 69.7334 14.0846 70.0755 13.9705 70.3795Z" fill="#DC2620"/>
<path d="M18.9871 73.8L17.1629 72.7739L17.5049 71.7858L19.2912 72.8499L18.9871 73.8Z" fill="#508ECF"/>
<path d="M18.6071 68.9354L14.0085 66.275L14.0846 66.047L18.6832 68.6693L18.6071 68.9354Z" fill="white"/>
<path d="M15.4528 68.9734L13.4765 67.8333L13.5525 67.5673L15.5288 68.7454L15.4528 68.9734Z" fill="white"/>
<path d="M17.011 71.9378L15.1487 70.8737L15.2628 70.6077L17.087 71.6718L17.011 71.9378Z" fill="#7A8391"/>
<path d="M16.8589 72.4318L14.9967 71.3677L15.0727 71.1396L16.935 72.2038L16.8589 72.4318Z" fill="#7A8391"/>
<path d="M20.5834 70.6836L13.8185 66.8071L13.8945 66.541L20.6974 70.4555L20.5834 70.6836Z" fill="white"/>
<path d="M20.4314 71.2157L13.6285 67.3011L13.7426 67.0731L20.5074 70.9496L20.4314 71.2157Z" fill="white"/>
<path d="M16.8969 81.4011C16.8969 82.6173 16.0608 83.1114 14.9967 82.5033C13.9325 81.8952 13.0964 80.413 13.0964 79.1968C13.0964 77.9807 13.9325 77.4866 14.9967 78.0947C16.0228 78.7028 16.8969 80.185 16.8969 81.4011Z" fill="url(#paint17_linear)"/>
<path d="M17.8851 81.8192L12.2983 78.5887V79.1208L17.7331 82.2752L17.8851 81.8192Z" fill="#414E52"/>
<path opacity="0.3" d="M27.3863 72.0519L21.0015 90.5983L32.517 97.2872L38.9398 78.7408L27.3863 72.0519Z" fill="url(#paint18_linear)"/>
<defs>
<linearGradient id="paint0_linear" x1="39.0685" y1="30.1416" x2="40.7499" y2="34.3456" gradientUnits="userSpaceOnUse">
<stop stop-color="#F2F5F7"/>
<stop offset="1" stop-color="#C7CED2"/>
</linearGradient>
<linearGradient id="paint1_linear" x1="24.1842" y1="87.7128" x2="53.6628" y2="74.4256" gradientUnits="userSpaceOnUse">
<stop stop-color="#879099"/>
<stop offset="0.2727" stop-color="#D0D8DF"/>
<stop offset="0.3515" stop-color="#EEF7FF"/>
<stop offset="0.5333" stop-color="#D3DBE1"/>
<stop offset="0.8067" stop-color="#879099"/>
<stop offset="0.8424" stop-color="#D3DBE1"/>
<stop offset="1" stop-color="#879099"/>
</linearGradient>
<linearGradient id="paint2_linear" x1="28.2909" y1="88.2566" x2="40.8244" y2="82.3446" gradientUnits="userSpaceOnUse">
<stop stop-color="#879099"/>
<stop offset="0.2727" stop-color="#D0D8DF"/>
<stop offset="0.3515" stop-color="#EEF7FF"/>
<stop offset="0.5333" stop-color="#D3DBE1"/>
<stop offset="0.8067" stop-color="#879099"/>
<stop offset="0.8424" stop-color="#D3DBE1"/>
<stop offset="1" stop-color="#879099"/>
</linearGradient>
<linearGradient id="paint3_linear" x1="29.2373" y1="90.2623" x2="41.7693" y2="84.351" gradientUnits="userSpaceOnUse">
<stop stop-color="#879099"/>
<stop offset="0.2727" stop-color="#D0D8DF"/>
<stop offset="0.3515" stop-color="#EEF7FF"/>
<stop offset="0.5333" stop-color="#D3DBE1"/>
<stop offset="0.8067" stop-color="#879099"/>
<stop offset="0.8424" stop-color="#D3DBE1"/>
<stop offset="1" stop-color="#879099"/>
</linearGradient>
<linearGradient id="paint4_linear" x1="30.1775" y1="92.2581" x2="42.7138" y2="86.3448" gradientUnits="userSpaceOnUse">
<stop stop-color="#879099"/>
<stop offset="0.2727" stop-color="#D0D8DF"/>
<stop offset="0.3515" stop-color="#EEF7FF"/>
<stop offset="0.5333" stop-color="#D3DBE1"/>
<stop offset="0.8067" stop-color="#879099"/>
<stop offset="0.8424" stop-color="#D3DBE1"/>
<stop offset="1" stop-color="#879099"/>
</linearGradient>
<linearGradient id="paint5_linear" x1="27.5064" y1="86.5945" x2="40.0421" y2="80.6815" gradientUnits="userSpaceOnUse">
<stop stop-color="#879099"/>
<stop offset="0.2727" stop-color="#D0D8DF"/>
<stop offset="0.3515" stop-color="#EEF7FF"/>
<stop offset="0.5333" stop-color="#D3DBE1"/>
<stop offset="0.8067" stop-color="#879099"/>
<stop offset="0.8424" stop-color="#D3DBE1"/>
<stop offset="1" stop-color="#879099"/>
</linearGradient>
<linearGradient id="paint6_linear" x1="28.4534" y1="88.5998" x2="40.9846" y2="82.6889" gradientUnits="userSpaceOnUse">
<stop stop-color="#879099"/>
<stop offset="0.2727" stop-color="#D0D8DF"/>
<stop offset="0.3515" stop-color="#EEF7FF"/>
<stop offset="0.5333" stop-color="#D3DBE1"/>
<stop offset="0.8067" stop-color="#879099"/>
<stop offset="0.8424" stop-color="#D3DBE1"/>
<stop offset="1" stop-color="#879099"/>
</linearGradient>
<linearGradient id="paint7_linear" x1="29.3934" y1="90.5958" x2="41.9282" y2="84.6831" gradientUnits="userSpaceOnUse">
<stop stop-color="#879099"/>
<stop offset="0.2727" stop-color="#D0D8DF"/>
<stop offset="0.3515" stop-color="#EEF7FF"/>
<stop offset="0.5333" stop-color="#D3DBE1"/>
<stop offset="0.8067" stop-color="#879099"/>
<stop offset="0.8424" stop-color="#D3DBE1"/>
<stop offset="1" stop-color="#879099"/>
</linearGradient>
<linearGradient id="paint8_linear" x1="26.7219" y1="84.9324" x2="39.2573" y2="79.0194" gradientUnits="userSpaceOnUse">
<stop stop-color="#879099"/>
<stop offset="0.2727" stop-color="#D0D8DF"/>
<stop offset="0.3515" stop-color="#EEF7FF"/>
<stop offset="0.5333" stop-color="#D3DBE1"/>
<stop offset="0.8067" stop-color="#879099"/>
<stop offset="0.8424" stop-color="#D3DBE1"/>
<stop offset="1" stop-color="#879099"/>
</linearGradient>
<linearGradient id="paint9_linear" x1="27.6692" y1="86.9376" x2="40.2015" y2="81.0261" gradientUnits="userSpaceOnUse">
<stop stop-color="#879099"/>
<stop offset="0.2727" stop-color="#D0D8DF"/>
<stop offset="0.3515" stop-color="#EEF7FF"/>
<stop offset="0.5333" stop-color="#D3DBE1"/>
<stop offset="0.8067" stop-color="#879099"/>
<stop offset="0.8424" stop-color="#D3DBE1"/>
<stop offset="1" stop-color="#879099"/>
</linearGradient>
<linearGradient id="paint10_linear" x1="28.6089" y1="88.9337" x2="41.1443" y2="83.0208" gradientUnits="userSpaceOnUse">
<stop stop-color="#879099"/>
<stop offset="0.2727" stop-color="#D0D8DF"/>
<stop offset="0.3515" stop-color="#EEF7FF"/>
<stop offset="0.5333" stop-color="#D3DBE1"/>
<stop offset="0.8067" stop-color="#879099"/>
<stop offset="0.8424" stop-color="#D3DBE1"/>
<stop offset="1" stop-color="#879099"/>
</linearGradient>
<linearGradient id="paint11_linear" x1="25.938" y1="83.2702" x2="38.4727" y2="77.3576" gradientUnits="userSpaceOnUse">
<stop stop-color="#879099"/>
<stop offset="0.2727" stop-color="#D0D8DF"/>
<stop offset="0.3515" stop-color="#EEF7FF"/>
<stop offset="0.5333" stop-color="#D3DBE1"/>
<stop offset="0.8067" stop-color="#879099"/>
<stop offset="0.8424" stop-color="#D3DBE1"/>
<stop offset="1" stop-color="#879099"/>
</linearGradient>
<linearGradient id="paint12_linear" x1="26.8854" y1="85.2754" x2="39.4174" y2="79.3641" gradientUnits="userSpaceOnUse">
<stop stop-color="#879099"/>
<stop offset="0.2727" stop-color="#D0D8DF"/>
<stop offset="0.3515" stop-color="#EEF7FF"/>
<stop offset="0.5333" stop-color="#D3DBE1"/>
<stop offset="0.8067" stop-color="#879099"/>
<stop offset="0.8424" stop-color="#D3DBE1"/>
<stop offset="1" stop-color="#879099"/>
</linearGradient>
<linearGradient id="paint13_linear" x1="27.8242" y1="87.2719" x2="40.3601" y2="81.3587" gradientUnits="userSpaceOnUse">
<stop stop-color="#879099"/>
<stop offset="0.2727" stop-color="#D0D8DF"/>
<stop offset="0.3515" stop-color="#EEF7FF"/>
<stop offset="0.5333" stop-color="#D3DBE1"/>
<stop offset="0.8067" stop-color="#879099"/>
<stop offset="0.8424" stop-color="#D3DBE1"/>
<stop offset="1" stop-color="#879099"/>
</linearGradient>
<linearGradient id="paint14_linear" x1="19.6939" y1="77.9858" x2="8.3304" y2="81.4283" gradientUnits="userSpaceOnUse">
<stop stop-color="#879099"/>
<stop offset="0.2727" stop-color="#D0D8DF"/>
<stop offset="0.3515" stop-color="#EEF7FF"/>
<stop offset="0.5333" stop-color="#D3DBE1"/>
<stop offset="0.8067" stop-color="#879099"/>
<stop offset="0.8424" stop-color="#D3DBE1"/>
<stop offset="1" stop-color="#879099"/>
</linearGradient>
<linearGradient id="paint15_linear" x1="17.2403" y1="70.2767" x2="17.4827" y2="71.0492" gradientUnits="userSpaceOnUse">
<stop stop-color="#87A3AB"/>
<stop offset="1" stop-color="#2E383B"/>
</linearGradient>
<linearGradient id="paint16_linear" x1="28.4124" y1="118.464" x2="29.6393" y2="116.339" gradientUnits="userSpaceOnUse">
<stop stop-color="white"/>
<stop offset="1"/>
</linearGradient>
<linearGradient id="paint17_linear" x1="16.0165" y1="78.693" x2="13.7572" y2="82.1967" gradientUnits="userSpaceOnUse">
<stop stop-color="#879099"/>
<stop offset="0.5565" stop-color="#BFC7CC"/>
<stop offset="0.8326" stop-color="#EDF7FF"/>
<stop offset="1" stop-color="#879099"/>
</linearGradient>
<linearGradient id="paint18_linear" x1="31.5083" y1="81.852" x2="35.2355" y2="75.1236" gradientUnits="userSpaceOnUse">
<stop stop-color="white"/>
<stop offset="1"/>
</linearGradient>
</defs>
</svg>
