<svg width="81" height="192" viewBox="0 0 81 192" fill="none" xmlns="http://www.w3.org/2000/svg">
<path d="M76 33.5002L21 2.50024L15.5 10.0002L19.5 33.5002L66 62.5002L78 56.0002L79 43.5002L76 33.5002Z" fill="#D1D9DD"/>
<path d="M81 43.0002L73 48.5002L69 36.5002C71.3333 35.3336 76.1 33.0002 76.5 33.0002C76.9 33.0002 77.3333 33.6669 77.5 34.0002L79 36.0002L80.5 39.0002L81 41.0002V43.0002Z" fill="#D1D9DD"/>
<path d="M76.2592 32.7548C78.893 34.2838 81 37.9885 81 41.1052V42.1637C81 38.5178 78.4833 34.0486 75.3228 32.2256L76.2592 32.7548Z" fill="#D1D5D6"/>
<path d="M76.5518 187.884L76.9615 44.5159L81 42.1637V41.1052L80.5903 184.473V185.532C80.5903 187.355 79.9465 188.648 78.893 189.236C77.5468 190.001 76.2006 190.824 74.8545 191.589C75.908 191 76.5518 189.707 76.5518 187.884Z" fill="#B7BFC3"/>
<path d="M70.0552 190.765C70.2308 190.824 70.3478 190.942 70.4649 191.001C70.5234 191.001 70.5234 191.059 70.5819 191.059C70.699 191.118 70.8746 191.177 70.9916 191.236H71.0502C71.1672 191.295 71.2843 191.295 71.4013 191.353H71.4599C71.5769 191.353 71.694 191.412 71.811 191.412H71.8696C71.9866 191.412 72.1037 191.412 72.2207 191.412H72.2793C72.3963 191.412 72.5134 191.412 72.6304 191.353H72.689C72.9231 191.295 73.0987 191.236 73.3328 191.118C73.3328 191.118 73.3913 191.118 73.3913 191.059C73.5084 191.001 73.5669 190.942 73.6839 190.883C73.6839 190.883 73.6839 190.883 73.7425 190.824C73.801 190.765 73.9181 190.706 73.9766 190.589L74.0351 190.53C74.0936 190.471 74.1522 190.354 74.2107 190.295C74.2107 190.295 74.2107 190.236 74.2692 190.236C74.3278 190.118 74.3863 190.001 74.4448 189.883C74.5033 189.766 74.5619 189.589 74.6204 189.413C74.6204 189.354 74.6789 189.236 74.6789 189.178C74.6789 189.119 74.7375 189.001 74.7375 188.942C74.7375 188.825 74.796 188.648 74.796 188.472C74.796 188.472 74.796 188.472 74.796 188.413C74.796 188.237 74.796 188.06 74.796 187.884L75.2057 44.516H77.0201L76.5518 187.884C76.5518 187.943 76.5518 188.001 76.5518 188.001V188.06C76.5518 188.178 76.5518 188.354 76.5518 188.472C76.5518 188.648 76.4933 188.825 76.4933 188.942V189.001C76.4348 189.178 76.4348 189.354 76.3762 189.53C76.3762 189.53 76.3762 189.53 76.3762 189.589C76.3762 189.707 76.3177 189.766 76.3177 189.824C76.3177 189.824 76.3177 189.824 76.3177 189.883C76.2592 190.001 76.2592 190.06 76.2007 190.177C76.2007 190.177 76.2007 190.177 76.2007 190.236C76.1421 190.354 76.0836 190.471 76.0251 190.53C75.9666 190.648 75.908 190.706 75.791 190.824C75.791 190.824 75.791 190.824 75.791 190.883C75.7324 190.942 75.6739 191.001 75.6739 191.059C75.6739 191.059 75.6739 191.059 75.6154 191.118C75.5569 191.177 75.4983 191.236 75.4398 191.295C75.4398 191.295 75.3813 191.295 75.3813 191.353C75.3227 191.412 75.2642 191.412 75.2057 191.471L75.1472 191.53C75.0886 191.589 75.0301 191.589 74.9716 191.647C74.9716 191.647 74.913 191.647 74.913 191.706C74.8545 191.765 74.7375 191.765 74.6789 191.824C74.6204 191.883 74.5033 191.883 74.4448 191.883H74.3863C74.3278 191.883 74.2692 191.941 74.2107 191.941C74.1522 191.941 74.1522 191.941 74.0936 191.941C74.0351 191.941 73.9766 191.941 73.9181 191.941H73.8595C73.7425 191.941 73.6839 191.941 73.5669 191.941H73.5084C73.4498 191.941 73.3328 191.941 73.2742 191.941C73.2157 191.941 73.2157 191.941 73.1572 191.941C73.0987 191.941 73.0401 191.941 72.9231 191.941C72.8645 191.941 72.8645 191.941 72.806 191.941C72.7475 191.941 72.6304 191.883 72.5719 191.883H72.5134C72.3963 191.883 72.2793 191.824 72.2207 191.765H72.1622C72.1037 191.765 71.9866 191.706 71.9281 191.647C71.8696 191.647 71.8696 191.647 71.811 191.589C71.7525 191.53 71.6354 191.53 71.5769 191.471C71.5184 191.471 71.5184 191.412 71.4599 191.412C71.3428 191.353 71.2257 191.295 71.1087 191.236C70.699 191.118 70.4063 190.942 70.0552 190.765Z" fill="#E3EBEF"/>
<path d="M16.209 4.70467C13.5753 3.17572 11.4097 4.41064 11.4097 7.52733L11 150.895C11 153.953 13.107 157.717 15.7408 159.246L69.9381 190.706C72.5719 192.235 74.6789 191.001 74.7375 187.884L75.1472 44.516C75.1472 41.4581 73.0401 37.6946 70.4064 36.1656L16.209 4.70467Z" fill="#D1D9DD"/>
<path d="M15.6824 4.46942C15.5653 4.3518 15.3897 4.3518 15.2727 4.293H15.2141C15.0386 4.17539 14.9215 4.17539 14.8044 4.11658H14.7459C14.6289 4.11658 14.5118 4.05778 14.3947 4.05778C14.3362 4.05778 14.3362 4.05778 14.2777 4.05778C14.1606 4.05778 14.1021 4.05778 13.985 4.05778C13.9265 4.05778 13.9265 4.05778 13.868 4.05778C13.7509 4.05778 13.6339 4.05778 13.5168 4.11658H13.4583C13.3998 4.11658 13.2827 4.17539 13.2242 4.17539H13.1657C13.0486 4.293 12.9315 4.293 12.8145 4.3518C12.8145 4.3518 12.756 4.3518 12.756 4.41061C12.6974 4.46942 12.5804 4.52822 12.5218 4.58703C12.4048 4.70464 12.3463 4.76344 12.2292 4.82225L12.1707 4.88105C12.1121 4.99867 12.0536 5.05747 11.9951 5.17508C11.9951 5.17508 11.9951 5.23389 11.9366 5.23389C11.9366 5.29269 11.878 5.4103 11.8195 5.52791C11.8195 5.52791 11.8195 5.58672 11.761 5.58672C11.7024 5.70433 11.6439 5.82194 11.6439 5.93955C11.6439 5.99836 11.6439 5.99836 11.6439 6.05716C11.5854 6.17478 11.5854 6.29239 11.5854 6.41C11.5854 6.4688 11.5854 6.4688 11.5854 6.52761C11.5854 6.70403 11.5269 6.82164 11.5269 6.99805C11.5269 6.99805 11.5269 6.99805 11.5269 7.05686C11.5269 7.23327 11.5269 7.40969 11.5269 7.58611V7.5273V6.4688V6.41C11.5269 6.23358 11.5269 6.05716 11.5269 5.93955C11.5269 5.82194 11.5854 5.64553 11.5854 5.52791V5.46911V5.4103C11.5269 5.11628 11.5854 4.99867 11.5854 4.88105C11.5854 4.88105 11.5854 4.88105 11.5854 4.82225C11.5854 4.70464 11.6439 4.64583 11.7024 4.52822C11.7024 4.52822 11.7024 4.52822 11.7024 4.46942V4.41061C11.7024 4.3518 11.761 4.23419 11.761 4.17539V4.11658C11.8195 3.94017 11.9366 3.76375 12.0536 3.58733C12.0536 3.58733 12.0536 3.52853 12.1121 3.52853C12.2292 3.52853 12.2292 3.46972 12.2877 3.46972C12.2877 3.46972 12.2877 3.46972 12.2877 3.41092C12.2877 3.41092 12.2877 3.41092 12.3463 3.35211C12.4048 3.29331 12.4048 3.2345 12.4633 3.2345C12.4633 3.2345 12.4633 3.2345 12.5218 3.17569C12.5804 3.11689 12.6389 3.05808 12.6974 3.05808C12.756 2.94047 12.873 2.88167 12.9315 2.82286C12.9315 2.82286 12.9901 2.82286 12.9901 2.76406C13.0486 2.70525 13.1071 2.70525 13.1657 2.64644C13.1657 2.64644 13.1657 2.64644 13.2242 2.64644H13.2827C13.3412 2.64644 13.3998 2.58764 13.4583 2.58764H13.5168C13.5168 2.58764 13.5168 2.58764 13.5754 2.58764C13.6339 2.58764 13.6924 2.52883 13.8095 2.52883C13.8095 2.52883 13.8095 2.52883 13.868 2.52883C13.9265 2.52883 14.0436 2.47003 14.1606 2.47003H14.2192C14.1021 2.35242 14.2192 2.35242 14.2777 2.35242H14.3362C14.3362 2.35242 14.3362 2.35242 14.3947 2.35242C14.5118 2.35242 14.6289 2.35242 14.6874 2.35242C14.6874 2.35242 14.6874 2.35242 14.7459 2.35242C14.863 2.35242 14.9215 2.35242 15.0386 2.35242H15.0971C15.2141 2.35242 15.3312 2.41122 15.4483 2.41122C15.4483 2.41122 15.4483 2.41122 15.5068 2.41122C15.6238 2.41122 15.6824 2.47003 15.7994 2.47003H15.858H15.9165C15.975 2.47003 16.0921 2.52883 16.1506 2.52883H16.2091C16.2091 2.52883 16.2091 2.52883 16.2677 2.52883C16.2677 2.70525 16.2677 2.70525 16.3262 2.70525C16.3847 2.70525 16.3847 2.70525 16.4432 2.76406H16.5018C16.5603 2.76406 16.5603 2.82286 16.6188 2.82286C16.6188 2.82286 16.6774 2.82286 16.6774 2.88167C16.6774 2.88167 16.7359 2.94047 16.7944 2.94047H16.8529C16.9115 2.99928 16.97 2.99928 17.0285 3.05808L17.0871 3.11689L71.2844 34.5778L71.3429 34.6366C71.4014 34.6366 71.46 34.6954 71.46 34.6954C71.5185 34.6954 71.577 34.7543 71.577 34.7543C71.6356 34.7543 71.6941 34.8131 71.6941 34.8131L71.7526 34.8719C71.8111 34.8719 71.8111 34.9307 71.8697 34.9307C71.9282 34.9307 71.9282 34.9895 71.9867 34.9895C72.0452 34.9895 72.0452 35.0483 72.1038 35.0483C72.1623 35.1071 72.1623 35.1071 72.2208 35.1659L72.2794 35.2247C72.2794 35.2247 72.2794 35.2247 72.3379 35.2247C72.3964 35.2835 72.3964 35.2835 72.4549 35.3423C72.5135 35.4011 72.5135 35.4011 72.572 35.4599C72.6305 35.5187 72.6891 35.5775 72.7476 35.5775C72.8061 35.6363 72.8061 35.6363 72.8646 35.6951C72.8646 35.6951 72.8647 35.6951 72.9232 35.7539C73.0402 35.8716 73.0988 35.9304 73.2158 36.048C73.2743 36.1068 73.2743 36.1656 73.3329 36.1656C73.3914 36.2244 73.3914 36.2244 73.4499 36.2832C73.5085 36.342 73.5085 36.342 73.567 36.4008C73.684 36.5184 73.7426 36.636 73.8596 36.6948L73.9182 36.7536L73.9767 36.8124C74.0352 36.8713 74.0352 36.9301 74.0937 36.9889C74.1523 37.0477 74.1523 37.1065 74.2108 37.1065C74.2108 37.1653 74.2693 37.1653 74.2693 37.2241C74.2693 37.2829 74.3279 37.2829 74.3279 37.3417C74.3279 37.4005 74.3864 37.4005 74.3864 37.4593C74.3864 37.5181 74.4449 37.5181 74.4449 37.5769C74.4449 37.6357 74.5034 37.6357 74.5034 37.6945C74.5034 37.7533 74.562 37.7533 74.562 37.8121C74.562 37.8709 74.6205 37.8709 74.6205 37.9298C74.6205 37.9886 74.679 37.9886 74.679 38.0474C74.679 38.1062 74.7376 38.1062 74.7376 38.165C74.7376 38.2238 74.7961 38.2238 74.7961 38.2826C74.7961 38.3414 74.8546 38.3414 74.8546 38.4002C74.8546 38.459 74.9131 38.459 74.9131 38.5178C74.9131 38.5766 74.9717 38.5766 74.9717 38.6354C74.9717 38.6942 75.0302 38.6942 75.0302 38.753C75.0302 38.8118 75.0887 38.8118 75.0887 38.8706C75.0887 38.9294 75.1473 38.9883 75.1473 38.9883C75.1473 39.0471 75.2058 39.1059 75.2058 39.1059C75.2058 39.1647 75.2643 39.2235 75.2643 39.2235C75.2643 39.2823 75.3228 39.3411 75.3228 39.3411C75.3228 39.3411 75.3228 39.3411 75.3228 39.3999C75.3228 39.4587 75.3814 39.5175 75.3814 39.5763C75.3814 39.6351 75.4399 39.6939 75.4399 39.7527C75.4984 39.8115 75.4984 39.8703 75.557 39.9879C75.557 39.9879 75.557 40.0467 75.6155 40.0467C75.6155 40.1056 75.674 40.1056 75.674 40.1644C75.7325 40.2232 75.7325 40.3408 75.7911 40.3996C75.8496 40.5172 75.8496 40.576 75.9081 40.6936C75.9081 40.6936 75.9081 40.6936 75.9081 40.7524C75.9667 40.8112 75.9667 40.9288 75.9667 40.9876C76.0252 41.1052 76.0252 41.2229 76.0837 41.3405V41.3993V41.4581C76.0837 41.5169 76.1422 41.6345 76.1422 41.6933C76.2008 41.8109 76.2008 41.9873 76.2593 42.1049V42.1637C76.2593 42.2814 76.3178 42.399 76.3178 42.5166C76.3178 42.5754 76.3178 42.693 76.3764 42.7518C76.3764 42.8106 76.3764 42.8106 76.3764 42.8694V42.9282C76.3764 43.1046 76.4349 43.2223 76.4349 43.3987C76.4349 43.4575 76.4349 43.4575 76.4349 43.4575C76.4349 43.5163 76.4349 43.5751 76.4349 43.5751C76.4349 43.6339 76.4349 43.7515 76.4349 43.8103C76.4349 43.9279 76.4349 44.0455 76.4349 44.1631H74.6205C74.6205 43.9867 74.6205 43.8103 74.6205 43.6339C74.6205 43.5751 74.6205 43.5751 74.6205 43.5163C74.6205 43.3399 74.562 43.1634 74.562 42.987V42.9282C74.562 42.7518 74.5034 42.5754 74.4449 42.399C74.4449 42.399 74.4449 42.399 74.4449 42.3402C74.3864 42.1637 74.3279 41.9873 74.2693 41.8109V41.7521C74.2108 41.5757 74.1523 41.3993 74.0937 41.1641C74.0352 40.9876 73.9767 40.7524 73.8596 40.576C73.8596 40.576 73.8596 40.576 73.8596 40.5172C73.8011 40.3408 73.684 40.1644 73.6255 39.9291C73.3329 39.3411 72.9817 38.8118 72.6305 38.2826C72.5135 38.1062 72.3964 37.9298 72.2208 37.7533C72.1038 37.6357 71.9867 37.4593 71.8697 37.3417C71.8111 37.2829 71.8111 37.2829 71.7526 37.2241C71.6356 37.1065 71.5185 36.9889 71.4014 36.8124C71.2844 36.6948 71.1088 36.5184 70.9332 36.4008C70.7576 36.2832 70.6406 36.1656 70.465 36.048C70.2894 35.9304 70.1723 35.8128 69.9968 35.7539L16.2091 4.70464C16.0335 4.58703 15.858 4.52822 15.6824 4.46942Z" fill="#E3EBEF"/>
<path d="M16.3845 2.7641C16.3845 2.7641 16.326 2.7641 16.326 2.7053C16.2089 2.7053 16.1504 2.64649 16.0334 2.58769H15.9748C15.8578 2.58769 15.7992 2.52888 15.6822 2.52888C15.6822 2.52888 15.6822 2.52888 15.6237 2.52888C15.5066 2.47008 15.331 2.41127 15.1554 2.41127C15.0384 2.35246 14.9213 2.35246 14.8043 2.35246H14.7457C14.6287 2.35246 14.5116 2.35246 14.3946 2.35246C14.3946 2.35246 14.3946 2.35246 14.336 2.35246C14.2775 2.35246 14.1604 2.35246 14.1019 2.41127H14.0434C13.9263 2.41127 13.8093 2.41127 13.6922 2.47008C13.5752 2.47008 13.5166 2.52888 13.3996 2.58769C13.3996 2.58769 13.341 2.58769 13.341 2.64649C13.2825 2.64649 13.224 2.64649 13.1655 2.7053C13.1655 2.7053 13.1069 2.7053 13.1069 2.7641C13.1069 2.7641 13.1069 2.7641 13.1655 2.7641L13.224 2.7053C13.3996 2.52888 13.6922 2.41127 13.9263 2.23485C13.9849 2.17605 14.0434 2.17605 14.1019 2.11724C15.0969 1.52919 16.0919 0.941132 17.0869 0.353077C17.0869 0.353077 17.0869 0.353077 17.1454 0.353077C17.1454 0.353077 17.1454 0.353077 17.2039 0.353077C17.2625 0.294272 17.321 0.294272 17.438 0.235466C17.438 0.235466 17.438 0.235466 17.4966 0.235466C17.4966 0.235466 17.4966 0.235466 17.5551 0.235466C17.6136 0.176661 17.7307 0.176661 17.8477 0.117855C17.9648 0.117855 18.0233 0.0590497 18.1404 0.0590497C18.1404 0.0590497 18.1404 0.0590497 18.1989 0.0590497H18.2574C18.316 0.0590497 18.433 0.0590497 18.4915 0.000244141C18.4915 0.000244141 18.4915 0.000244141 18.5501 0.000244141C18.6671 0.000244141 18.7842 0.000244141 18.9012 0.000244141C18.9012 0.000244141 18.9012 0.000244141 18.9598 0.000244141H19.0183C19.1354 0.000244141 19.2524 0.000244141 19.3695 0.0590497C19.5451 0.0590497 19.6621 0.117855 19.8377 0.176661C19.9548 0.176661 20.0133 0.235466 20.1303 0.294272H20.1889C20.2474 0.294272 20.3645 0.353077 20.423 0.411883C20.423 0.411883 20.423 0.411883 20.4815 0.411883C20.4815 0.411883 20.54 0.411883 20.54 0.470688C20.5986 0.529494 20.7156 0.529494 20.7742 0.588299C20.8327 0.588299 20.8327 0.647105 20.8912 0.647105C21.0083 0.70591 21.1253 0.764716 21.2424 0.823521C21.1839 0.823521 21.1839 0.764716 21.1253 0.764716L22.0618 1.29397C22.1203 1.29397 22.1203 1.35277 22.1788 1.35277L76.3762 32.8137L75.4397 32.2845C75.6153 32.4021 75.7909 32.5197 75.9665 32.6373C76.025 32.6961 76.0835 32.6961 76.142 32.7549C76.2591 32.8137 76.3762 32.9313 76.4932 33.0489C76.5517 33.1077 76.6103 33.1666 76.6688 33.2254C76.7859 33.343 76.9029 33.4018 76.9614 33.5194C77.02 33.5782 77.0785 33.637 77.137 33.6958C77.1956 33.7546 77.1956 33.7546 77.2541 33.8134C77.3126 33.8722 77.3126 33.931 77.3711 33.931C77.4882 34.0486 77.6053 34.1662 77.7223 34.3427C77.7808 34.4015 77.7808 34.4015 77.8394 34.4603C77.8979 34.5191 77.8979 34.5779 77.9564 34.5779C78.015 34.6955 78.132 34.7543 78.1905 34.8719C78.2491 34.9307 78.2491 34.9895 78.3076 35.0483C78.3661 35.1071 78.3661 35.1659 78.4247 35.2247C78.4832 35.2836 78.5417 35.3424 78.6002 35.46C78.6588 35.5188 78.6588 35.5188 78.7173 35.5776C78.7758 35.6952 78.8344 35.8128 78.9514 35.8716C79.0099 35.9304 79.0099 35.9304 79.0099 35.9892C79.0099 35.9892 79.0099 36.048 79.0685 36.048C79.1855 36.2244 79.2441 36.342 79.3611 36.5185C79.3611 36.5185 79.3611 36.5773 79.4196 36.5773C79.4196 36.6361 79.4782 36.6361 79.4782 36.6949C79.5367 36.8125 79.5952 36.8713 79.6538 36.9889C79.7123 37.0477 79.7123 37.1065 79.7708 37.1653C79.7708 37.2241 79.8293 37.2829 79.8293 37.3417C79.8293 37.4006 79.8879 37.4006 79.8879 37.4594C79.9464 37.6358 80.0634 37.8122 80.122 37.9886C80.1805 38.165 80.239 38.3414 80.2976 38.459C80.2976 38.5179 80.2976 38.5179 80.3561 38.5767C80.3561 38.6355 80.4146 38.6943 80.4146 38.7531C80.4146 38.8119 80.4731 38.9295 80.4731 38.9883C80.4731 39.0471 80.5317 39.1647 80.5317 39.2235C80.5317 39.2823 80.5902 39.3999 80.5902 39.4587C80.5902 39.5175 80.5902 39.5176 80.6487 39.5764C80.6487 39.694 80.7073 39.7528 80.7073 39.8704C80.7073 39.988 80.7658 40.0468 80.7658 40.1644V40.2232C80.7658 40.282 80.7658 40.3408 80.8243 40.3996C80.8829 40.576 80.8829 40.7525 80.8829 40.8701C80.8829 40.9289 80.8829 40.9289 80.8829 40.9877C80.8829 41.1053 80.8829 41.1641 80.8829 41.2817C80.8829 41.3405 80.8829 41.3993 80.8829 41.4581C80.8829 41.6934 80.8829 41.8698 80.8829 42.105L76.8444 44.4572C76.8444 44.222 76.8444 44.0456 76.8444 43.8104C76.8444 43.7515 76.8444 43.6927 76.8444 43.6339C76.8444 43.5163 76.7859 43.3399 76.7859 43.2223C76.7859 43.0459 76.7273 42.9283 76.7273 42.7519C76.7273 42.6342 76.6688 42.5754 76.6688 42.4578C76.6688 42.3402 76.6103 42.2814 76.6103 42.1638C76.5517 42.0462 76.5517 41.8698 76.4932 41.7522C76.4932 41.6934 76.4347 41.5757 76.4347 41.5169C76.3762 41.3405 76.3176 41.2229 76.2591 41.0465C76.2591 40.9877 76.2006 40.9289 76.2006 40.8701C76.025 40.4584 75.8494 40.0468 75.6738 39.5764C75.6738 39.5176 75.6153 39.4587 75.6153 39.3999C75.5568 39.2235 75.4397 39.0471 75.3227 38.9295C75.3227 38.8707 75.2641 38.8119 75.2641 38.8119C75.1471 38.6355 75.03 38.4002 74.9129 38.2238C74.9129 38.165 74.8544 38.165 74.8544 38.1062C74.7374 37.9298 74.6788 37.8122 74.5618 37.6358C74.5033 37.577 74.4447 37.5182 74.3862 37.4006C74.3277 37.2829 74.2106 37.1653 74.0936 37.0477C74.035 36.9301 73.9765 36.8713 73.8594 36.7537C73.8009 36.6949 73.6839 36.5773 73.6253 36.5185C73.5083 36.4009 73.3912 36.2244 73.2742 36.1068C73.2156 36.048 73.0986 35.9304 73.04 35.8716C72.9815 35.8128 72.923 35.754 72.8645 35.6952C72.7474 35.5776 72.6303 35.5188 72.5133 35.4012C72.4548 35.3424 72.3962 35.2836 72.3377 35.2247C72.2206 35.1071 72.1036 35.0483 71.9865 34.9307C71.928 34.8719 71.8695 34.8719 71.8109 34.8131C71.6354 34.6955 71.4598 34.5779 71.2842 34.4603L17.0869 3.11694C16.9698 3.05813 16.8528 2.99933 16.7357 2.94052C16.7357 2.94052 16.6772 2.94052 16.6186 2.88171C16.5601 2.82291 16.4431 2.7641 16.3845 2.7641Z" fill="url(#paint0_linear)"/>
<path d="M14.102 16.7598L13.8093 136.311L72.0451 170.125L72.3377 50.5141L14.102 16.7598Z" fill="#508ECF"/>
<path d="M14.102 16.7598L14.9214 17.1714L14.5702 135.9L72.0451 169.242V170.125L13.8093 136.311L14.102 16.7598Z" fill="url(#paint1_linear)"/>
<path d="M40.0301 156.011C38.9766 155.364 38.0986 155.894 38.0986 157.129V163.421C38.0986 164.656 38.9766 166.185 40.0301 166.773L45.4147 169.889C46.4682 170.477 47.3461 170.007 47.3461 168.772V162.48C47.3461 161.245 46.4682 159.716 45.4147 159.128L40.0301 156.011Z" fill="#B7BFC3"/>
<path d="M39.6204 156.305C38.5669 155.717 37.689 156.188 37.689 157.423V163.715C37.689 164.95 38.5669 166.479 39.6204 167.067L45.005 170.183C46.0585 170.771 46.9365 170.301 46.9365 169.066V162.774C46.9365 161.539 46.0585 160.01 45.005 159.422L39.6204 156.305Z" fill="#E3EBEF"/>
<mask id="mask0" mask-type="alpha" maskUnits="userSpaceOnUse" x="13" y="16" width="60" height="155">
<path d="M25.2224 23.1696L72.1036 151.542L72.0451 170.125L13.8093 136.311L14.102 16.7598L25.2224 23.1696Z" fill="url(#paint2_linear)"/>
</mask>
<g mask="url(#mask0)">
<path opacity="0.5" d="M25.2224 23.1696L72.1036 151.542L72.0451 170.125L13.8093 136.311L14.102 16.7598L25.2224 23.1696Z" fill="#73A5D9"/>
<g opacity="0.8">
<mask id="mask1" mask-type="alpha" maskUnits="userSpaceOnUse" x="16" y="2" width="57" height="34">
<g opacity="0.8">
<g opacity="0.8">
<path opacity="0.8" d="M72.0451 35.4012C71.9866 35.4012 71.9281 35.4012 71.8696 35.3424L16.9114 3.46977C16.7358 3.35216 16.6772 3.11693 16.7943 2.94052C16.9114 2.7641 17.1455 2.7053 17.3211 2.82291L72.2207 34.6955C72.3963 34.8131 72.4548 35.0483 72.3378 35.2247C72.2793 35.3424 72.1622 35.4012 72.0451 35.4012Z" fill="url(#paint3_linear)"/>
</g>
</g>
</mask>
<g mask="url(#mask1)">
<path opacity="0.8" d="M72.0451 35.4012C71.9866 35.4012 71.9281 35.4012 71.8696 35.3424L16.9114 3.46977C16.7358 3.35216 16.6772 3.11693 16.7943 2.94052C16.9114 2.7641 17.1455 2.7053 17.3211 2.82291L72.2207 34.6955C72.3963 34.8131 72.4548 35.0483 72.3378 35.2247C72.2793 35.3424 72.1622 35.4012 72.0451 35.4012Z" fill="url(#paint4_linear)"/>
</g>
</g>
<g opacity="0.8">
<mask id="mask2" mask-type="alpha" maskUnits="userSpaceOnUse" x="13" y="135" width="60" height="36">
<g opacity="0.8">
<g opacity="0.8">
<path opacity="0.8" d="M72.0451 170.183C71.9865 170.183 71.928 170.183 71.8695 170.125L13.5752 136.253C13.3996 136.135 13.3411 135.9 13.4581 135.723C13.5752 135.547 13.8093 135.488 13.9849 135.606L72.2207 169.478C72.3962 169.595 72.4548 169.831 72.3377 170.007C72.2792 170.125 72.1621 170.183 72.0451 170.183Z" fill="url(#paint5_linear)"/>
</g>
</g>
</mask>
<g mask="url(#mask2)">
<path opacity="0.8" d="M72.0451 170.183C71.9865 170.183 71.928 170.183 71.8695 170.125L13.5752 136.253C13.3996 136.135 13.3411 135.9 13.4581 135.723C13.5752 135.547 13.8093 135.488 13.9849 135.606L72.2207 169.478C72.3962 169.595 72.4548 169.831 72.3377 170.007C72.2792 170.125 72.1621 170.183 72.0451 170.183Z" fill="url(#paint6_linear)"/>
</g>
</g>
<g opacity="0.8">
<mask id="mask3" mask-type="alpha" maskUnits="userSpaceOnUse" x="38" y="155" width="9" height="6">
<g opacity="0.8">
<g opacity="0.8">
<path opacity="0.8" d="M46.1171 160.245C46.0586 160.245 46 160.245 45.9415 160.186L39.1522 156.246C38.9766 156.129 38.9181 155.894 39.0351 155.717C39.1522 155.541 39.3863 155.482 39.5619 155.6L46.3512 159.539C46.5268 159.657 46.5853 159.892 46.4683 160.069C46.3512 160.128 46.2341 160.245 46.1171 160.245Z" fill="url(#paint7_linear)"/>
</g>
</g>
</mask>
<g mask="url(#mask3)">
<path opacity="0.8" d="M46.1171 160.245C46.0586 160.245 46 160.245 45.9415 160.186L39.1522 156.246C38.9766 156.129 38.9181 155.894 39.0351 155.717C39.1522 155.541 39.3863 155.482 39.5619 155.6L46.3512 159.539C46.5268 159.657 46.5853 159.892 46.4683 160.069C46.3512 160.128 46.2341 160.245 46.1171 160.245Z" fill="url(#paint8_linear)"/>
</g>
</g>
</g>
<path d="M49.336 29.403C49.5701 29.5206 49.8042 29.9911 49.8042 30.4615V30.6968C49.8042 31.1084 49.5701 31.3436 49.336 31.226L40.2055 25.9335C39.9714 25.8159 39.7373 25.2866 39.7373 24.875V24.6398C39.7373 24.2281 39.9714 23.9929 40.2055 24.1105L49.336 29.403Z" fill="#414E52"/>
<path d="M35.5234 20.6998C36.2257 21.1115 36.8696 22.17 36.8696 23.052C36.8696 23.9341 36.2843 24.287 35.5234 23.8753C34.7625 23.4637 34.1772 22.4052 34.1772 21.5231C34.1772 20.641 34.7625 20.2882 35.5234 20.6998Z" fill="url(#paint9_linear)"/>
<path d="M28.5 15.8189C29.612 16.4658 30.4899 18.0535 30.4899 19.3472C30.4899 20.641 29.612 21.1702 28.5 20.5233C27.3879 19.8765 26.51 18.2887 26.51 16.995C26.51 15.7601 27.3879 15.2309 28.5 15.8189Z" fill="url(#paint10_linear)"/>
<path d="M39.5 94.5002L39 122.5L29 122L2.5 108V77.5002L10 74.5002L34 88.0002L39.5 94.5002Z" fill="#FDCD5C"/>
<path d="M40.5162 89.5083L39.6598 88.9791L37.6834 87.9207V85.8701C37.6834 83.0917 37.0904 80.115 36.1022 77.1382C33.8623 70.5231 29.3825 64.2388 24.178 61.1297C23.9803 60.9974 23.585 60.799 23.3874 60.6667C20.0275 58.8145 16.997 58.616 14.6254 59.8067L14.4936 59.8729C14.4277 59.939 14.296 60.0052 14.2301 60.0052L10.0796 62.3204C12.3854 61.262 15.35 61.5266 18.5782 63.3127C18.7758 63.445 19.1711 63.6435 19.3687 63.7758C26.352 67.9432 31.9518 77.7997 32.7424 86.4654L31.9518 86.9946L32.8082 87.5238C32.8082 87.8546 32.8082 88.1853 32.8082 88.5161V93.1466L31.0295 94.205L31.8859 94.7342C33.2035 95.528 34.3235 97.8433 34.3235 99.894V117.688L10.7384 103.797L7.18091 108.957L33.0718 127.148L41.7679 121.988L41.7021 121.922C41.7679 121.922 41.8997 121.856 41.9656 121.856L42.0973 121.79C42.2291 121.724 42.3609 121.591 42.4267 121.393C42.6903 120.996 42.8879 120.467 42.9538 119.871C42.9538 119.739 42.9538 119.541 42.9538 119.408V94.6681C42.9538 92.6174 41.8338 90.3021 40.5162 89.5083ZM32.8082 86.3993L33.1376 85.2085L33.8623 85.6716L32.8082 86.3993Z" fill="#FCD478"/>
<path d="M17.59 94.8004C17.3923 94.6681 16.9971 94.4035 16.7994 94.3374C14.8889 93.3451 13.3737 94.4697 13.3737 96.8511C13.3737 98.1079 13.7689 99.4309 14.4936 100.688V108.626L16.2065 107.7L20.0275 109.883V103.863C20.6863 103.466 21.1475 102.54 21.1475 101.283C21.0157 98.9017 19.5005 95.9911 17.59 94.8004Z" fill="#FCD478"/>
<path d="M0.856445 77.6012L9.28909 72.5076L9.68437 72.9707L5.79745 77.2705L2.96461 78.9904L0.856445 77.6012Z" fill="#FCD478"/>
<path d="M42.9537 94.6681L34.3893 99.8278V123.642L33.0059 124.436V127.148L41.9655 121.856L42.0973 121.79L42.4267 121.393C42.6902 120.996 42.8879 120.467 42.9537 119.871V94.6681Z" fill="#E4B84F"/>
<path d="M21.6745 103.135V110.61C21.6745 111.47 21.0816 111.867 20.3569 111.404L17.4582 109.684C16.7335 109.287 16.1406 108.229 16.1406 107.369V99.9601C15.4818 98.7694 15.0206 97.3803 15.0206 96.1234C15.0206 93.742 16.5359 92.6174 18.4464 93.6097C18.644 93.742 19.0393 93.9404 19.237 94.0727C21.1475 95.2635 22.6627 98.1741 22.6627 100.556C22.7286 101.812 22.3333 102.738 21.6745 103.135Z" fill="#C19C44"/>
<path d="M17.7217 76.2782L15.7453 75.0875V73.0368C15.7453 71.9784 15.8771 71.0523 16.1406 70.2585C16.2065 69.9939 16.3382 69.7293 16.4041 69.5308C13.7689 69.1339 11.7925 70.5892 11.1337 73.4999L10.0796 74.2275L10.9361 74.7567C10.9361 75.0875 10.8702 75.3521 10.8702 75.6828V80.3134L9.09143 81.3718L25.3638 90.8313L27.1426 89.6406V85.0762C27.1426 83.8855 26.9449 82.6287 26.6155 81.3718L17.7217 76.2782Z" fill="#FCD478"/>
<path d="M28.526 91.8236C26.9449 90.8975 27.1425 89.7068 27.1425 89.7068L25.3638 90.8975L31.0953 94.205L32.8741 93.1466C32.8741 93.1466 30.0413 92.7497 28.526 91.8236Z" fill="#FCD478"/>
<path d="M9.02551 81.438L3.29395 78.1304L5.07271 77.072C5.07271 77.072 4.87507 78.1304 6.45619 79.0565C8.03731 79.9826 10.8043 80.4457 10.8043 80.4457L9.02551 81.438Z" fill="#FCD478"/>
<path d="M19.3687 63.7757C19.1711 63.6434 18.7758 63.445 18.5782 63.3127C11.0678 59.1452 5.13864 63.3127 5.13864 72.3753V77.0058C5.13864 77.1381 5.07276 78.1304 6.52212 78.9904C8.10324 79.9165 10.8702 80.3795 10.8702 80.3795V75.749C10.8702 70.3246 14.4936 67.9432 18.9734 70.5231C23.4533 73.103 27.0767 79.718 27.0767 85.1424V89.7068C27.0767 89.7068 26.8791 90.8313 28.4602 91.8236C30.0413 92.7497 32.8083 93.2127 32.8083 93.2127V88.5822C32.8741 79.3873 26.8791 68.274 19.3687 63.7757Z" fill="#FCE4AD"/>
<path d="M31.9518 94.7342L31.0954 94.205L25.3638 90.8975L9.02557 81.438L3.294 78.1304L2.43756 77.6012C1.11996 76.8074 0 77.8658 0 79.9165V104.657C0 106.707 1.11996 109.023 2.43756 109.817L31.9518 126.95C33.2694 127.743 34.3894 126.685 34.3894 124.634V99.894C34.3894 97.7772 33.2694 95.4619 31.9518 94.7342ZM19.9617 103.863V111.338C19.9617 112.198 19.3687 112.595 18.6441 112.132L15.7453 110.412C15.0206 110.015 14.4277 108.957 14.4277 108.097V100.622C13.7689 99.4309 13.3078 98.0418 13.3078 96.7849C13.3078 94.4035 14.823 93.2789 16.7335 94.2712C16.9312 94.4035 17.3265 94.6019 17.5241 94.7342C19.4346 95.9249 20.9499 98.8356 20.9499 101.217C21.0157 102.54 20.6205 103.4 19.9617 103.863Z" fill="#FDCD5C"/>
<path d="M15.7453 77.5351C15.7453 77.6012 15.877 78.0643 15.8112 78.5935C15.6794 79.1888 15.0865 80.2472 13.0442 80.4457C12.3854 80.5118 11.5948 80.4457 10.936 80.3795V75.749C10.936 74.5583 11.1337 73.4999 11.4631 72.6399L16.2064 70.3246C15.9429 71.1185 15.8112 72.0446 15.8112 73.103L15.7453 77.5351Z" fill="#EDC872"/>
<path d="M37.6834 90.236V85.8039C37.6834 84.8778 37.6175 83.8855 37.4857 82.8932L32.6106 85.5393C32.7424 86.5315 32.8082 87.5238 32.8082 88.4499V93.0804C33.467 93.1466 34.2576 93.2127 34.9164 93.1466C37.0246 92.9481 37.6175 91.8897 37.6834 91.2944C37.881 90.7652 37.6834 90.236 37.6834 90.236Z" fill="#EDC871"/>
<defs>
<linearGradient id="paint0_linear" x1="13.0976" y1="22.2405" x2="80.9911" y2="22.2405" gradientUnits="userSpaceOnUse">
<stop stop-color="#B7BFC3"/>
<stop offset="0.5556" stop-color="#B7BFC3"/>
<stop offset="1" stop-color="#D3D6D8"/>
</linearGradient>
<linearGradient id="paint1_linear" x1="42.9042" y1="16.7459" x2="42.9042" y2="170.116" gradientUnits="userSpaceOnUse">
<stop stop-color="#8D9AC0"/>
<stop offset="1" stop-color="#8BAECE"/>
</linearGradient>
<linearGradient id="paint2_linear" x1="7.07844" y1="129.595" x2="69.3983" y2="67.5693" gradientUnits="userSpaceOnUse">
<stop stop-color="white"/>
<stop offset="0.2751" stop-color="white"/>
<stop offset="1"/>
</linearGradient>
<linearGradient id="paint3_linear" x1="72.4137" y1="19.0758" x2="16.7345" y2="19.0758" gradientUnits="userSpaceOnUse">
<stop/>
<stop offset="0.5026" stop-color="white"/>
<stop offset="1"/>
</linearGradient>
<linearGradient id="paint4_linear" x1="72.4137" y1="19.0758" x2="16.7345" y2="19.0758" gradientUnits="userSpaceOnUse">
<stop stop-color="white"/>
<stop offset="0.5026" stop-color="white"/>
<stop offset="1" stop-color="white"/>
</linearGradient>
<linearGradient id="paint5_linear" x1="72.4136" y1="152.878" x2="13.4091" y2="152.878" gradientUnits="userSpaceOnUse">
<stop/>
<stop offset="0.5026" stop-color="white"/>
<stop offset="1"/>
</linearGradient>
<linearGradient id="paint6_linear" x1="72.4136" y1="152.878" x2="13.4091" y2="152.878" gradientUnits="userSpaceOnUse">
<stop stop-color="white"/>
<stop offset="0.5026" stop-color="white"/>
<stop offset="1" stop-color="white"/>
</linearGradient>
<linearGradient id="paint7_linear" x1="46.4932" y1="157.871" x2="38.9496" y2="157.871" gradientUnits="userSpaceOnUse">
<stop/>
<stop offset="0.5026" stop-color="white"/>
<stop offset="1"/>
</linearGradient>
<linearGradient id="paint8_linear" x1="46.4932" y1="157.871" x2="38.9496" y2="157.871" gradientUnits="userSpaceOnUse">
<stop stop-color="white"/>
<stop offset="0.5026" stop-color="white"/>
<stop offset="1" stop-color="white"/>
</linearGradient>
<linearGradient id="paint9_linear" x1="36.807" y1="23.5806" x2="34.186" y2="20.972" gradientUnits="userSpaceOnUse">
<stop stop-color="#A5AFBB"/>
<stop offset="1" stop-color="#CCD7D9"/>
</linearGradient>
<linearGradient id="paint10_linear" x1="30.4408" y1="20.1658" x2="26.5076" y2="16.2512" gradientUnits="userSpaceOnUse">
<stop stop-color="#A5AFBB"/>
<stop offset="1" stop-color="#CCD7D9"/>
</linearGradient>
</defs>
</svg>
