<svg width="175" height="153" viewBox="0 0 175 153" fill="none" xmlns="http://www.w3.org/2000/svg">
<circle cx="86" cy="74" r="68" fill="#4F57AA"/>
<path d="M168.534 87C165.46 87 163 84.5404 163 81.5342C163 78.4596 165.46 76 168.534 76C171.609 76 174.068 78.4596 174.068 81.5342C174 84.5404 171.54 87 168.534 87ZM168.534 77.3665C166.211 77.3665 164.366 79.2112 164.366 81.5342C164.366 83.8571 166.211 85.7019 168.534 85.7019C170.857 85.7019 172.702 83.8571 172.702 81.5342C172.634 79.2112 170.789 77.3665 168.534 77.3665Z" fill="#FB9F88"/>
<path d="M13.3784 44C12.8919 44 12.5676 43.8378 12.2432 43.5135L3.48649 34.7568C2.83784 34.1081 2.83784 33.1351 3.48649 32.4865C4.13514 31.8378 5.10811 31.8378 5.75676 32.4865L14.5135 41.2432C15.1622 41.8919 15.1622 42.8649 14.5135 43.5135C14.1892 43.8378 13.8649 44 13.3784 44Z" fill="#4F57AA"/>
<path d="M4.62162 44C4.13514 44 3.81081 43.8378 3.48649 43.5135C2.83784 42.8649 2.83784 41.8919 3.48649 41.2432L12.2432 32.4865C12.8919 31.8378 13.8649 31.8378 14.5135 32.4865C15.1622 33.1351 15.1622 34.1081 14.5135 34.7568L5.75676 43.5135C5.43243 43.8378 4.94595 44 4.62162 44Z" fill="#4F57AA"/>
<path d="M147.4 130.4C147.1 130.4 146.9 130.3 146.7 130.1L141.3 124.7C140.9 124.3 140.9 123.7 141.3 123.3C141.7 122.9 142.3 122.9 142.7 123.3L148.1 128.7C148.5 129.1 148.5 129.7 148.1 130.1C147.9 130.3 147.7 130.4 147.4 130.4Z" fill="#FB9F88"/>
<path d="M142 130.4C141.7 130.4 141.5 130.3 141.3 130.1C140.9 129.7 140.9 129.1 141.3 128.7L146.7 123.3C147.1 122.9 147.7 122.9 148.1 123.3C148.5 123.7 148.5 124.3 148.1 124.7L142.7 130.1C142.5 130.3 142.2 130.4 142 130.4Z" fill="#FB9F88"/>
<path d="M149.216 60.9367L114.804 43.3354C112.87 42.3464 110.52 43.1113 109.537 45.0493L101.536 60.83L142.952 82.0142L150.954 66.2334C151.936 64.2954 151.15 61.9258 149.216 60.9367ZM115.553 54.6013C114.171 53.8948 113.618 52.1924 114.32 50.8081C115.022 49.4238 116.718 48.8719 118.099 49.5784C119.481 50.2849 120.034 51.9873 119.332 53.3716C118.63 54.7559 116.934 55.3078 115.553 54.6013ZM139.724 66.9646C138.343 66.2581 137.79 64.5557 138.491 63.1714C139.193 61.7871 140.89 61.2352 142.271 61.9417C143.652 62.6481 144.205 64.3506 143.503 65.7349C142.801 67.1192 141.105 67.6711 139.724 66.9646Z" fill="#F16D61"/>
<path d="M114.925 55.8964C112.81 54.8194 111.965 52.2287 113.04 50.1194C114.115 48.01 116.709 47.1705 118.824 48.2474C120.939 49.3244 121.784 51.9151 120.709 54.0244C119.634 56.1338 117.04 56.9733 114.925 55.8964ZM118.05 49.7654C116.785 49.1213 115.235 49.623 114.592 50.8847C113.949 52.1464 114.454 53.6948 115.719 54.339C116.984 54.9831 118.535 54.4813 119.178 53.2197C119.811 51.9777 119.315 50.4095 118.05 49.7654Z" fill="#F9C5C0"/>
<path d="M139.037 68.355C136.922 67.2781 136.076 64.6874 137.151 62.578C138.227 60.4686 140.82 59.6292 142.935 60.7061C145.051 61.783 145.896 64.3737 144.821 66.483C143.746 68.5924 141.152 69.4319 139.037 68.355ZM142.162 62.224C140.897 61.5799 139.346 62.0816 138.703 63.3433C138.06 64.605 138.566 66.1535 139.831 66.7976C141.096 67.4417 142.646 66.94 143.289 65.6783C143.922 64.4363 143.427 62.8681 142.162 62.224Z" fill="#F9C5C0"/>
<path d="M116.986 52.2324L116.708 52.092C115.895 51.681 115.553 50.6915 115.976 49.8659L119.453 43.0847C119.876 42.2591 120.864 41.9413 121.697 42.3624L121.975 42.5027C122.788 42.9138 123.131 43.9033 122.707 44.7288L119.23 51.5101C118.817 52.316 117.8 52.6434 116.986 52.2324Z" fill="#B55249"/>
<path d="M141.098 64.6911L140.82 64.5507C140.006 64.1397 139.664 63.1502 140.088 62.3246L143.565 55.5433C143.978 54.7374 144.975 54.3999 145.809 54.821L146.087 54.9614C146.9 55.3724 147.242 56.3619 146.819 57.1875L143.342 63.9688C142.929 64.7747 141.911 65.1021 141.098 64.6911Z" fill="#B55249"/>
<path d="M117.557 62.3056L115.243 61.1322L113.644 62.7542L112.814 62.333L118.206 57.0752L119.116 57.5365L118.026 65.0004L117.155 64.5591L117.557 62.3056ZM117.681 61.5742L117.877 60.4573C118.001 59.6269 118.155 58.8363 118.339 57.9865L118.3 57.9664C117.73 58.5959 117.17 59.2057 116.571 59.7954L115.782 60.6114L117.681 61.5742Z" fill="white"/>
<path d="M122.154 59.1349L124.113 60.1269C125.519 60.8383 126.227 61.7923 125.513 63.1916C124.829 64.5318 123.557 64.6816 122.152 63.9701L121.004 63.389L119.717 65.9118L118.905 65.5009L122.154 59.1349ZM122.385 63.2696C123.494 63.8308 124.239 63.6874 124.692 62.8005C125.164 61.8742 124.761 61.298 123.672 60.7469L122.623 60.2158L121.336 62.7386L122.385 63.2696Z" fill="white"/>
<path d="M127.979 70.1535L127.803 66.6911L126.655 66.1099L125.287 68.7906L124.476 68.3797L127.724 62.0131L129.723 63.0252C131.029 63.6866 131.718 64.6307 131.054 65.9316C130.551 66.9172 129.666 67.2376 128.714 67.0038L128.919 70.6048L127.989 70.1338L127.979 70.1535ZM126.997 65.4397L128.066 65.9809C129.055 66.4819 129.82 66.3486 130.233 65.5405C130.655 64.7126 130.252 64.1363 129.262 63.6353L128.194 63.0941L126.997 65.4397Z" fill="white"/>
<path d="M133.368 64.9218L134.185 65.3299L130.932 71.6525L130.115 71.2444L133.368 64.9218Z" fill="white"/>
<path d="M135.894 66.2338L136.706 66.6443L133.819 72.2973L136.611 73.709L136.259 74.3984L132.654 72.5763L135.894 66.2338Z" fill="white"/>
<path d="M143.874 79.8407L131.066 105.032C130.173 106.789 127.89 107.414 125.955 106.426L91.4953 88.8396C89.5798 87.862 88.7226 85.6343 89.6159 83.8773L102.423 58.6863L143.874 79.8407Z" fill="white"/>
<path d="M100.005 84.1957L104.128 86.2797L110.873 73.0657L107.603 71.4125L108.367 69.9158C110.153 70.4717 111.573 70.6199 112.866 70.5301L114.65 71.4318L106.467 87.462L110.194 89.3456L109.219 91.2559L99.0298 86.1059L100.005 84.1957Z" fill="#32526E"/>
<path d="M120.132 85.0826L120.193 84.9644C119.338 83.367 118.822 81.4457 119.787 79.5545C121.194 76.7966 124.338 76.0575 127.25 77.531C130.381 79.1148 131.328 82.0968 129.901 84.8941C128.936 86.7853 126.735 87.6793 125.193 87.965L125.133 88.0832C126.265 89.821 127.148 91.8536 125.912 94.2766C124.545 96.9558 121.152 97.8908 117.644 96.1166C114.256 94.4025 112.805 91.0413 114.252 88.2046C115.468 85.8704 117.996 85.1171 120.132 85.0826ZM118.608 94.4231C120.708 95.4856 122.798 94.9072 123.743 93.0555C124.919 90.7506 123.052 88.7408 120.989 86.3836C119.061 86.5974 117.307 87.3957 116.483 89.011C115.478 91.0304 116.409 93.3105 118.608 94.4231ZM127.849 83.9802C128.754 82.2073 128.298 80.2172 126.336 79.2248C124.672 78.3828 122.831 78.9136 121.946 80.6471C120.851 82.7944 122.38 84.6832 124.128 86.6329C125.879 86.1806 127.176 85.3001 127.849 83.9802Z" fill="#32526E"/>
<path d="M78.3153 55.7698C77.6019 54.3189 75.8321 53.7334 74.3892 54.4492L27.6835 77.9177C26.2406 78.6335 25.6597 80.4119 26.3731 81.8627L27.1428 83.4325L79.085 57.3395L78.3153 55.7698Z" fill="#FDCD5C"/>
<path d="M79.0796 57.3326L27.2123 83.413L30.1416 89.2821L82.0088 63.2017L79.0796 57.3326Z" fill="#1A2943"/>
<path d="M30.1417 89.2246L39.6637 108.246C40.3779 109.693 42.1487 110.276 43.5919 109.562L90.3077 86.1312C91.7509 85.4166 92.3315 83.6424 91.6172 82.1955L82.0952 63.174L30.1417 89.2246Z" fill="#FDCD5C"/>
<path d="M51.5851 97.3675L43.5863 101.393C42.616 101.883 41.4315 101.473 40.9431 100.499C40.4546 99.5252 40.8625 98.3375 41.8328 97.8484L49.8315 93.8224C50.8018 93.3333 51.9863 93.7433 52.4747 94.7169C52.9321 95.6969 52.5617 96.9096 51.5851 97.3675Z" fill="#E6EFFF"/>
<path d="M77.6003 86.5055C79.5595 85.523 80.3504 83.1374 79.3668 81.1771C78.3832 79.2168 75.9976 78.4242 74.0384 79.4067C72.0792 80.3892 71.2883 82.7748 72.2719 84.7351C73.2555 86.6953 75.6411 87.488 77.6003 86.5055Z" fill="#FF6B6B"/>
<path d="M82.9198 83.8331C84.879 82.8506 85.6699 80.465 84.6863 78.5047C83.7027 76.5445 81.3171 75.7518 79.3579 76.7343C77.3987 77.7168 76.6078 80.1024 77.5914 82.0627C78.575 84.023 80.9606 84.8156 82.9198 83.8331Z" fill="#E6EFFF"/>
<path d="M56.8942 118.735L113.632 107.801C115.034 107.531 115.945 106.182 115.674 104.779L106.328 56.3547L44.5272 68.2648L53.8814 116.728C54.1448 118.092 55.4923 119.005 56.8942 118.735Z" fill="#E6EFFF"/>
<path d="M106.614 106.303L90.216 109.462C89.0475 109.687 87.8856 108.9 87.6597 107.731L84.4906 91.3231C84.2647 90.1539 85.0503 88.992 86.2188 88.7669L102.616 85.6082C103.785 85.3831 104.947 86.1699 105.173 87.3391L108.342 103.747C108.575 104.955 107.782 106.078 106.614 106.303Z" fill="#F16D61"/>
<path d="M101.226 30.5464C100.956 29.1403 99.6088 28.2253 98.2074 28.4955L41.5302 39.4255C40.1289 39.6958 39.2179 41.0461 39.4884 42.4523L44.4772 68.3871L106.215 56.4813L101.226 30.5464Z" fill="#32526E"/>
<path d="M72.2237 74.7515L72.9915 78.7269L66.9933 79.8824L68.1526 85.8844L64.2187 86.6422L63.0595 80.6401L57.0223 81.8031L56.2545 77.8277L62.2916 76.6648L61.1324 70.6627L65.0663 69.9049L66.2255 75.907L72.2237 74.7515Z" fill="#32526E"/>
<path d="M79.2704 111.634L62.8727 114.792C61.7042 115.017 60.5423 114.231 60.3165 113.061L57.1473 96.6532C56.9215 95.484 57.707 94.3221 58.8755 94.097L75.2732 90.9383C76.4416 90.7132 77.6036 91.5 77.8294 92.6692L80.9986 109.077C81.2319 110.285 80.4389 111.408 79.2704 111.634Z" fill="#32526E"/>
<path d="M101.769 81.4493L85.371 84.6081C84.2025 84.8331 83.0406 84.0464 82.8148 82.8771L79.6456 66.469C79.4198 65.2998 80.2053 64.1379 81.3738 63.9128L97.7715 60.7541C98.9399 60.529 100.102 61.3157 100.328 62.485L103.497 78.8931C103.723 80.0623 102.937 81.2242 101.769 81.4493Z" fill="#32526E"/>
<path d="M61.1154 102.697L61.8786 106.708L77.8357 103.643L77.0724 99.6324L61.1154 102.697Z" fill="white"/>
<path d="M72.2237 74.7515L72.9915 78.7269L66.9933 79.8824L68.1526 85.8844L64.2187 86.6422L63.0595 80.6401L57.0223 81.8031L56.2545 77.8277L62.2916 76.6648L61.1324 70.6627L65.0663 69.9049L66.2255 75.907L72.2237 74.7515Z" fill="white"/>
<path d="M89.1713 101.005L89.9358 105.034L105.892 101.987L105.127 97.9582L89.1713 101.005Z" fill="white"/>
<path d="M87.7383 93.6544L88.5028 97.6829L104.459 94.6355L103.694 90.607L87.7383 93.6544Z" fill="white"/>
<path d="M99.9247 75.4567L97.2463 79.3683L92.2268 75.9693L88.7943 80.9964L85.6879 78.9268L89.1129 73.8607L84.0469 70.4304L86.6863 66.5262L90.9546 69.3827L91.7523 69.9566L95.1772 64.8906L98.2912 66.9992L94.8587 72.0263L99.9247 75.4567Z" fill="white"/>
<path d="M96.5756 36.577C95.9147 35.4479 94.6207 34.8056 93.2973 35.0609L48.7687 43.649C47.0561 43.9793 45.9565 45.6101 46.2869 47.33L48.8998 60.9326C49.1551 62.2615 50.2367 63.269 51.5184 63.4272C51.8523 63.4844 52.2177 63.495 52.6069 63.4199L97.1355 54.8318C98.8482 54.5015 99.9477 52.8707 99.6173 51.1508L97.0119 37.5873C96.8979 37.204 96.7525 36.8672 96.5756 36.577Z" fill="white"/>
<path d="M85.8543 47.4167L86.6419 46.2586L85.9107 42.4796L83.535 40.8683L84.6507 46.6342L85.8543 47.4167Z" fill="#32526E"/>
<path d="M83.8168 40.4291L86.1833 42.0659L89.9586 41.3459L91.5621 38.952L83.8168 40.4291Z" fill="#32526E"/>
<path d="M90.8346 45.7917L87.0596 46.513L86.2746 47.6818L87.443 48.5182L91.218 47.7969L91.9955 46.5887L90.8346 45.7917Z" fill="#32526E"/>
<path d="M92.0867 52.205L88.3114 52.925L86.708 55.319L94.4532 53.8419L92.0867 52.205Z" fill="#32526E"/>
<path d="M92.4548 46.847L91.6357 48.0514L92.3594 51.7915L94.735 53.4028L93.6269 47.6758L92.4548 46.847Z" fill="#32526E"/>
<path d="M75.0023 49.532L75.7902 48.3739L75.0591 44.5949L72.7222 42.9761L73.8377 48.742L75.0023 49.532Z" fill="#32526E"/>
<path d="M73.004 42.5371L75.3316 44.1812L79.107 43.4612L80.7103 41.0674L73.004 42.5371Z" fill="#32526E"/>
<path d="M79.983 47.907L76.2079 48.6282L75.4229 49.7971L76.5913 50.6336L80.3663 49.9124L81.1827 48.6967L79.983 47.907Z" fill="#32526E"/>
<path d="M81.235 54.3204L77.4597 55.0404L75.8952 57.4267L83.6016 55.957L81.235 54.3204Z" fill="#32526E"/>
<path d="M81.6031 48.9624L80.784 50.1669L81.5077 53.9069L83.8834 55.5182L82.7752 49.7912L81.6031 48.9624Z" fill="#32526E"/>
<path d="M80.3522 42.5447L79.5255 43.7102L80.2567 47.4893L82.6323 49.1006L81.5167 43.3346L80.3522 42.5447Z" fill="#32526E"/>
<path d="M69.4427 49.5996L70.6074 50.3895L71.3952 49.2315L70.2797 43.4655L68.7115 45.8205L69.4427 49.5996Z" fill="#32526E"/>
<path d="M70.7514 51.0778L69.9711 52.2748L70.6947 56.0148L73.0316 57.6336L71.9236 51.9067L70.7514 51.0778Z" fill="#32526E"/>
<path d="M70.4282 66.0841L54.0305 69.2429C52.862 69.4679 52.0765 70.6299 52.3023 71.7991L55.4715 88.2072C55.6973 89.3764 56.8593 90.1632 58.0277 89.9381L74.4254 86.7794C75.5939 86.5543 76.3794 85.3924 76.1536 84.2232L72.9844 67.8151C72.7586 66.6458 71.5967 65.859 70.4282 66.0841ZM72.9916 78.7282L66.9934 79.8837L68.1526 85.8857L64.2187 86.6435L63.0595 80.6415L57.0223 81.8044L56.2545 77.8291L62.2916 76.6661L61.1324 70.6641L65.1052 69.8988L66.2645 75.9008L72.2627 74.7454L73.0305 78.7207L72.9916 78.7282Z" fill="#32526E"/>
<path d="M48.5903 28.9097C54.8917 25.5462 57.2733 17.7111 53.9097 11.4097C50.5462 5.1083 42.7111 2.7267 36.4097 6.09027C30.1083 9.45383 27.7267 17.2889 31.0903 23.5903C34.4538 29.8917 42.2889 32.2733 48.5903 28.9097Z" fill="#FBA927"/>
<path d="M47.0867 26.0928C51.8324 23.5596 53.626 17.659 51.0928 12.9133C48.5597 8.16755 42.659 6.37392 37.9133 8.90708C33.1676 11.4402 31.374 17.3409 33.9071 22.0866C36.4403 26.8323 42.341 28.626 47.0867 26.0928Z" fill="#FDCD5C"/>
<path d="M42.4946 29.1842C38.3018 29.1842 34.2702 26.9265 32.1738 22.9917C29.1421 17.3152 31.303 10.2197 36.9794 7.18794C39.7209 5.70432 42.8817 5.41405 45.8811 6.31712C48.8806 7.22019 51.3318 9.2521 52.7832 11.9936C54.2668 14.735 54.5571 17.8958 53.654 20.8953C52.7509 23.8947 50.7513 26.3459 47.9776 27.7973C46.2359 28.7326 44.3653 29.1842 42.4946 29.1842ZM32.7221 22.7014C35.5926 28.0876 42.3011 30.1195 47.6873 27.249C50.2997 25.8622 52.2026 23.54 53.0735 20.7017C53.9443 17.8635 53.654 14.8963 52.2349 12.2838C50.848 9.67138 48.5259 7.76848 45.6876 6.89766C42.8494 6.02685 39.8822 6.31712 37.2697 7.73623C31.8835 10.6067 29.8516 17.3152 32.7221 22.7014Z" fill="#FDCD5C"/>
<path d="M38.8823 12.4451L38.4307 11.6388L39.8499 10.8647L40.3014 11.7033C41.6883 11.284 42.8171 11.8968 43.6234 13.4127L43.8169 13.7675L42.172 14.6383L41.914 14.1868C41.4947 13.3804 41.0109 13.2514 40.4627 13.574C39.9144 13.8642 39.7531 14.348 40.1724 15.1221C41.398 17.412 44.849 15.7026 46.5584 18.8634C47.3647 20.3792 47.2357 21.6693 46.1391 22.6047L46.5584 23.411L45.1393 24.185L44.6877 23.3465C43.3009 23.7658 42.1398 23.1207 41.3335 21.6371L40.9142 20.863L42.5591 19.9922L43.0106 20.863C43.4299 21.6693 43.9459 21.7661 44.4942 21.4436C45.0425 21.1533 45.236 20.6695 44.8167 19.8955C43.6557 17.6055 40.1724 19.3149 38.4953 16.1542C37.6889 14.6705 37.7857 13.3804 38.8823 12.4451Z" fill="#FBA927"/>
<path d="M114.245 20.5795C117.29 23.1811 121.778 22.9117 124.268 19.9777C126.759 17.0436 126.31 12.5561 123.265 9.95446C120.22 7.35282 115.733 7.62227 113.242 10.5563C110.751 13.4903 111.2 17.9778 114.245 20.5795Z" fill="#FBA927"/>
<path d="M115.359 19.268C117.652 21.2273 121.031 21.0244 122.907 18.8147C124.783 16.6051 124.445 13.2254 122.152 11.2661C119.859 9.30674 116.479 9.50967 114.603 11.7193C112.727 13.929 113.065 17.3086 115.359 19.268Z" fill="#FDCD5C"/>
<path d="M112.824 17.4973C111.949 15.2956 112.253 12.7471 113.813 10.8943C116.062 8.21755 120.114 7.99634 122.837 10.3978C124.162 11.5539 124.969 13.1582 125.136 14.9058C125.304 16.6535 124.784 18.3289 123.695 19.615C122.614 20.9179 121.07 21.6744 119.359 21.7733C117.648 21.8723 115.987 21.2907 114.672 20.1115C113.833 19.3757 113.214 18.4796 112.824 17.4973ZM114.075 11.1268C111.94 13.6634 112.309 17.5744 114.889 19.8543C116.138 20.9611 117.714 21.5166 119.336 21.4315C120.958 21.3464 122.404 20.6269 123.434 19.3825C124.47 18.155 124.952 16.572 124.801 14.9151C124.651 13.2583 123.885 11.7557 122.619 10.655C120.039 8.37516 116.21 8.59015 114.075 11.1268Z" fill="#FDCD5C"/>
<path d="M120.558 12.3757L120.872 11.9818L121.563 12.5961L121.232 12.9962C121.737 13.6601 121.663 14.3805 121.064 15.0983L120.925 15.2688L120.137 14.5517L120.312 14.3284C120.633 13.9517 120.596 13.6682 120.318 13.4352C120.055 13.1962 119.776 13.201 119.471 13.5716C118.568 14.66 120.161 16.1866 118.917 17.6984C118.318 18.4161 117.636 18.5903 116.931 18.1791L116.61 18.5557L115.919 17.9414L116.25 17.5414C115.745 16.8774 115.828 16.1337 116.411 15.422L116.715 15.0514L117.503 15.7685L117.156 16.1746C116.836 16.5512 116.895 16.846 117.174 17.0789C117.437 17.3179 117.723 17.3304 118.027 16.9598C118.944 15.906 117.345 14.3621 118.595 12.8676C119.178 12.1559 119.853 11.9645 120.558 12.3757Z" fill="#FBA927"/>
<path d="M82.2452 145.579C85.2901 148.181 89.7776 147.912 92.2684 144.978C94.7593 142.044 94.3101 137.556 91.2652 134.954C88.2203 132.353 83.7328 132.622 81.2419 135.556C78.7511 138.49 79.2003 142.978 82.2452 145.579Z" fill="#FBA927"/>
<path d="M83.3586 144.268C85.6518 146.227 89.0314 146.024 90.9073 143.815C92.7832 141.605 92.4449 138.225 90.1518 136.266C87.8586 134.307 84.4789 134.51 82.6031 136.719C80.7272 138.929 81.0655 142.309 83.3586 144.268Z" fill="#FDCD5C"/>
<path d="M80.8236 142.497C79.9488 140.296 80.2534 137.747 81.8131 135.894C84.0616 133.218 88.1138 132.996 90.837 135.398C92.162 136.554 92.9689 138.158 93.1364 139.906C93.3039 141.653 92.7841 143.329 91.6955 144.615C90.6136 145.918 89.07 146.674 87.3591 146.773C85.6483 146.872 83.987 146.291 82.6716 145.111C81.8334 144.376 81.2139 143.48 80.8236 142.497ZM82.0748 136.127C79.94 138.663 80.3085 142.574 82.8893 144.854C84.1383 145.961 85.714 146.517 87.3362 146.431C88.9585 146.346 90.4039 145.627 91.4337 144.383C92.4703 143.155 92.9516 141.572 92.8014 139.915C92.6511 138.258 91.8847 136.756 90.6193 135.655C88.0385 133.375 84.2096 133.59 82.0748 136.127Z" fill="#FDCD5C"/>
<path d="M88.5577 137.376L88.8717 136.982L89.5628 137.596L89.2324 137.996C89.7368 138.66 89.6634 139.38 89.0642 140.098L88.9249 140.269L88.1373 139.552L88.312 139.328C88.6328 138.952 88.5965 138.668 88.3175 138.435C88.055 138.196 87.7757 138.201 87.4713 138.572C86.5676 139.66 88.1605 141.187 86.9169 142.698C86.3176 143.416 85.6362 143.59 84.9311 143.179L84.6103 143.556L83.9192 142.941L84.2496 142.541C83.7452 141.877 83.8281 141.134 84.411 140.422L84.7155 140.051L85.5031 140.768L85.1564 141.175C84.8356 141.551 84.8951 141.846 85.174 142.079C85.4366 142.318 85.7227 142.33 86.0271 141.96C86.9443 140.906 85.3446 139.362 86.595 137.868C87.1779 137.156 87.8526 136.965 88.5577 137.376Z" fill="#FBA927"/>
<path d="M7.5 123C3.33333 123 0 119.646 0 115.547C0 111.354 3.33333 108 7.5 108C11.6667 108 15 111.354 15 115.547C14.9074 119.646 11.5741 123 7.5 123ZM7.5 109.863C4.35185 109.863 1.85185 112.379 1.85185 115.547C1.85185 118.714 4.35185 121.23 7.5 121.23C10.6481 121.23 13.1481 118.714 13.1481 115.547C13.0556 112.379 10.5556 109.863 7.5 109.863Z" fill="#FB9F88"/>
<path d="M159 45C156.778 45 155 43.2112 155 41.0248C155 38.7888 156.778 37 159 37C161.222 37 163 38.7888 163 41.0248C162.951 43.2112 161.173 45 159 45ZM159 37.9938C157.321 37.9938 155.988 39.3354 155.988 41.0248C155.988 42.7143 157.321 44.0559 159 44.0559C160.679 44.0559 162.012 42.7143 162.012 41.0248C161.963 39.3354 160.63 37.9938 159 37.9938Z" fill="#4F57AA"/>
</svg>
