<svg width="98" height="27" fill="none" xmlns="http://www.w3.org/2000/svg"><path d="M36.958 2.587c.616-.061 1.293-.123 1.97-.185.678-.061 1.356-.061 2.034-.061.739 0 1.478.061 2.155.185a5.11 5.11 0 011.972.8c.616.431 1.108.986 1.416 1.663.37.678.555 1.602.555 2.71 0 1.11-.185 2.033-.555 2.71-.308.678-.862 1.233-1.416 1.664a4.612 4.612 0 01-1.971.8c-.678.124-1.417.186-2.156.186h-.555c-.184 0-.308 0-.492-.062v4.928c-.247.061-.555.061-.801.061h-1.479c-.246 0-.554-.061-.862-.061l.185-15.338zm3.08 7.885c.184 0 .308.061.493.061h.554c.37 0 .739-.061 1.047-.123.308-.062.616-.246.924-.431.246-.247.493-.493.616-.863.185-.43.246-.862.246-1.293 0-.431-.061-.924-.246-1.355-.123-.37-.37-.616-.616-.863-.246-.246-.554-.37-.924-.492a2.878 2.878 0 00-1.047-.185h-.431c-.123 0-.308 0-.616.061v5.483zm9.116-8.131c.493-.062.985-.123 1.54-.123.493 0 .985.061 1.478.123v11.272c0 .37 0 .739.062 1.047 0 .246.123.431.246.616.123.123.247.246.431.308.185.062.431.123.616.062h.37c.123 0 .246-.062.37-.062.123.554.246 1.109.246 1.725v.308c0 .123 0 .184-.062.308a3.605 3.605 0 01-.8.123c-.309 0-.617.061-.863.061-1.109 0-1.97-.308-2.648-.924-.678-.615-.986-1.601-.986-2.956V2.34zm12.566 8.377c0-.308-.062-.554-.185-.863-.123-.184-.246-.37-.493-.492a3.473 3.473 0 00-.74-.247c-.307-.061-.615-.061-.985-.061-.862 0-1.663.185-2.464.43-.184-.307-.308-.677-.43-1.046-.124-.37-.185-.801-.124-1.17.616-.185 1.232-.37 1.91-.493.554-.124 1.17-.124 1.786-.124 1.478 0 2.649.37 3.51 1.048.863.739 1.233 1.848 1.233 3.449v6.406c-.616.185-1.232.308-1.848.431-.8.123-1.602.247-2.402.185-.678 0-1.355-.062-2.033-.185-.554-.123-1.109-.308-1.54-.616-.431-.308-.8-.677-.985-1.17a4.133 4.133 0 01-.37-1.725c0-.616.123-1.232.431-1.724.308-.432.678-.863 1.109-1.11a4.752 4.752 0 011.54-.615 7.792 7.792 0 011.724-.185c.432 0 .863 0 1.356.062v-.185zm0 2.217c-.185 0-.37-.061-.555-.061-.184 0-.37-.062-.554-.062-.554 0-1.17.123-1.663.37a1.25 1.25 0 00-.616 1.232c0 .308.061.616.246.862.123.185.37.37.555.431.246.123.492.123.677.185.246 0 .493.062.678.062.246 0 .43 0 .616-.062l.554-.123.062-2.834zm5.975-3.695h-1.417l-.123-.432 4.003-5.112h.493V6.96h2.587c.062.185.062.37.062.555v1.109c0 .184-.062.43-.062.616h-2.587v4.373c0 .37 0 .739.123 1.047.062.246.185.431.308.616.124.185.308.246.493.308.246.062.493.062.678.062.184 0 .43 0 .616-.062l.554-.123c.123.246.185.554.185.862.061.247.061.493.061.8v.37c0 .124 0 .185-.061.308a7.646 7.646 0 01-2.033.247c-1.293 0-2.279-.308-2.957-.924-.677-.616-1.047-1.602-1.047-2.957l.124-4.927z" fill="#000"/><path d="M80.26 18.294c-.8 0-1.601-.123-2.34-.431-.616-.247-1.17-.678-1.664-1.232-.43-.554-.8-1.17-.985-1.848-.246-.74-.308-1.478-.308-2.279 0-.8.123-1.54.308-2.279.185-.678.554-1.294.985-1.848a3.697 3.697 0 011.663-1.232c.74-.308 1.54-.493 2.341-.431.8 0 1.602.123 2.34.431.617.308 1.233.678 1.664 1.232.431.554.8 1.17.986 1.848.246.74.308 1.54.308 2.279 0 .74-.124 1.54-.309 2.28-.184.677-.554 1.293-.985 1.847-.431.554-1.047.924-1.663 1.232-.74.308-1.54.431-2.34.431zm0-2.34c.8 0 1.355-.309 1.725-.863.37-.616.554-1.417.554-2.587 0-1.109-.184-1.971-.554-2.587-.37-.616-.924-.862-1.725-.862-.8 0-1.355.308-1.725.862-.37.554-.554 1.417-.554 2.587 0 1.109.185 1.971.555 2.587.37.616.923.862 1.724.862zm7.515-8.994c.185-.061.37-.061.616-.123.246 0 .431-.061.677-.061.185 0 .432 0 .617.061.184 0 .369.062.554.123.061.124.061.185.123.308.062.124.062.308.123.431 0 .124.062.308.062.432 0 .123.061.246.061.37.124-.247.308-.432.493-.617.185-.246.431-.43.678-.554a5.59 5.59 0 01.862-.431 3.5 3.5 0 011.109-.185c1.232 0 2.217.37 2.833 1.047.616.678.924 1.786.924 3.265v7.083a8.285 8.285 0 01-3.018 0v-6.344c0-.74-.123-1.355-.37-1.786-.246-.432-.616-.616-1.231-.616-.247 0-.493.061-.74.123-.246.061-.492.246-.677.431-.247.246-.431.554-.493.862a6.075 6.075 0 00-.185 1.479v5.79a8.285 8.285 0 01-3.018 0V6.96z" fill="#F26424"/><path d="M4.743 16.323c-.8.37-1.478 1.417-1.478 2.279v7.207c0 .246.061.493.246.739.123.185.308.246.554.246.185 0 .37-.061.493-.123l7.392-3.388c.8-.37 1.478-1.416 1.478-2.279V16.94c0-.555-5.112-2.218-5.112-2.218l-3.573 1.602z" fill="url(#paint0_linear)"/><path d="M0 10.718c0 1.17.924 2.587 1.971 3.08l11.519 5.297v-2.649L0 10.226v.492z" fill="url(#paint1_linear)"/><path d="M3.141 4.99l-1.416-.617c-.493-.246-.74-.739-.801-1.232v-.985c0-.493.37-.74.8-.493l1.417.616c.493.246.74.74.801 1.232v.924c0 .37-.185.554-.493.554-.123.062-.184.062-.308 0zM0 1.293V7.76l13.49 6.16V7.7c0-1.17-.924-2.587-1.972-3.08L1.787.185A1.64 1.64 0 001.047 0C.431 0 0 .493 0 1.294z" fill="url(#paint2_linear)"/><path d="M15.646 16.877v4.066c0 .862.677 1.91 1.478 2.279l7.391 3.388c.185.061.37.123.493.123.185 0 .431-.062.555-.247.184-.184.246-.492.246-.739v-7.083c0-.863-.678-1.91-1.478-2.28l-3.635-1.663c.062 0-5.05 1.602-5.05 2.156z" fill="url(#paint3_linear)"/><path d="M15.646 16.385v2.71l11.456-5.297c1.048-.493 1.971-1.91 1.971-3.08v-.493l-13.428 6.16z" fill="url(#paint4_linear)"/><path d="M25.131 4.497v-.924c0-.555.308-.986.801-1.232l1.417-.616c.431-.185.8 0 .8.492v.924c0 .555-.307.986-.8 1.232l-1.417.616c-.123.062-.185.062-.308.062-.246 0-.493-.185-.493-.554zM27.287.185l-9.67 4.435c-1.047.493-1.972 1.91-1.972 3.08v6.282l13.49-6.16V1.295C29.135.493 28.704 0 28.088 0c-.308 0-.554.062-.8.185z" fill="url(#paint5_linear)"/><path d="M38.744 21.867c.185.185.308.431.308.739s-.123.554-.308.74c-.185.184-.493.245-.862.245h-.678v.863h-.37v-2.895h1.11c.307 0 .554.123.8.308zm-.308 1.17c.123-.123.185-.246.185-.493a.7.7 0 00-.185-.492c-.123-.124-.308-.185-.554-.185h-.678v1.232h.678c.246.061.431.061.554-.062zm2.834.678h-1.48l-.308.677h-.43l1.293-2.772h.37l1.293 2.772h-.431l-.308-.677zm-.124-.37l-.616-1.355-.616 1.355h1.232zm2.156.062v.985h-.37v-.985l-1.108-1.848h.431l.924 1.478.924-1.478h.37l-1.17 1.848zm4.066.985V22.36l-1.047 1.663h-.185l-.986-1.663v2.032h-.37V21.56h.309l1.17 1.97 1.17-1.97h.308v2.772h-.37v.061zm3.264-.369v.37H48.6v-2.834h1.97v.37h-1.6v.862h1.416v.37h-1.417v.862h1.663zm3.018-2.464v2.772h-.307l-1.664-2.095v2.095h-.37v-2.772h.309l1.663 2.094V21.56h.37zm1.417.369h-.985v-.37h2.34v.37h-.985v2.464h-.37v-2.464zm3.08 2.402c-.185-.061-.37-.123-.431-.246l.123-.308a.993.993 0 00.431.247c.185.061.308.061.493.061.247 0 .431-.061.493-.123a.339.339 0 00.185-.308c0-.123 0-.185-.123-.246-.062-.062-.124-.124-.247-.124-.061 0-.246-.061-.37-.123-.184-.061-.37-.123-.492-.123-.123-.062-.247-.123-.308-.246a.89.89 0 01-.123-.432c0-.123.061-.308.123-.43a.631.631 0 01.37-.309c.184-.061.369-.123.615-.123.185 0 .308 0 .493.062.185.061.308.123.431.184l-.123.308-.37-.184c-.123-.062-.246-.062-.37-.062a.954.954 0 00-.492.123.339.339 0 00-.185.308c0 .123.062.185.123.247.062.061.124.123.247.123.123.061.246.061.37.123.184.062.369.123.492.123.123.062.247.123.308.247.123.123.123.246.123.43 0 .124-.061.309-.123.432a.63.63 0 01-.37.308 1.805 1.805 0 01-.615.123c-.308 0-.493 0-.678-.061zm4.25-.307v.37h-2.032v-2.834h1.97v.37h-1.6v.862h1.416v.37h-1.417v.862h1.663zm2.526.369l-.616-.862h-.863v.862h-.37V21.56h1.11c.37 0 .677.061.862.246.185.185.308.431.308.74 0 .246-.062.369-.185.554-.123.123-.246.246-.431.308l.677.924h-.492v.061zm-.185-1.355c.123-.123.185-.246.185-.493a.7.7 0 00-.185-.492c-.123-.124-.308-.185-.554-.185h-.74v1.232h.678c.308.123.493.061.616-.062zm3.634-1.478L67.14 24.33h-.37l-1.231-2.772h.43l.986 2.279.986-2.28h.431zm.37 0h.37v2.772h-.37v-2.772zm1.724 2.648a1.454 1.454 0 01-.554-.492c-.123-.185-.185-.431-.185-.74 0-.246.062-.492.185-.739.123-.246.308-.37.554-.492a1.64 1.64 0 01.74-.185c.246 0 .43.061.615.123s.308.185.493.308l-.246.246c-.185-.246-.493-.308-.8-.308-.186 0-.37.062-.555.124-.185.123-.308.246-.37.37-.123.184-.123.369-.123.554 0 .184.061.37.123.554.123.185.246.308.37.37.184.123.37.123.554.123.308 0 .555-.123.8-.308l.247.246a1.342 1.342 0 01-.492.308c-.185.062-.37.123-.617.123a1.64 1.64 0 01-.739-.184zm4.435-.184v.37H72.87v-2.834h1.97v.37H73.3v.862h1.417v.37H73.3v.862h1.6zm3.696-2.156c.185.185.308.431.308.739s-.123.554-.308.74c-.185.184-.493.245-.862.245h-.678v.863h-.37v-2.895h1.11c.307 0 .554.123.8.308zm-.308 1.17c.123-.123.185-.246.185-.493a.7.7 0 00-.185-.492c-.123-.124-.308-.185-.554-.185h-.678v1.232h.678c.246.061.43.061.554-.062zm3.08 1.355l-.616-.862h-.862v.862h-.431V21.56h1.108c.37 0 .616.061.863.246.246.185.308.431.308.74 0 .246-.062.369-.185.554-.123.123-.247.246-.431.308l.677.924h-.431v.061zm-.246-1.355c.123-.123.184-.246.184-.493a.7.7 0 00-.184-.492c-.124-.124-.308-.185-.555-.185h-.677v1.232h.677c.247.123.431.061.555-.062zm1.724 1.17a1.454 1.454 0 01-.554-.492 1.464 1.464 0 01-.185-.74c0-.246.062-.492.185-.739.123-.246.308-.37.554-.492a1.64 1.64 0 01.74-.185c.307 0 .554.061.739.185.246.123.43.308.554.492.123.247.185.432.185.74 0 .246-.062.492-.185.739-.123.246-.308.37-.554.492a1.64 1.64 0 01-.74.185 1.64 1.64 0 01-.739-.184zm1.355-.308c.185-.123.308-.246.37-.37.123-.184.123-.369.123-.553 0-.185-.061-.37-.123-.555-.123-.185-.246-.308-.37-.37-.184-.123-.37-.123-.554-.123-.185 0-.37.062-.554.124-.185.123-.308.246-.37.37-.123.184-.123.369-.123.554 0 .184.061.37.123.554.123.185.246.308.37.37.184.123.37.123.554.123.185.061.37 0 .554-.123zm3.881-2.34l-1.232 2.772h-.37l-1.231-2.772h.43l.986 2.279.986-2.28h.431zm.37 0h.37v2.772h-.37v-2.772zm1.231 0h1.17a1.7 1.7 0 01.802.185c.246.123.43.308.554.492.123.185.185.432.185.74 0 .246-.062.492-.185.739a1.45 1.45 0 01-.554.492 1.705 1.705 0 01-.801.185h-1.17V21.56zm1.11 2.464c.246 0 .43-.062.615-.123a.555.555 0 00.37-.37c.123-.185.123-.37.123-.554 0-.185-.062-.37-.123-.555-.123-.185-.247-.308-.37-.37a1.821 1.821 0 00-.616-.123h-.739v2.095h.74zm4.188 0v.37h-2.033v-2.834h1.971v.37h-1.6v.862h1.416v.37H93.32v.862h1.663zm2.525.369l-.616-.862h-.861v.862h-.37V21.56h1.109c.37 0 .616.061.862.246.247.185.308.431.308.74 0 .246-.061.369-.184.554-.124.123-.247.246-.432.308l.678.924h-.493v.061zm-.185-1.355c.124-.123.185-.246.185-.493a.7.7 0 00-.185-.492c-.123-.124-.308-.185-.554-.185h-.677v1.232h.677c.185.123.37.061.554-.062z" fill="#000"/><defs><linearGradient id="paint0_linear" x1="3.242" y1="20.749" x2="13.457" y2="20.749" gradientUnits="userSpaceOnUse"><stop stop-color="#F8951D"/><stop offset=".5" stop-color="#F26424"/><stop offset="1" stop-color="#E15C25"/></linearGradient><linearGradient id="paint1_linear" x1="0" y1="14.652" x2="13.461" y2="14.652" gradientUnits="userSpaceOnUse"><stop stop-color="#F8951D"/><stop offset=".5" stop-color="#F26424"/><stop offset="1" stop-color="#E15C25"/></linearGradient><linearGradient id="paint2_linear" x1="0" y1="6.986" x2="13.461" y2="6.986" gradientUnits="userSpaceOnUse"><stop stop-color="#F8951D"/><stop offset=".5" stop-color="#F26424"/><stop offset="1" stop-color="#E15C25"/></linearGradient><linearGradient id="paint3_linear" x1="15.622" y1="20.748" x2="25.834" y2="20.748" gradientUnits="userSpaceOnUse"><stop stop-color="#F8951D"/><stop offset=".5" stop-color="#F26424"/><stop offset="1" stop-color="#E15C25"/></linearGradient><linearGradient id="paint4_linear" x1="15.617" y1="14.653" x2="29.077" y2="14.653" gradientUnits="userSpaceOnUse"><stop stop-color="#F8951D"/><stop offset=".5" stop-color="#F26424"/><stop offset="1" stop-color="#E15C25"/></linearGradient><linearGradient id="paint5_linear" x1="15.618" y1="6.986" x2="29.078" y2="6.986" gradientUnits="userSpaceOnUse"><stop stop-color="#F8951D"/><stop offset=".5" stop-color="#F26424"/><stop offset="1" stop-color="#E15C25"/></linearGradient></defs></svg>