<svg width="98" height="27" viewBox="0 0 98 27" fill="none" xmlns="http://www.w3.org/2000/svg">
<path d="M36.9579 2.58711C37.5738 2.52551 38.2514 2.46392 38.9289 2.40232C39.6065 2.34072 40.2841 2.34072 40.9616 2.34072C41.7008 2.34072 42.4399 2.40232 43.1175 2.52551C43.8567 2.6487 44.5342 2.95669 45.0886 3.32627C45.7046 3.75744 46.1973 4.31181 46.5053 4.98937C46.8749 5.66693 47.0597 6.59088 47.0597 7.69962C47.0597 8.80835 46.8749 9.7323 46.5053 10.4099C46.1973 11.0874 45.643 11.6418 45.0886 12.073C44.4726 12.5041 43.8567 12.7505 43.1175 12.8737C42.4399 12.9969 41.7008 13.0585 40.9616 13.0585C40.7768 13.0585 40.5921 13.0585 40.4073 13.0585C40.2225 13.0585 40.0993 13.0585 39.9145 12.9969V17.9246C39.6681 17.9862 39.3601 17.9862 39.1137 17.9862C38.8674 17.9862 38.621 17.9862 38.3746 17.9862C38.1282 17.9862 37.8818 17.9862 37.6354 17.9862C37.389 17.9862 37.0811 17.9246 36.7731 17.9246L36.9579 2.58711ZM40.0377 10.4715C40.2225 10.4715 40.3457 10.5331 40.5305 10.5331H41.0848C41.4544 10.5331 41.824 10.4715 42.132 10.4099C42.4399 10.3483 42.7479 10.1635 43.0559 9.97869C43.3023 9.7323 43.5487 9.48591 43.6719 9.11634C43.8567 8.68516 43.9183 8.25398 43.9183 7.82281C43.9183 7.39163 43.8567 6.89886 43.6719 6.46769C43.5487 6.09811 43.3023 5.85172 43.0559 5.60534C42.8095 5.35895 42.5015 5.23576 42.132 5.11256C41.824 4.98937 41.4544 4.92777 41.0848 4.92777C40.9 4.92777 40.7768 4.92777 40.6536 4.92777C40.5305 4.92777 40.3457 4.92777 40.0377 4.98937V10.4715ZM49.154 2.34072C49.6467 2.27913 50.1395 2.21753 50.6939 2.21753C51.1866 2.21753 51.6794 2.27913 52.1722 2.34072V13.6129C52.1722 13.9825 52.1722 14.352 52.2338 14.66C52.2338 14.9064 52.357 15.0912 52.4802 15.276C52.6034 15.3992 52.7266 15.5224 52.9113 15.584C53.0961 15.6456 53.3425 15.7072 53.5273 15.6456C53.6505 15.6456 53.7737 15.6456 53.8969 15.6456C54.0201 15.6456 54.1433 15.584 54.2665 15.584C54.3897 16.1383 54.5129 16.6927 54.5129 17.3087V17.6166C54.5129 17.7398 54.5129 17.8014 54.4513 17.9246C54.2049 17.9862 53.8969 18.0478 53.6505 18.0478C53.3425 18.0478 53.0345 18.1094 52.7882 18.1094C51.6794 18.1094 50.8171 17.8014 50.1395 17.1855C49.4619 16.5695 49.154 15.584 49.154 14.2288V2.34072ZM61.7196 10.7178C61.7196 10.4099 61.658 10.1635 61.5349 9.85549C61.4117 9.6707 61.2885 9.48591 61.0421 9.36272C60.7957 9.23953 60.5493 9.17793 60.3029 9.11634C59.9949 9.05474 59.687 9.05474 59.3174 9.05474C58.455 9.05474 57.6543 9.23953 56.8535 9.48591C56.6687 9.17793 56.5455 8.80835 56.4223 8.43877C56.2992 8.0692 56.2376 7.63802 56.2992 7.26844C56.9151 7.08365 57.5311 6.89886 58.2086 6.77567C58.763 6.65248 59.379 6.65248 59.9949 6.65248C61.4733 6.65248 62.6436 7.02205 63.5059 7.69962C64.3683 8.43877 64.7379 9.54751 64.7379 11.149V17.5551C64.1219 17.7398 63.5059 17.863 62.89 17.9862C62.0892 18.1094 61.2885 18.2326 60.4877 18.171C59.8102 18.171 59.1326 18.1094 58.455 17.9862C57.9007 17.863 57.3463 17.6782 56.9151 17.3703C56.4839 17.0623 56.1144 16.6927 55.9296 16.1999C55.6832 15.6456 55.56 15.0912 55.56 14.4752C55.56 13.8593 55.6832 13.2433 55.9912 12.7505C56.2992 12.3194 56.6687 11.8882 57.0999 11.6418C57.5927 11.3338 58.0854 11.149 58.6398 11.0258C59.1942 10.9026 59.7486 10.841 60.3645 10.841C60.7957 10.841 61.2269 10.841 61.7196 10.9026V10.7178ZM61.7196 12.9353C61.5349 12.9353 61.3501 12.8737 61.1653 12.8737C60.9805 12.8737 60.7957 12.8121 60.6109 12.8121C60.0565 12.8121 59.4406 12.9353 58.9478 13.1817C58.5166 13.4281 58.2702 13.9209 58.3318 14.4136C58.3318 14.7216 58.3934 15.0296 58.5782 15.276C58.7014 15.4608 58.9478 15.6456 59.1326 15.7072C59.379 15.8304 59.6254 15.8304 59.8102 15.8919C60.0565 15.8919 60.3029 15.9535 60.4877 15.9535C60.7341 15.9535 60.9189 15.9535 61.1037 15.8919L61.658 15.7688L61.7196 12.9353ZM67.6945 9.23953H66.2778L66.1546 8.80835L70.1584 3.69584H70.6511V6.96046H73.2382C73.2998 7.14525 73.2998 7.33004 73.2998 7.51483C73.2998 7.69962 73.2998 7.88441 73.2998 8.0692C73.2998 8.25398 73.2998 8.43877 73.2998 8.62356C73.2998 8.80835 73.2382 9.05474 73.2382 9.23953H70.6511V13.6129C70.6511 13.9825 70.6511 14.352 70.7743 14.66C70.8359 14.9064 70.9591 15.0912 71.0823 15.276C71.2055 15.4608 71.3903 15.5224 71.5751 15.584C71.8215 15.6456 72.0679 15.6456 72.2526 15.6456C72.4374 15.6456 72.6838 15.6456 72.8686 15.584L73.423 15.4608C73.5462 15.7072 73.6078 16.0151 73.6078 16.3231C73.6694 16.5695 73.6694 16.8159 73.6694 17.1239C73.6694 17.3087 73.6694 17.4319 73.6694 17.4935C73.6694 17.6166 73.6694 17.6782 73.6078 17.8014C72.9302 17.9862 72.2526 18.0478 71.5751 18.0478C70.2816 18.0478 69.296 17.7398 68.6185 17.1239C67.9409 16.5079 67.5713 15.5224 67.5713 14.1672L67.6945 9.23953Z" fill="black"/>
<path d="M80.2602 18.2941C79.4594 18.2941 78.6587 18.1709 77.9195 17.8629C77.3036 17.6165 76.7492 17.1854 76.2564 16.631C75.8252 16.0766 75.4557 15.4607 75.2709 14.7831C75.0245 14.0439 74.9629 13.3048 74.9629 12.504C74.9629 11.7033 75.0861 10.9641 75.2709 10.225C75.4557 9.54739 75.8252 8.93142 76.2564 8.37706C76.6876 7.82269 77.242 7.39151 77.9195 7.14513C78.6587 6.83714 79.4594 6.65235 80.2602 6.71395C81.0609 6.71395 81.8617 6.83714 82.6009 7.14513C83.2168 7.45311 83.8328 7.82269 84.264 8.37706C84.6951 8.93142 85.0647 9.54739 85.2495 10.225C85.4959 10.9641 85.5575 11.7649 85.5575 12.504C85.5575 13.2432 85.4343 14.0439 85.2495 14.7831C85.0647 15.4607 84.6951 16.0766 84.264 16.631C83.8328 17.1854 83.2168 17.5549 82.6009 17.8629C81.8617 18.1709 81.0609 18.2941 80.2602 18.2941ZM80.2602 15.9534C81.0609 15.9534 81.6153 15.6454 81.9849 15.0911C82.3545 14.4751 82.5393 13.6744 82.5393 12.504C82.5393 11.3953 82.3545 10.5329 81.9849 9.91697C81.6153 9.301 81.0609 9.05462 80.2602 9.05462C79.4594 9.05462 78.9051 9.3626 78.5355 9.91697C78.1659 10.4713 77.9811 11.3337 77.9811 12.504C77.9811 13.6128 78.1659 14.4751 78.5355 15.0911C78.9051 15.707 79.4594 15.9534 80.2602 15.9534ZM87.775 6.96034C87.9598 6.89874 88.1445 6.89874 88.3909 6.83714C88.6373 6.83714 88.8221 6.77555 89.0685 6.77555C89.2533 6.77555 89.4997 6.77555 89.6845 6.83714C89.8692 6.83714 90.054 6.89874 90.2388 6.96034C90.3004 7.08353 90.3004 7.14513 90.362 7.26832C90.4236 7.39151 90.4236 7.5763 90.4852 7.69949C90.4852 7.82269 90.5468 8.00748 90.5468 8.13067C90.5468 8.25386 90.6084 8.37706 90.6084 8.50025C90.7316 8.25386 90.9164 8.06907 91.1012 7.88428C91.286 7.6379 91.5323 7.45311 91.7787 7.32992C92.0867 7.14513 92.3331 7.02193 92.6411 6.89874C93.0107 6.77555 93.3802 6.71395 93.7498 6.71395C94.9817 6.71395 95.9673 7.08353 96.5833 7.76109C97.1992 8.43865 97.5072 9.54739 97.5072 11.0257V18.1093C96.5217 18.2941 95.4745 18.2941 94.489 18.1093V11.7649C94.489 11.0257 94.3658 10.4097 94.1194 9.97857C93.873 9.54739 93.5034 9.3626 92.8875 9.3626C92.6411 9.3626 92.3947 9.4242 92.1483 9.48579C91.9019 9.54739 91.6555 9.73218 91.4708 9.91697C91.2244 10.1634 91.0396 10.4713 90.978 10.7793C90.8548 11.2721 90.7932 11.7649 90.7932 12.2576V18.0477C89.8076 18.2325 88.7605 18.2325 87.775 18.0477V6.96034Z" fill="#F26424"/>
<path d="M4.74296 16.3229C3.94221 16.6925 3.26465 17.7397 3.26465 18.602V25.8088C3.26465 26.0552 3.32624 26.3016 3.51103 26.548C3.63423 26.7327 3.81902 26.7943 4.0654 26.7943C4.25019 26.7943 4.43498 26.7327 4.55817 26.6712L11.9498 23.2833C12.7505 22.9138 13.4281 21.8666 13.4281 21.0043V16.9389C13.4281 16.3845 8.31556 14.7214 8.31556 14.7214L4.74296 16.3229Z" fill="url(#paint0_linear)"/>
<path d="M0 10.7179C0 11.8882 0.923947 13.3049 1.97109 13.7977L13.4896 19.095V16.4463L0 10.2251V10.7179Z" fill="url(#paint1_linear)"/>
<path d="M3.14142 4.98932L1.7247 4.37335C1.23193 4.12696 0.985544 3.63419 0.923947 3.14142V2.15588C0.923947 1.66311 1.29353 1.41672 1.7247 1.66311L3.14142 2.27907C3.63419 2.52546 3.88058 3.01823 3.94217 3.511V4.43495C3.94217 4.80453 3.75739 4.98932 3.4494 4.98932C3.32621 5.05091 3.26461 5.05091 3.14142 4.98932ZM0 1.29353V7.76116L13.4896 13.9208V7.69956C13.4896 6.52923 12.5657 5.11251 11.5185 4.61974L1.7863 0.184789C1.53991 0.0615965 1.29353 0 1.04714 0C0.431175 0 0 0.492772 0 1.29353Z" fill="url(#paint2_linear)"/>
<path d="M15.6455 16.8773V20.9427C15.6455 21.805 16.3231 22.8522 17.1238 23.2218L24.5154 26.6096C24.7002 26.6712 24.885 26.7328 25.0082 26.7328C25.193 26.7328 25.4394 26.6712 25.5625 26.4864C25.7473 26.3016 25.8089 25.9936 25.8089 25.7472V18.6636C25.8089 17.8013 25.1314 16.7541 24.3306 16.3845L20.6964 14.7214C20.758 14.7214 15.6455 16.3229 15.6455 16.8773Z" fill="url(#paint3_linear)"/>
<path d="M15.6455 16.3847V19.095L27.1025 13.7977C28.1496 13.3049 29.0735 11.8882 29.0735 10.7179V10.2251L15.6455 16.3847Z" fill="url(#paint4_linear)"/>
<path d="M25.1314 4.49654V3.5726C25.1314 3.01823 25.4393 2.58705 25.9321 2.34067L27.3488 1.7247C27.78 1.53991 28.1496 1.7247 28.1496 2.21747V3.14142C28.1496 3.69579 27.8416 4.12696 27.3488 4.37335L25.9321 4.98932C25.8089 5.05091 25.7473 5.05091 25.6241 5.05091C25.3778 5.05091 25.1314 4.86612 25.1314 4.49654ZM27.2872 0.184789L17.6166 4.61974C16.5695 5.11251 15.6455 6.52923 15.6455 7.69956V13.9824L29.1351 7.82275V1.29353C29.1351 0.492772 28.704 0 28.088 0C27.78 0 27.5336 0.0615965 27.2872 0.184789Z" fill="url(#paint5_linear)"/>
<path d="M38.7442 21.8668C38.929 22.0516 39.0522 22.298 39.0522 22.606C39.0522 22.914 38.929 23.1603 38.7442 23.3451C38.5594 23.5299 38.2514 23.5915 37.8819 23.5915H37.2043V24.4539H36.8347V21.5588H37.9435C38.2514 21.5588 38.4978 21.682 38.7442 21.8668ZM38.4362 23.0372C38.5594 22.914 38.621 22.7908 38.621 22.5444C38.621 22.3596 38.5594 22.1748 38.4362 22.0516C38.313 21.9284 38.1282 21.8668 37.8819 21.8668H37.2043V23.0987H37.8819C38.1282 23.1603 38.313 23.1603 38.4362 23.0372Z" fill="black"/>
<path d="M41.2696 23.7146H39.7913L39.4833 24.3922H39.0521L40.3456 21.6204H40.7152L42.0088 24.3922H41.5776L41.2696 23.7146ZM41.1464 23.3451L40.5304 21.9899L39.9145 23.3451H41.1464Z" fill="black"/>
<path d="M43.3023 23.4067V24.3923H42.9327V23.4067L41.824 21.5588H42.2551L43.1791 23.0372L44.103 21.5588H44.4726L43.3023 23.4067Z" fill="black"/>
<path d="M47.3677 24.3923V22.3596L46.3206 24.0227H46.1358L45.1502 22.3596V24.3923H44.7806V21.5588H45.0886L46.259 23.5299L47.4293 21.5588H47.7373V24.3307H47.3677V24.3923Z" fill="black"/>
<path d="M50.6323 24.0227V24.3923H48.5996V21.5588H50.5707V21.9284H48.9692V22.7908H50.3859V23.1603H48.9692V24.0227H50.6323Z" fill="black"/>
<path d="M53.6505 21.5588V24.3307H53.3425L51.6794 22.2364V24.3307H51.3098V21.5588H51.6178L53.2809 23.6531V21.5588H53.6505Z" fill="black"/>
<path d="M55.0672 21.9284H54.0817V21.5588H56.4223V21.9284H55.4368V24.3923H55.0672V21.9284Z" fill="black"/>
<path d="M58.1471 24.3305C57.9623 24.2689 57.7775 24.2073 57.7159 24.0841L57.8391 23.7761C57.9623 23.8993 58.0855 23.9609 58.2703 24.0225C58.4551 24.0841 58.5783 24.0841 58.7631 24.0841C59.0095 24.0841 59.1943 24.0225 59.2559 23.9609C59.379 23.8993 59.4406 23.7761 59.4406 23.6529C59.4406 23.5298 59.4406 23.4682 59.3175 23.4066C59.2559 23.345 59.1943 23.2834 59.0711 23.2834C59.0095 23.2834 58.8247 23.2218 58.7015 23.1602C58.5167 23.0986 58.3319 23.037 58.2087 23.037C58.0855 22.9754 57.9623 22.9138 57.9007 22.7906C57.8391 22.6674 57.7775 22.5442 57.7775 22.3594C57.7775 22.2362 57.8391 22.0514 57.9007 21.9282C57.9623 21.8051 58.0855 21.6819 58.2703 21.6203C58.4551 21.5587 58.6399 21.4971 58.8863 21.4971C59.0711 21.4971 59.1943 21.4971 59.3791 21.5587C59.5638 21.6203 59.687 21.6819 59.8102 21.7435L59.687 22.0514C59.5638 21.9898 59.4406 21.9282 59.3175 21.8666C59.1943 21.8051 59.0711 21.8051 58.9479 21.8051C58.7015 21.8051 58.5783 21.8666 58.4551 21.9282C58.3319 21.9898 58.2703 22.113 58.2703 22.2362C58.2703 22.3594 58.3319 22.421 58.3935 22.4826C58.4551 22.5442 58.5167 22.6058 58.6399 22.6058C58.7631 22.6674 58.8863 22.6674 59.0095 22.729C59.1943 22.7906 59.379 22.8522 59.5022 22.8522C59.6254 22.9138 59.7486 22.9754 59.8102 23.0986C59.9334 23.2218 59.9334 23.345 59.9334 23.5298C59.9334 23.6529 59.8718 23.8377 59.8102 23.9609C59.7486 24.0841 59.6254 24.2073 59.4406 24.2689C59.2559 24.3305 59.0711 24.3921 58.8247 24.3921C58.5167 24.3921 58.3319 24.3921 58.1471 24.3305Z" fill="black"/>
<path d="M62.3972 24.0227V24.3923H60.3645V21.5588H62.3356V21.9284H60.7341V22.7908H62.1508V23.1603H60.7341V24.0227H62.3972Z" fill="black"/>
<path d="M64.9227 24.3923L64.3068 23.5299C64.2452 23.5299 64.1836 23.5299 64.122 23.5299H63.4444V24.3923H63.0748V21.5588H64.1836C64.5531 21.5588 64.8611 21.6204 65.0459 21.8052C65.2307 21.99 65.3539 22.2364 65.3539 22.5444C65.3539 22.7908 65.2923 22.914 65.1691 23.0987C65.0459 23.2219 64.9227 23.3451 64.7379 23.4067L65.4155 24.3307H64.9227V24.3923ZM64.7379 23.0372C64.8611 22.914 64.9227 22.7908 64.9227 22.5444C64.9227 22.3596 64.8611 22.1748 64.7379 22.0516C64.6147 21.9284 64.4299 21.8668 64.1836 21.8668H63.4444V23.0987H64.122C64.4299 23.2219 64.6147 23.1603 64.7379 23.0372Z" fill="black"/>
<path d="M68.3721 21.5588L67.1402 24.3307H66.7706L65.5387 21.5588H65.9699L66.9554 23.8379L67.941 21.5588H68.3721Z" fill="black"/>
<path d="M68.7417 21.5588H69.1113V24.3307H68.7417V21.5588Z" fill="black"/>
<path d="M70.4663 24.2075C70.2199 24.0843 70.0352 23.8995 69.912 23.7147C69.7888 23.5299 69.7272 23.2835 69.7272 22.9756C69.7272 22.7292 69.7888 22.4828 69.912 22.2364C70.0352 21.99 70.2199 21.8668 70.4663 21.7436C70.7127 21.6204 70.9591 21.5588 71.2055 21.5588C71.4519 21.5588 71.6367 21.6204 71.8215 21.682C72.0062 21.7436 72.1294 21.8668 72.3142 21.99L72.0678 22.2364C71.8831 21.99 71.5751 21.9284 71.2671 21.9284C71.0823 21.9284 70.8975 21.99 70.7127 22.0516C70.5279 22.1748 70.4047 22.298 70.3431 22.4212C70.2199 22.606 70.2199 22.7908 70.2199 22.9756C70.2199 23.1603 70.2815 23.3451 70.3431 23.5299C70.4663 23.7147 70.5895 23.8379 70.7127 23.8995C70.8975 24.0227 71.0823 24.0227 71.2671 24.0227C71.5751 24.0227 71.8215 23.8995 72.0678 23.7147L72.3142 23.9611C72.191 24.0843 72.0062 24.2075 71.8215 24.2691C71.6367 24.3307 71.4519 24.3923 71.2055 24.3923C70.9591 24.3923 70.7127 24.3307 70.4663 24.2075Z" fill="black"/>
<path d="M74.9013 24.0227V24.3923H72.8687V21.5588H74.8397V21.9284H73.2998V22.7908H74.7165V23.1603H73.2998V24.0227H74.9013Z" fill="black"/>
<path d="M78.5971 21.8668C78.7819 22.0516 78.9051 22.298 78.9051 22.606C78.9051 22.914 78.7819 23.1603 78.5971 23.3451C78.4123 23.5299 78.1043 23.5915 77.7348 23.5915H77.0572V24.4539H76.6876V21.5588H77.7964C78.1043 21.5588 78.3507 21.682 78.5971 21.8668ZM78.2891 23.0372C78.4123 22.914 78.4739 22.7908 78.4739 22.5444C78.4739 22.3596 78.4123 22.1748 78.2891 22.0516C78.1659 21.9284 77.9811 21.8668 77.7348 21.8668H77.0572V23.0987H77.7348C77.9811 23.1603 78.1659 23.1603 78.2891 23.0372Z" fill="black"/>
<path d="M81.369 24.3923L80.753 23.5299C80.6914 23.5299 80.6298 23.5299 80.5682 23.5299H79.8906V24.3923H79.4595V21.5588H80.5682C80.9378 21.5588 81.1842 21.6204 81.4306 21.8052C81.6769 21.99 81.7385 22.2364 81.7385 22.5444C81.7385 22.7908 81.6769 22.914 81.5537 23.0987C81.4306 23.2219 81.3074 23.3451 81.1226 23.4067L81.8001 24.3307H81.369V24.3923ZM81.1226 23.0372C81.2458 22.914 81.3074 22.7908 81.3074 22.5444C81.3074 22.3596 81.2458 22.1748 81.1226 22.0516C80.9994 21.9284 80.8146 21.8668 80.5682 21.8668H79.8906V23.0987H80.5682C80.8146 23.2219 80.9994 23.1603 81.1226 23.0372Z" fill="black"/>
<path d="M82.8473 24.2075C82.6009 24.0843 82.4161 23.8995 82.2929 23.7147C82.1698 23.4683 82.1082 23.2835 82.1082 22.9756C82.1082 22.7292 82.1698 22.4828 82.2929 22.2364C82.4161 21.99 82.6009 21.8668 82.8473 21.7436C83.0937 21.6204 83.3401 21.5588 83.5865 21.5588C83.8944 21.5588 84.1408 21.6204 84.3256 21.7436C84.572 21.8668 84.7568 22.0516 84.88 22.2364C85.0032 22.4828 85.0648 22.6676 85.0648 22.9756C85.0648 23.2219 85.0032 23.4683 84.88 23.7147C84.7568 23.9611 84.572 24.0843 84.3256 24.2075C84.0792 24.3307 83.8329 24.3923 83.5865 24.3923C83.3401 24.3923 83.0937 24.3307 82.8473 24.2075ZM84.2024 23.8995C84.3872 23.7763 84.5104 23.6531 84.572 23.5299C84.6952 23.3451 84.6952 23.1603 84.6952 22.9756C84.6952 22.7908 84.6336 22.606 84.572 22.4212C84.4488 22.2364 84.3256 22.1132 84.2024 22.0516C84.0176 21.9284 83.8329 21.9284 83.6481 21.9284C83.4633 21.9284 83.2785 21.99 83.0937 22.0516C82.9089 22.1748 82.7857 22.298 82.7241 22.4212C82.6009 22.606 82.6009 22.7908 82.6009 22.9756C82.6009 23.1603 82.6625 23.3451 82.7241 23.5299C82.8473 23.7147 82.9705 23.8379 83.0937 23.8995C83.2785 24.0227 83.4633 24.0227 83.6481 24.0227C83.8329 24.0843 84.0176 24.0227 84.2024 23.8995Z" fill="black"/>
<path d="M88.083 21.5588L86.851 24.3307H86.4814L85.2495 21.5588H85.6807L86.6662 23.8379L87.6518 21.5588H88.083Z" fill="black"/>
<path d="M88.4525 21.5588H88.8221V24.3307H88.4525V21.5588Z" fill="black"/>
<path d="M89.6844 21.5588H90.8548C91.1628 21.5588 91.4091 21.6204 91.6555 21.7436C91.9019 21.8668 92.0867 22.0516 92.2099 22.2364C92.3331 22.4212 92.3947 22.6676 92.3947 22.9756C92.3947 23.2219 92.3331 23.4683 92.2099 23.7147C92.0867 23.8995 91.9019 24.0843 91.6555 24.2075C91.4091 24.3307 91.1628 24.3923 90.8548 24.3923H89.6844V21.5588ZM90.7932 24.0227C91.0396 24.0227 91.2244 23.9611 91.4091 23.8995C91.5939 23.8379 91.7171 23.7147 91.7787 23.5299C91.9019 23.3451 91.9019 23.1603 91.9019 22.9756C91.9019 22.7908 91.8403 22.606 91.7787 22.4212C91.6555 22.2364 91.5323 22.1132 91.4091 22.0516C91.2244 21.99 91.0396 21.9284 90.7932 21.9284H90.054V24.0227H90.7932Z" fill="black"/>
<path d="M94.9818 24.0227V24.3923H92.9491V21.5588H94.9202V21.9284H93.3187V22.7908H94.7354V23.1603H93.3187V24.0227H94.9818Z" fill="black"/>
<path d="M97.5072 24.3923L96.8912 23.5299C96.8296 23.5299 96.768 23.5299 96.7064 23.5299H96.0289V24.3923H95.6593V21.5588H96.768C97.1376 21.5588 97.384 21.6204 97.6304 21.8052C97.8768 21.99 97.9384 22.2364 97.9384 22.5444C97.9384 22.7908 97.8768 22.914 97.7536 23.0987C97.6304 23.2219 97.5072 23.3451 97.3224 23.4067L98 24.3307H97.5072V24.3923ZM97.3224 23.0372C97.4456 22.914 97.5072 22.7908 97.5072 22.5444C97.5072 22.3596 97.4456 22.1748 97.3224 22.0516C97.1992 21.9284 97.0144 21.8668 96.768 21.8668H96.0905V23.0987H96.768C96.9528 23.2219 97.1376 23.1603 97.3224 23.0372Z" fill="black"/>
<defs>
<linearGradient id="paint0_linear" x1="3.24229" y1="20.7489" x2="13.4573" y2="20.7489" gradientUnits="userSpaceOnUse">
<stop stop-color="#F8951D"/>
<stop offset="0.5" stop-color="#F26424"/>
<stop offset="1" stop-color="#E15C25"/>
</linearGradient>
<linearGradient id="paint1_linear" x1="0" y1="14.6515" x2="13.4614" y2="14.6515" gradientUnits="userSpaceOnUse">
<stop stop-color="#F8951D"/>
<stop offset="0.5" stop-color="#F26424"/>
<stop offset="1" stop-color="#E15C25"/>
</linearGradient>
<linearGradient id="paint2_linear" x1="0" y1="6.98566" x2="13.4614" y2="6.98566" gradientUnits="userSpaceOnUse">
<stop stop-color="#F8951D"/>
<stop offset="0.5" stop-color="#F26424"/>
<stop offset="1" stop-color="#E15C25"/>
</linearGradient>
<linearGradient id="paint3_linear" x1="15.6217" y1="20.7476" x2="25.8345" y2="20.7476" gradientUnits="userSpaceOnUse">
<stop stop-color="#F8951D"/>
<stop offset="0.5" stop-color="#F26424"/>
<stop offset="1" stop-color="#E15C25"/>
</linearGradient>
<linearGradient id="paint4_linear" x1="15.6169" y1="14.6527" x2="29.0771" y2="14.6527" gradientUnits="userSpaceOnUse">
<stop stop-color="#F8951D"/>
<stop offset="0.5" stop-color="#F26424"/>
<stop offset="1" stop-color="#E15C25"/>
</linearGradient>
<linearGradient id="paint5_linear" x1="15.6181" y1="6.98566" x2="29.0783" y2="6.98566" gradientUnits="userSpaceOnUse">
<stop stop-color="#F8951D"/>
<stop offset="0.5" stop-color="#F26424"/>
<stop offset="1" stop-color="#E15C25"/>
</linearGradient>
</defs>
</svg>
