<svg width="90" height="34" fill="none" xmlns="http://www.w3.org/2000/svg"><path d="M61.305 19.312l.898.266c-.06.252-.15.46-.285.622a1.162 1.162 0 01-.479.37c-.194.09-.434.134-.733.134-.359 0-.643-.045-.883-.148-.224-.104-.419-.282-.583-.548-.165-.252-.255-.592-.255-.992 0-.533.15-.948.434-1.244.285-.296.704-.43 1.227-.43.42 0 .733.09.973.252.24.163.419.415.524.77l-.898.193a.515.515 0 00-.105-.223.61.61 0 00-.21-.177.593.593 0 00-.269-.06.579.579 0 00-.523.282c-.09.133-.135.355-.135.637 0 .355.06.607.164.74.105.133.27.207.464.207.195 0 .344-.059.434-.163a.999.999 0 00.24-.488zm1.257-.298c0-.533.15-.948.448-1.244.3-.296.719-.444 1.257-.444.554 0 .973.148 1.272.43.3.295.45.695.45 1.228 0 .385-.06.696-.195.933a1.38 1.38 0 01-.569.563c-.24.133-.554.207-.913.207-.374 0-.673-.06-.927-.178a1.442 1.442 0 01-.599-.562c-.165-.267-.224-.548-.224-.933zm1.017 0c0 .326.06.563.18.71.12.149.284.223.508.223.225 0 .39-.074.51-.208.119-.148.179-.4.179-.755 0-.31-.06-.533-.195-.666-.12-.148-.3-.208-.509-.208a.6.6 0 00-.493.223c-.12.118-.18.355-.18.68zm2.933-1.629h1.332l.508 1.984.51-1.984h1.33v3.258h-.837v-2.488l-.644 2.488h-.748l-.643-2.488v2.488h-.838v-3.258h.03zm4.339 0h1.691c.374 0 .644.089.823.266.18.178.27.415.27.74 0 .327-.105.593-.3.77-.194.193-.508.282-.912.282h-.554v1.214H70.85v-3.272zm1.018 1.392h.254c.195 0 .33-.03.42-.104.074-.074.119-.148.119-.252a.355.355 0 00-.105-.266c-.075-.074-.194-.104-.389-.104h-.284l-.015.726zm2.304-1.392h1.018v2.458h1.586v.8h-2.604v-3.258zm3.112 0h1.018v3.258h-1.018v-3.258zm3.771 2.71h-1.152l-.164.533h-1.033l1.242-3.258h1.107l1.242 3.258h-1.062l-.18-.533zm-.21-.696l-.358-1.17-.36 1.17h.719zm1.766-2.014h.943l1.242 1.806v-1.806h.958v3.258h-.958L83.57 18.85v1.792h-.958v-3.258zm3.592 0H89.3v.8h-1.032v2.458H87.25v-2.459h-1.032l-.015-.8zm-37.139 4.961l2.948-.918-.958-2.103c-.703.874-1.407 1.999-1.99 3.02zm-1.003-9.61L42.286 0 0 2.37 11.716 34l22.55-7.034c-1.436-2.044-1.96-4.472-.3-5.657 1.856-1.332 4.654.207 6.435 2.384 1.72-2.843 6.554-9.462 7.661-10.958z" fill="#225E63"/><path d="M40.969 9.203c1.766 0 3.202-1.332 3.202-2.991s-1.436-2.991-3.202-2.991-3.202 1.332-3.202 2.991c0 1.644 1.436 2.991 3.202 2.991zm-2.619 1.289h5.238v13.55H38.35v-13.55zm-2.588 3.954c.045.014.075 0 .075-.045v-3.435c0-.045-.03-.09-.075-.119 0 0-.689-.444-2.784-.563-.104-.059-1.945-.074-2.439 0-7.63.608-7.915 6.072-7.915 6.309v1.333c0 .163 0 5.745 7.916 6.234.778.06 2.289 0 2.438 0 1.826 0 3.083-.548 3.083-.548a.111.111 0 00.075-.104v-3.213c0-.045-.03-.06-.06-.03 0 0-.569.445-3.053.696-.703.074-1.047.045-1.301 0-3.532-.592-3.696-3.139-3.696-3.139 0-.044-.015-.119-.015-.148v-.977c0-.045 0-.119.015-.149 0 0 .24-2.74 3.696-3.035h1.301c1.512.192 2.739.933 2.739.933zM8.08 23.997c0 .044.03.074.074.074h5.103c.045 0 .075-.03.075-.074v-3.94c0-.043.03-.073.074-.073 0 0 8.155.577 8.155-4.828 0-4.28-5.117-4.738-6.793-4.664H8.154a.07.07 0 00-.074.074v13.431zm5.162-7.02V13.44h1.257s1.81.074 1.96 1.303c.03.089.03.696 0 .725-.24 1.437-1.81 1.51-1.81 1.51h-1.407z" fill="#FEFEFE"/><path d="M41.12 30.58c.418 0 .747 0 1.286-.238 1.855-.962 8.125-16.111 14.739-20.776a.454.454 0 00.12-.118c.044-.06.044-.119.044-.119s0-.31-.972-.31c-5.88-.164-12 12.053-15.218 16.88-.045.06-.254 0-.254 0s-2.155-2.517-4.025-3.48c-.045-.014-.255-.088-.48-.073-.149 0-1.017.177-1.42.592-.48.504-.465.785-.465 1.392 0 .045.03.252.09.356.464.8 2.544 3.642 4.265 5.212.254.192.658.681 2.29.681z" fill="#2BBC5D"/><path d="M58.88 4.99h4.894c.972 0 1.75.134 2.334.385.598.267 1.092.637 1.466 1.11.39.49.674 1.052.838 1.689.18.637.27 1.318.27 2.044 0 1.125-.135 1.999-.39 2.62a4.342 4.342 0 01-1.077 1.57c-.464.415-.958.696-1.481.844a7.63 7.63 0 01-1.96.282H58.88V4.99zm3.292 2.384v5.76h.809c.688 0 1.182-.073 1.466-.221.284-.148.524-.415.688-.785.165-.37.255-.992.255-1.836 0-1.126-.18-1.881-.554-2.296-.374-.414-.973-.622-1.84-.622h-.824zm7.422 4.68l3.143-.193c.075.504.21.889.419 1.155.344.43.823.637 1.451.637.464 0 .838-.103 1.092-.325.255-.223.39-.474.39-.756 0-.266-.12-.518-.36-.74-.24-.222-.808-.415-1.69-.607-1.452-.326-2.47-.755-3.098-1.289-.628-.533-.928-1.214-.928-2.043 0-.548.165-1.052.48-1.54.313-.489.792-.86 1.436-1.14.643-.282 1.51-.415 2.618-.415 1.362 0 2.41.252 3.113.755.718.504 1.137 1.303 1.272 2.399l-3.113.178c-.09-.474-.254-.815-.524-1.037-.269-.222-.628-.326-1.092-.326-.389 0-.673.074-.868.237a.732.732 0 00-.284.593c0 .163.075.325.24.459.149.133.523.266 1.107.385 1.436.31 2.469.622 3.097.933.629.31 1.077.71 1.362 1.17.284.459.419.992.419 1.57 0 .68-.195 1.302-.569 1.865-.374.578-.913 1.007-1.586 1.303-.673.296-1.541.444-2.574.444-1.81 0-3.067-.34-3.77-1.036-.689-.696-1.078-1.57-1.183-2.636zm10.52 0l3.142-.193c.075.504.21.889.419 1.155.344.43.823.637 1.451.637.464 0 .838-.103 1.093-.325.254-.223.389-.474.389-.756 0-.266-.12-.518-.36-.74-.239-.222-.807-.415-1.69-.607-1.452-.326-2.47-.755-3.098-1.289-.613-.533-.927-1.214-.927-2.043 0-.548.164-1.052.478-1.54.315-.489.794-.86 1.437-1.14.643-.282 1.511-.415 2.619-.415 1.361 0 2.409.252 3.112.755.718.504 1.137 1.303 1.272 2.399l-3.113.178c-.09-.474-.254-.815-.523-1.037-.27-.222-.629-.326-1.093-.326-.389 0-.673.074-.867.237a.732.732 0 00-.285.593c0 .163.075.325.24.459.15.133.523.266 1.107.385 1.436.31 2.469.622 3.097.933.629.31 1.078.71 1.362 1.17.284.459.419.992.419 1.57 0 .68-.195 1.302-.569 1.865-.374.578-.912 1.007-1.586 1.303-.673.296-1.541.444-2.573.444-1.811 0-3.068-.34-3.771-1.036-.704-.696-1.093-1.57-1.182-2.636z" fill="#225E63"/></svg>