<svg width="80" height="29" fill="none" xmlns="http://www.w3.org/2000/svg"><path fill-rule="evenodd" clip-rule="evenodd" d="M75.642 11.117c0-.845.667-1.556 1.512-1.556s1.512.712 1.512 1.556c0 .845-.667 1.557-1.512 1.557-.845.044-1.512-.667-1.512-1.556zm1.468 1.246c.622 0 1.156-.534 1.156-1.201s-.534-1.2-1.157-1.2c-.622 0-1.156.533-1.156 1.2 0 .667.534 1.2 1.156 1.2zm-.178-.534h-.312V10.45h.578c.134 0 .267 0 .356.09a.404.404 0 01.178.355c0 .178-.089.311-.222.356l.266.622h-.444l-.222-.533h-.223v.489h.045zm0-.8h.177c.09 0 .134 0 .178-.045.045-.044.09-.089.09-.178 0-.044-.045-.133-.09-.133-.044-.045-.133-.045-.178-.045h-.177v.4zM54.075.578l-.4 2.713c-.89-.49-1.557-.667-2.269-.667-1.867 0-3.201 1.912-3.201 4.624 0 1.868.889 3.024 2.356 3.024.623 0 1.29-.222 2.135-.622l-.445 2.846c-.934.267-1.512.356-2.223.356-2.713 0-4.403-2.046-4.403-5.337C45.625 3.068 47.938 0 51.317 0c.445 0 .8.044 1.157.133L53.54.4c.222.09.311.09.534.178zM45.67 2.446c-.09-.045-.178-.045-.267-.045-.8 0-1.29.445-2.09 1.646l.222-1.512h-2.223l-1.557 10.05h2.535c.934-6.181 1.156-7.204 2.357-7.204h.178c.222-1.2.533-2.09.978-2.935h-.133zM30.595 12.451c-.667.223-1.245.356-1.823.356-1.29 0-2.002-.756-2.002-2.223 0-.267.045-.578.09-.934l.177-.978.134-.8 1.111-6.85h2.49l-.31 1.468h1.289l-.356 2.446h-1.29l-.666 4.18c-.045.178-.045.312-.045.4 0 .534.267.757.845.757.311 0 .49-.045.667-.09l-.311 2.268zm-9.917-6.759c0 1.29.578 2.135 1.912 2.802 1.023.489 1.201.667 1.201 1.111 0 .623-.445.934-1.423.934-.756 0-1.423-.133-2.268-.4l-.356 2.312.134.045.444.089c.178.044.356.089.668.089.578.044 1.067.089 1.378.089 2.668 0 3.869-1.068 3.869-3.335 0-1.379-.49-2.18-1.779-2.802-1.067-.49-1.156-.623-1.156-1.112 0-.533.4-.8 1.245-.8.49 0 1.156.089 1.823.178l.356-2.313a13.442 13.442 0 00-2.223-.222c-2.891-.045-3.87 1.467-3.825 3.335zm53.497 6.893h-2.402l.134-.979c-.667.756-1.423 1.112-2.313 1.112-1.867 0-3.068-1.645-3.068-4.18 0-3.335 1.868-6.181 4.091-6.181.978 0 1.69.444 2.401 1.378l.534-3.557h2.49l-1.867 12.407zm-3.736-2.357c1.2 0 2.001-1.379 2.001-3.38 0-1.29-.489-2.001-1.334-2.001-1.156 0-1.956 1.423-1.956 3.38 0 1.29.444 2 1.29 2zM38.6 12.363c-.846.266-1.69.4-2.58.4-2.802 0-4.269-1.557-4.269-4.536 0-3.469 1.868-6.003 4.402-6.003 2.09 0 3.38 1.423 3.38 3.69 0 .712-.089 1.468-.311 2.49h-5.07c-.044.179-.044.223-.044.312 0 1.2.756 1.779 2.223 1.779.89 0 1.69-.222 2.624-.623l-.356 2.49zm-1.424-6.004c.045-.222.045-.4.045-.489 0-.8-.445-1.29-1.201-1.29-.8 0-1.379.623-1.6 1.824h2.756v-.045zM10.54 12.585H8.048l1.423-9.517-3.246 9.517h-1.69l-.222-9.472-1.512 9.472H.445L2.4.222h3.602l.134 7.649L8.583.222h3.913l-1.957 12.363zm6.492-4.492c-.267-.044-.4-.044-.578-.044-1.423 0-2.135.534-2.135 1.512 0 .623.356 1.023.934 1.023.978.044 1.734-1.023 1.779-2.49zm1.823 4.492h-2.09l.044-1.067c-.622.845-1.467 1.2-2.668 1.2-1.378 0-2.312-1.111-2.312-2.757 0-2.446 1.645-3.869 4.447-3.869.311 0 .667.045 1.023.09.088-.356.088-.49.088-.668 0-.667-.444-.934-1.6-.934-.712 0-1.512.134-2.09.312l-.312.133-.222.09.356-2.269c1.245-.4 2.09-.534 3.024-.534 2.178 0 3.29 1.023 3.29 2.935 0 .49-.044.845-.222 2.002l-.534 3.557-.089.623-.044.533-.045.356-.044.267zm39.577-4.491c-.266-.045-.4-.045-.578-.045-1.423 0-2.179.534-2.179 1.512 0 .623.356 1.023.934 1.023 1.023.044 1.779-1.023 1.823-2.49zm1.824 4.49h-2.09l.044-1.066c-.622.845-1.467 1.2-2.668 1.2-1.379 0-2.312-1.111-2.312-2.757 0-2.446 1.645-3.869 4.447-3.869.266 0 .667.045 1.022.09.09-.356.09-.49.09-.668 0-.667-.445-.934-1.602-.934-.711 0-1.512.134-2.09.312l-.355.089-.223.089.356-2.268c1.245-.4 2.09-.534 3.024-.534 2.179 0 3.29 1.023 3.29 2.935 0 .49-.044.845-.222 2.001l-.533 3.558-.09.622-.088.49-.045.355.045.356zm7.026-10.138c-.09-.045-.178-.045-.267-.045-.8 0-1.29.445-2.09 1.646l.222-1.512H62.88l-1.556 10.05h2.535c.934-6.181 1.156-7.204 2.357-7.204h.177c.223-1.2.534-2.09.979-2.935h-.09z" fill="#FD0C15"/><path fill-rule="evenodd" clip-rule="evenodd" d="M56.698 22.368c0 2.268-.711 3.646-1.823 3.646-.8.045-1.29-.889-1.29-2.223 0-1.601.712-3.424 1.868-3.424.934-.045 1.245.934 1.245 2zm2.49 0c0-2.535-1.245-4.536-3.602-4.536-2.712 0-4.49 2.401-4.49 5.914 0 2.535 1.066 4.625 3.601 4.625 2.624.045 4.491-1.778 4.491-6.003z" fill="#F3AE12"/><path fill-rule="evenodd" clip-rule="evenodd" d="M51.94 16.098l-.4 2.712c-.845-.489-1.423-.667-2.09-.667-1.735 0-2.98 1.912-2.98 4.625 0 1.868.8 3.024 2.18 3.024.577 0 1.244-.222 2-.623l-.4 2.846c-.845.267-1.423.356-2.09.356-2.535 0-4.136-2.045-4.136-5.336 0-4.447 2.18-7.515 5.337-7.515.4 0 .756.044 1.067.133l.978.267c.223.044.312.089.534.178zM36.331 17.92c-.089-.044-.178-.044-.267-.044-.755 0-1.2.445-1.956 1.646l.222-1.512h-2.134l-1.423 10.05h2.357c.889-6.137 1.111-7.204 2.223-7.204.089 0 .089 0 .178.044.222-1.2.489-2.09.89-2.935l-.09-.044zm30.773 10.051H64.88l.134-.978c-.623.756-1.334 1.112-2.18 1.112-1.689 0-2.845-1.646-2.845-4.18 0-3.335 1.779-6.182 3.824-6.182.934 0 1.601.445 2.268 1.379l.534-3.557h2.312L67.104 27.97zm-3.513-2.357c1.112 0 1.868-1.378 1.868-3.38 0-1.289-.445-1.956-1.246-1.956-1.067 0-1.823 1.379-1.823 3.38 0 1.29.4 1.956 1.2 1.956zm-49.316 2.313c-.8.266-1.557.4-2.402.4-2.623 0-4.002-1.557-4.002-4.536 0-3.424 1.734-6.003 4.091-6.003 1.957 0 3.158 1.423 3.158 3.69 0 .712-.09 1.468-.312 2.49H10.14c-.044.179-.044.223-.044.312 0 1.156.711 1.734 2.09 1.734.845 0 1.6-.222 2.445-.622l-.355 2.535zm-1.335-5.96c0-.222.045-.4.045-.488 0-.8-.4-1.29-1.112-1.29-.756 0-1.29.622-1.512 1.823h2.58v-.044zm29.35 5.96c-.8.266-1.556.4-2.401.4-2.668 0-4.002-1.557-4.002-4.536 0-3.424 1.734-6.003 4.09-6.003 1.957 0 3.203 1.423 3.203 3.69 0 .712-.09 1.468-.312 2.49h-4.714c-.044.179-.044.223-.044.312 0 1.156.712 1.734 2.09 1.734.845 0 1.601-.222 2.446-.622l-.356 2.535zm-1.334-5.96c.044-.222.044-.4.044-.488 0-.8-.4-1.29-1.111-1.29-.756 0-1.29.622-1.512 1.823h2.58v-.044zm34.152 5.96c-.8.266-1.6.4-2.4.4-2.625 0-4.003-1.557-4.003-4.536 0-3.424 1.779-6.003 4.136-6.003 1.956 0 3.157 1.423 3.157 3.69 0 .712-.09 1.468-.312 2.49h-4.669c-.044.179-.044.223-.044.312 0 1.156.711 1.734 2.09 1.734.845 0 1.6-.222 2.446-.622l-.4 2.535zm-1.334-5.96c0-.222.045-.4.045-.488 0-.8-.4-1.29-1.112-1.29-.756 0-1.29.622-1.512 1.823h2.58v-.044zM7.293 18.366c-.445-.311-1.112-.578-1.957-.578-.978 0-1.69.222-1.69 1.2 0 1.78 3.47 1.112 3.47 4.936 0 3.469-2.269 4.403-4.359 4.403-.934 0-2.001-.311-2.757-.667l.578-2.535c.49.445 1.423.712 2.224.712.756 0 1.912-.223 1.912-1.512 0-2.046-3.469-1.29-3.469-4.848 0-3.246 2.046-4.224 4.002-4.224 1.112 0 2.135.178 2.757.578l-.711 2.535zm13.874 9.561c-.489.222-1.156.4-2.09.4-2.045 0-3.335-2.046-3.335-4.58 0-3.291 1.868-5.87 4.58-5.87.579 0 1.512.266 2.224.667l-.534 2.4c-.533-.355-1.067-.533-1.6-.533-1.246 0-2.18 1.156-2.18 3.202 0 1.2.667 2.179 1.69 2.179.623 0 1.067-.133 1.557-.445l-.312 2.58zm8.805-2.535c-.133.845-.222 1.69-.311 2.579h-2.268l.178-1.601h-.045c-.711 1.112-1.423 1.868-2.757 1.868-1.423 0-2.179-1.512-2.179-3.424 0-.668.045-1.068.178-2.09l.623-4.67h2.535l-.623 4.67c-.089.489-.178 1.022-.178 1.511 0 .579.267 1.201.978 1.157 1.023 0 1.646-1.245 1.824-2.757l.711-4.625h2.446l-1.112 7.382zm47.493 2.49h-.4v-1.645h-.534v-.356H78v.356h-.534v1.645zm2.535 0h-.356v-1.69l-.356 1.69h-.355l-.356-1.69v1.69h-.356v-2.001h.578l.312 1.6h.044l.311-1.6H80v2.001z" fill="#F3AE12"/></svg>