<svg width="75" height="42" fill="none" xmlns="http://www.w3.org/2000/svg"><path fill-rule="evenodd" clip-rule="evenodd" d="M63.396 27.928c-.108.828-.252 1.62-.395 2.375-.72-.216-1.51-.611-2.66-.54-.683.037-1.51.324-1.51.936 0 .684 1.115 1.08 1.726 1.404 1.114.54 2.336 1.26 2.444 2.735.072 1.116-.468 2.123-1.042 2.663-1.582 1.512-5.104 1.656-7.476.684.144-.792.288-1.62.396-2.447.934.396 2.192.936 3.593.756.647-.072 1.402-.468 1.402-1.116-.036-.792-1.51-1.26-2.264-1.692-.863-.467-1.869-1.295-1.905-2.483a3.234 3.234 0 01.683-2.087c1.222-1.512 4.385-2.052 7.008-1.188zM34.968 12.38h3.199L36.19 24.797h-3.198l1.977-12.417zm-11.068 0h4.887c3.127 0 3.917 1.8 3.594 3.923-.288 1.8-1.582 2.987-3.235 3.42l3.091 5.074h-4.025l-2.336-4.895-.79 4.895h-3.163l1.976-12.417zm2.803 2.484l-.504 3.13h.935c.898 0 1.76-.683 1.904-1.547.144-.863-.467-1.547-1.365-1.547h-.97v-.036zM49.56 12.38h3.198l-1.94 12.417h-3.2L49.56 12.38zm5.642 0h7.008l-.431 2.7h-3.81l-.323 2.123h3.63l-.432 2.7h-3.63l-.359 2.195h3.81l-.432 2.699h-7.008l1.977-12.417zm-40.216 0h7.008l-.43 2.7h-3.81l-.324 2.123h3.63l-.431 2.7h-3.63l-.36 2.195h3.81l-.431 2.699H13.01l1.976-12.417zm25.589 0h7.116l-.431 2.7h-3.918l-.323 2.123h3.558l-.432 2.7h-3.558l-.754 4.894h-3.199l1.94-12.417zm23.504 0h4.169c4.96 0 6.11 3.743 5.714 6.227-.539 3.49-3.666 6.19-7.655 6.19h-4.169l1.94-12.417zm2.767 2.7h.647c2.444 0 3.414 1.727 3.127 3.383-.36 2.231-1.941 3.635-4.061 3.635h-.863l1.15-7.018zM0 10.689h5.93l.719 9.033C10.53 12.92 14.519 6.406 18.509 0h1.94c-4.24 8.206-8.445 16.447-12.507 24.797H3.63l-1.078-9.933C2.3 12.38 1.797 11.337 0 11.084v-.395z" fill="#3A57A7"/><path fill-rule="evenodd" clip-rule="evenodd" d="M2.228 5.579l5.068 2.123.43 5.614h.36l4.564-7.738v-.395H2.228v.396z" fill="#F8981D"/><path fill-rule="evenodd" clip-rule="evenodd" d="M25.552 33.687c.755 0 1.294.683 1.15 1.583-.107.864-.826 1.548-1.617 1.548-.755 0-1.294-.684-1.15-1.548.108-.864.863-1.584 1.617-1.584zm-2.587-5.975h2.084l-.683 4.895c.576-.576 1.33-.936 2.12-.936 1.654 0 2.732 1.62 2.445 3.563-.288 1.98-1.87 3.563-3.522 3.563-.827 0-1.402-.36-1.797-1.008l-.108.792h-2.085l1.546-10.869z" fill="#3A57A7"/><path fill-rule="evenodd" clip-rule="evenodd" d="M29.075 31.85h2.48l1.113 3.492 2.157-3.491h2.408L30.943 42h-2.408l2.66-4.283-2.12-5.866zm20.485 6.803l1.832-10.94h2.983l-1.833 10.94H49.56zm-2.48-10.941c-1.042 2.412-1.905 5.003-2.947 7.378l-.324-1.44.036.252c-.215-.755-.61-1.475-1.114-2.123l-.036-.036c-.072-.108-.18-.216-.287-.324-.072-.072-.108-.144-.18-.216a10.514 10.514 0 00-2.516-2.015l2.66 9.429h3.198c1.51-3.67 3.127-7.234 4.636-10.905H47.08z" fill="#3A57A7"/><path fill-rule="evenodd" clip-rule="evenodd" d="M41.473 27.712h-4.851v.252c2.803.54 6.325 2.915 7.26 5.938l-1.043-5.11c-.144-.792-.719-1.08-1.366-1.08z" fill="#F8981D"/><path fill-rule="evenodd" clip-rule="evenodd" d="M73.423 38.653h-2.731c-.18-.504-.216-1.151-.396-1.691h-3.702l-.682 1.691h-3.127l4.061-9.357c.18-.396.503-.972.647-1.224.216-.36 1.006-.396 1.33-.396h2.264l2.336 10.977zm-4.528-7.918l-1.51 4.067h2.444l-.934-4.067z" fill="#3A57A7"/></svg>