<svg width="175" height="136" viewBox="0 0 175 136" fill="none" xmlns="http://www.w3.org/2000/svg">
<circle cx="90" cy="68" r="68" fill="#4F57AA"/>
<path d="M161.534 22C158.46 22 156 19.5404 156 16.5342C156 13.4596 158.46 11 161.534 11C164.609 11 167.068 13.4596 167.068 16.5342C167 19.5404 164.54 22 161.534 22ZM161.534 12.3665C159.211 12.3665 157.366 14.2112 157.366 16.5342C157.366 18.8571 159.211 20.7019 161.534 20.7019C163.857 20.7019 165.702 18.8571 165.702 16.5342C165.634 14.2112 163.789 12.3665 161.534 12.3665Z" fill="#FB9F88"/>
<path d="M17.4 23.4C17.1 23.4 16.9 23.3 16.7 23.1L11.3 17.7C10.9 17.3 10.9 16.7 11.3 16.3C11.7 15.9 12.3 15.9 12.7 16.3L18.1 21.7C18.5 22.1 18.5 22.7 18.1 23.1C17.9 23.3 17.7 23.4 17.4 23.4Z" fill="#4F57AA"/>
<path d="M12 23.4C11.7 23.4 11.5 23.3 11.3 23.1C10.9 22.7 10.9 22.1 11.3 21.7L16.7 16.3C17.1 15.9 17.7 15.9 18.1 16.3C18.5 16.7 18.5 17.3 18.1 17.7L12.7 23.1C12.5 23.3 12.2 23.4 12 23.4Z" fill="#4F57AA"/>
<path d="M137.4 134.4C137.1 134.4 136.9 134.3 136.7 134.1L131.3 128.7C130.9 128.3 130.9 127.7 131.3 127.3C131.7 126.9 132.3 126.9 132.7 127.3L138.1 132.7C138.5 133.1 138.5 133.7 138.1 134.1C137.9 134.3 137.7 134.4 137.4 134.4Z" fill="#FB9F88"/>
<path d="M132 134.4C131.7 134.4 131.5 134.3 131.3 134.1C130.9 133.7 130.9 133.1 131.3 132.7L136.7 127.3C137.1 126.9 137.7 126.9 138.1 127.3C138.5 127.7 138.5 128.3 138.1 128.7L132.7 134.1C132.5 134.3 132.2 134.4 132 134.4Z" fill="#FB9F88"/>
<path d="M114 27.4922C114 25.0279 111.999 23 109.51 23H71.4896C69.0011 23 67 25.0023 67 27.4922V31.5994H114V27.4922Z" fill="#E6EFFF"/>
<path d="M114 31.5994H67V104.374H114V31.5994Z" fill="#573856"/>
<path d="M67 104.374V109.508C67 111.972 69.0011 114 71.4896 114H109.536C111.999 114 114.026 111.998 114.026 109.508V104.374H67Z" fill="#E6EFFF"/>
<path d="M90.5005 113.23C89.0638 113.23 87.7298 112.46 87.0114 111.202C86.2931 109.944 86.2931 108.404 87.0114 107.172C87.7298 105.914 89.0638 105.144 90.5005 105.144C91.9372 105.144 93.2712 105.914 93.9896 107.172C94.7079 108.43 94.7079 109.97 93.9896 111.202C93.2712 112.46 91.9372 113.23 90.5005 113.23ZM90.5005 105.811C89.2947 105.811 88.1659 106.453 87.5758 107.505C86.9858 108.558 86.9858 109.841 87.5758 110.894C88.1659 111.946 89.2947 112.588 90.5005 112.588C91.7063 112.588 92.8351 111.946 93.4252 110.894C94.0152 109.841 94.0152 108.558 93.4252 107.505C92.8351 106.453 91.7063 105.811 90.5005 105.811Z" fill="#1A2943"/>
<path d="M94.3483 27.8261H86.6518C86.3696 27.8261 86.1387 27.5951 86.1387 27.3127C86.1387 27.0303 86.3696 26.7993 86.6518 26.7993H94.3483C94.6305 26.7993 94.8614 27.0303 94.8614 27.3127C94.8614 27.5951 94.6305 27.8261 94.3483 27.8261Z" fill="#1A2943"/>
<path d="M97.5807 28.4164C98.19 28.4164 98.6839 27.9222 98.6839 27.3125C98.6839 26.7029 98.19 26.2087 97.5807 26.2087C96.9714 26.2087 96.4775 26.7029 96.4775 27.3125C96.4775 27.9222 96.9714 28.4164 97.5807 28.4164Z" fill="#1A2943"/>
<path d="M140.151 114.301C146.309 114.301 151.301 109.309 151.301 103.151C151.301 96.9923 146.309 92 140.151 92C133.992 92 129 96.9923 129 103.151C129 109.309 133.992 114.301 140.151 114.301Z" fill="#FB9F88"/>
<path d="M144.903 108.928H135.399C134.913 108.928 134.535 108.55 134.535 108.064V101.045C134.535 100.559 134.913 100.181 135.399 100.181H144.903C145.389 100.181 145.767 100.559 145.767 101.045V108.091C145.74 108.55 145.362 108.928 144.903 108.928ZM136.263 107.228H144.039V101.882H136.263V107.228Z" fill="white"/>
<path d="M143.904 101.882C143.418 101.882 143.04 101.504 143.04 101.018V98.4258C143.04 97.9938 142.689 97.6698 142.284 97.6698H137.991C137.559 97.6698 137.235 98.0208 137.235 98.4258V101.018C137.235 101.504 136.857 101.882 136.371 101.882C135.885 101.882 135.507 101.504 135.507 101.018V98.4258C135.507 97.0489 136.614 95.9419 137.991 95.9419H142.284C143.661 95.9419 144.767 97.0489 144.767 98.4258V101.018C144.767 101.504 144.389 101.882 143.904 101.882Z" fill="white"/>
<path d="M141.015 103.826C141.015 103.34 140.637 102.962 140.151 102.962C139.665 102.962 139.287 103.34 139.287 103.826C139.287 104.204 139.503 104.501 139.827 104.636L139.287 105.986H140.151H141.015L140.475 104.636C140.772 104.501 141.015 104.204 141.015 103.826Z" fill="white"/>
<path d="M87.1543 54.1618C86.7416 52.6064 85.1228 51.6859 83.5675 52.0986L33.1618 65.7475C31.6064 66.1601 30.6859 67.7789 31.0986 69.3343L31.5429 71.0166L87.5987 55.8441L87.1543 54.1618Z" fill="#FDCD5C"/>
<path d="M87.6103 55.8627L31.5693 71.0325L33.2779 77.3443L89.3189 62.1745L87.6103 55.8627Z" fill="#1A2943"/>
<path d="M33.2891 77.3649L38.8438 97.8382C39.2565 99.3936 40.8753 100.314 42.4307 99.9014L92.8364 86.2525C94.3917 85.8399 95.3122 84.2211 94.8996 82.6657L89.3448 62.1924L33.2891 77.3649Z" fill="#FDCD5C"/>
<path d="M52.6507 89.5538L44.017 91.9027C42.9695 92.1883 41.8903 91.5535 41.6047 90.506C41.319 89.4586 41.9538 88.3793 43.0013 88.0937L51.635 85.7448C52.6825 85.4591 53.7617 86.094 54.0474 87.1414C54.3013 88.1889 53.6982 89.2999 52.6507 89.5538Z" fill="#E6EFFF"/>
<path d="M80.3215 84.1426C82.4368 83.57 83.6874 81.3911 83.1148 79.2758C82.5422 77.1606 80.3633 75.91 78.248 76.4825C76.1327 77.0551 74.8821 79.234 75.4547 81.3493C76.0273 83.4646 78.2063 84.7152 80.3215 84.1426Z" fill="#FF6B6B"/>
<path d="M86.0696 82.5923C88.1849 82.0197 89.4354 79.8408 88.8628 77.7255C88.2903 75.6103 86.1113 74.3597 83.996 74.9322C81.8808 75.5048 80.6302 77.6838 81.2028 79.799C81.7754 81.9143 83.9543 83.1649 86.0696 82.5923Z" fill="#E6EFFF"/>
<path d="M128.942 39H104.36C103.615 39 103 39.6154 103 40.3603V41.2023V44.2791V54.2545C103 54.9994 103.615 55.6147 104.36 55.6147H128.942C129.687 55.6147 130.303 54.9994 130.303 54.2545V44.2791V41.2023V40.3603C130.335 39.6154 129.72 39 128.942 39Z" fill="#008AA9"/>
<path d="M122.821 52.1816C125.683 52.1816 128.003 49.8615 128.003 46.9996C128.003 44.1377 125.683 41.8176 122.821 41.8176C119.959 41.8176 117.639 44.1377 117.639 46.9996C117.639 49.8615 119.959 52.1816 122.821 52.1816Z" fill="white"/>
<path d="M123.533 47.2911C124.116 47.032 124.537 46.4167 124.537 45.7366C124.537 44.7973 123.76 44.02 122.821 44.02C121.881 44.02 121.104 44.7973 121.104 45.7366C121.104 46.4167 121.525 47.032 122.108 47.2911C120.91 47.615 120.003 48.7162 120.003 50.0117H125.638C125.638 48.6838 124.731 47.5826 123.533 47.2911Z" fill="#008AA9"/>
<path d="M110.449 43.3723H106.401C106.11 43.3723 105.883 43.1456 105.883 42.8541C105.883 42.5626 106.11 42.3359 106.401 42.3359H110.449C110.741 42.3359 110.968 42.5626 110.968 42.8541C110.968 43.1456 110.741 43.3723 110.449 43.3723Z" fill="white"/>
<path d="M114.692 43.3723H113.105C112.814 43.3723 112.587 43.1456 112.587 42.8541C112.587 42.5626 112.814 42.3359 113.105 42.3359H114.692C114.984 42.3359 115.21 42.5626 115.21 42.8541C115.21 43.1456 114.984 43.3723 114.692 43.3723Z" fill="white"/>
<path d="M110.643 44.2793H114.692C114.983 44.2793 115.21 44.506 115.21 44.7975C115.21 45.089 114.983 45.3157 114.692 45.3157H110.643C110.352 45.3157 110.125 45.089 110.125 44.7975C110.157 44.506 110.384 44.2793 110.643 44.2793Z" fill="white"/>
<path d="M106.401 44.2793H107.988C108.279 44.2793 108.506 44.506 108.506 44.7975C108.506 45.089 108.279 45.3157 107.988 45.3157H106.401C106.11 45.3157 105.883 45.089 105.883 44.7975C105.883 44.506 106.142 44.2793 106.401 44.2793Z" fill="white"/>
<path d="M110.643 50.4651H114.692C114.983 50.4651 115.21 50.6918 115.21 50.9833C115.21 51.2748 114.983 51.5015 114.692 51.5015H110.643C110.352 51.5015 110.125 51.2748 110.125 50.9833C110.157 50.6918 110.384 50.4651 110.643 50.4651Z" fill="white"/>
<path d="M106.401 50.4651H107.988C108.279 50.4651 108.506 50.6918 108.506 50.9833C108.506 51.2748 108.279 51.5015 107.988 51.5015H106.401C106.11 51.5015 105.883 51.2748 105.883 50.9833C105.883 50.6918 106.142 50.4651 106.401 50.4651Z" fill="white"/>
<path d="M46.5903 39.9098C52.8917 36.5463 55.2733 28.7113 51.9097 22.4098C48.5462 16.1084 40.7111 13.7268 34.4097 17.0904C28.1083 20.454 25.7267 28.289 29.0903 34.5904C32.4538 40.8918 40.2889 43.2734 46.5903 39.9098Z" fill="#FBA927"/>
<path d="M45.0865 37.0929C49.8322 34.5598 51.6259 28.6591 49.0927 23.9134C46.5596 19.1677 40.6589 17.374 35.9132 19.9072C31.1675 22.4404 29.3738 28.3411 31.907 33.0868C34.4402 37.8325 40.3408 39.6261 45.0865 37.0929Z" fill="#FDCD5C"/>
<path d="M40.4951 40.184C36.3023 40.184 32.2707 37.9264 30.1743 33.9916C27.1426 28.3151 29.3035 21.2196 34.9799 18.1878C37.7214 16.7042 40.8821 16.4139 43.8816 17.317C46.8811 18.2201 49.3323 20.252 50.7837 22.9934C52.2673 25.7349 52.5576 28.8957 51.6545 31.8951C50.7514 34.8946 48.7518 37.3458 45.978 38.7972C44.2364 39.7325 42.3658 40.184 40.4951 40.184ZM30.7226 33.7013C33.5931 39.0875 40.3016 41.1194 45.6878 38.2489C48.3002 36.862 50.2031 34.5398 51.0739 31.7016C51.9448 28.8634 51.6545 25.8962 50.2354 23.2837C48.8485 20.6713 46.5263 18.7684 43.6881 17.8975C40.8499 17.0267 37.8827 17.317 35.2702 18.7361C29.884 21.6066 27.8521 28.3151 30.7226 33.7013Z" fill="#FDCD5C"/>
<path d="M36.8825 23.4451L36.431 22.6388L37.8501 21.8647L38.3016 22.7033C39.6885 22.284 40.8173 22.8968 41.6236 24.4127L41.8172 24.7675L40.1723 25.6383L39.9143 25.1868C39.495 24.3804 39.0112 24.2514 38.4629 24.574C37.9146 24.8642 37.7533 25.348 38.1726 26.1221C39.3982 28.412 42.8492 26.7026 44.5586 29.8634C45.3649 31.3792 45.2359 32.6693 44.1393 33.6047L44.5586 34.411L43.1395 35.185L42.688 34.3465C41.3011 34.7658 40.14 34.1207 39.3337 32.6371L38.9144 31.863L40.5593 30.9922L41.0108 31.863C41.4301 32.6693 41.9462 32.7661 42.4945 32.4436C43.0428 32.1533 43.2363 31.6695 42.817 30.8955C41.6559 28.6055 38.1726 30.3149 36.4955 27.1542C35.6892 25.6705 35.7859 24.3804 36.8825 23.4451Z" fill="#FBA927"/>
<path d="M138.039 66.8638C141.093 69.4556 145.58 69.1702 148.063 66.2263C150.545 63.2824 150.082 58.7949 147.029 56.2031C143.975 53.6113 139.488 53.8967 137.005 56.8406C134.523 59.7845 134.986 64.272 138.039 66.8638Z" fill="#FBA927"/>
<path d="M139.15 65.5479C141.449 67.4998 144.829 67.2849 146.698 65.0678C148.568 62.8507 148.219 59.4711 145.92 57.5191C143.62 55.5672 140.24 55.7822 138.371 57.9992C136.501 60.2163 136.85 63.596 139.15 65.5479Z" fill="#FDCD5C"/>
<path d="M136.627 63.7915C135.744 61.5996 136.035 59.0553 137.582 57.1982C139.812 54.5152 143.854 54.2722 146.582 56.6531C147.91 57.7992 148.723 59.3953 148.899 61.138C149.075 62.8808 148.564 64.5552 147.485 65.8443C146.412 67.1502 144.875 67.9134 143.169 68.0216C141.463 68.1298 139.802 67.5586 138.484 66.3894C137.644 65.6599 137.022 64.7694 136.627 63.7915ZM137.844 57.4287C135.727 59.9712 136.114 63.8713 138.7 66.1316C139.951 67.229 141.526 67.7745 143.144 67.6807C144.762 67.5868 146.201 66.8611 147.222 65.6138C148.25 64.3834 148.723 62.8014 148.565 61.1492C148.407 59.497 147.634 58.002 146.367 56.9109C143.78 54.6505 139.961 54.8861 137.844 57.4287Z" fill="#FDCD5C"/>
<path d="M144.316 58.6431L144.627 58.2488L145.32 58.8553L144.993 59.2558C145.501 59.9131 145.432 60.6305 144.838 61.3492L144.7 61.52L143.909 60.8119L144.082 60.5884C144.4 60.2112 144.362 59.9292 144.082 59.6994C143.819 59.4633 143.54 59.4701 143.238 59.8412C142.343 60.9309 143.942 62.439 142.71 63.9525C142.116 64.6713 141.437 64.8494 140.731 64.4452L140.413 64.8224L139.719 64.2159L140.046 63.8154C139.539 63.1581 139.617 62.4173 140.195 61.7048L140.496 61.3338L141.287 62.0418L140.943 62.4485C140.625 62.8257 140.687 63.1186 140.966 63.3485C141.23 63.5845 141.516 63.5949 141.817 63.2238C142.727 62.1684 141.12 60.6432 142.359 59.1468C142.937 58.4342 143.609 58.2389 144.316 58.6431Z" fill="#FBA927"/>
<path d="M7.5 77C3.33333 77 0 73.646 0 69.5466C0 65.354 3.33333 62 7.5 62C11.6667 62 15 65.354 15 69.5466C14.9074 73.646 11.5741 77 7.5 77ZM7.5 63.8634C4.35185 63.8634 1.85185 66.3789 1.85185 69.5466C1.85185 72.7143 4.35185 75.2298 7.5 75.2298C10.6481 75.2298 13.1481 72.7143 13.1481 69.5466C13.0556 66.3789 10.5556 63.8634 7.5 63.8634Z" fill="#FB9F88"/>
<path d="M171 78C168.778 78 167 76.2112 167 74.0248C167 71.7888 168.778 70 171 70C173.222 70 175 71.7888 175 74.0248C174.951 76.2112 173.173 78 171 78ZM171 70.9938C169.321 70.9938 167.988 72.3354 167.988 74.0248C167.988 75.7143 169.321 77.0559 171 77.0559C172.679 77.0559 174.012 75.7143 174.012 74.0248C173.963 72.3354 172.63 70.9938 171 70.9938Z" fill="#4F57AA"/>
</svg>
