<svg width="176" height="139" fill="none" xmlns="http://www.w3.org/2000/svg"><circle cx="87" cy="71" r="68" fill="#4F57AA"/><path d="M132.16 101H41.84c-1.562 0-2.84-1.363-2.84-3.029V41.03c0-1.667 1.278-3.03 2.84-3.03h90.32c1.562 0 2.84 1.363 2.84 3.029V97.97c0 1.666-1.278 3.029-2.84 3.029z" fill="#fff"/><path fill="#D4DDED" d="M48 57h78v3H48zm0 9h22v3H48zm28 0h22v3H76zm28 0h22v3h-22z"/><path d="M39 49.204v-8.367A2.847 2.847 0 0141.84 38h90.32a2.847 2.847 0 012.84 2.837v8.367H39z" fill="#445156"/><path d="M46.285 45.73a2.129 2.129 0 100-4.255 2.129 2.129 0 100 4.255z" fill="#E56963"/><path d="M52.818 45.73a2.129 2.129 0 100-4.255 2.128 2.128 0 100 4.255z" fill="#FFC300"/><path d="M59.35 45.73a2.129 2.129 0 100-4.255 2.129 2.129 0 100 4.255z" fill="#37BAA8"/><path d="M122.262 43.602c0 1.177-.995 2.128-2.216 2.128h-53.78c-1.221 0-2.215-.95-2.215-2.128 0-1.177.994-2.127 2.215-2.127h53.78c1.221 0 2.216.95 2.216 2.127z" fill="#fff"/><path d="M169.534 89C166.46 89 164 86.54 164 83.534A5.511 5.511 0 01169.534 78a5.51 5.51 0 015.534 5.534C175 86.54 172.54 89 169.534 89zm0-9.633a4.141 4.141 0 00-4.168 4.167 4.141 4.141 0 004.168 4.168 4.141 4.141 0 004.168-4.168c-.068-2.323-1.913-4.168-4.168-4.168z" fill="#FB9F88"/><path d="M14.4 45.4c-.3 0-.5-.1-.7-.3l-5.4-5.4c-.4-.4-.4-1 0-1.4.4-.4 1-.4 1.4 0l5.4 5.4c.4.4.4 1 0 1.4-.2.2-.4.3-.7.3z" fill="#4F57AA"/><path d="M9 45.4c-.3 0-.5-.1-.7-.3-.4-.4-.4-1 0-1.4l5.4-5.4c.4-.4 1-.4 1.4 0 .4.4.4 1 0 1.4l-5.4 5.4c-.2.2-.5.3-.7.3z" fill="#4F57AA"/><path d="M134.4 137.4c-.3 0-.5-.1-.7-.3l-5.4-5.4c-.4-.4-.4-1 0-1.4.4-.4 1-.4 1.4 0l5.4 5.4c.4.4.4 1 0 1.4-.2.2-.4.3-.7.3z" fill="#FB9F88"/><path d="M129 137.4c-.3 0-.5-.1-.7-.3-.4-.4-.4-1 0-1.4l5.4-5.4c.4-.4 1-.4 1.4 0 .4.4.4 1 0 1.4l-5.4 5.4c-.2.2-.5.3-.7.3zM98.15 31.301c6.159 0 11.151-4.992 11.151-11.15 0-6.159-4.992-11.151-11.15-11.151C91.992 9 87 13.992 87 20.15c0 6.159 4.992 11.151 11.15 11.151z" fill="#FB9F88"/><path d="M102.902 25.928h-9.503a.853.853 0 01-.864-.864v-7.02c0-.485.378-.863.864-.863h9.503c.486 0 .864.378.864.864v7.046c-.027.46-.405.837-.864.837zm-8.64-1.7h7.776v-5.346h-7.775v5.345z" fill="#fff"/><path d="M101.903 18.881a.853.853 0 01-.864-.863v-2.592a.755.755 0 00-.756-.756h-4.292a.755.755 0 00-.756.756v2.592a.853.853 0 01-.864.863.853.853 0 01-.864-.863v-2.592a2.477 2.477 0 012.484-2.484h4.292a2.477 2.477 0 012.484 2.484v2.592a.853.853 0 01-.864.863zm-2.888 1.945a.853.853 0 00-.864-.864.853.853 0 00-.864.864c0 .377.216.674.54.81l-.54 1.35h1.728l-.54-1.35a.898.898 0 00.54-.81z" fill="#fff"/><path d="M74.485 77.52c-.29-1.094-1.429-1.74-2.522-1.45L36.52 85.666c-1.094.29-1.74 1.428-1.45 2.522l.312 1.183 39.415-10.669-.312-1.183z" fill="#FDCD5C"/><path d="M74.806 78.716L35.4 89.383l1.201 4.438 39.405-10.667-1.201-4.438z" fill="#1A2943"/><path d="M36.61 93.835l3.905 14.396c.29 1.094 1.429 1.741 2.522 1.451l35.443-9.597c1.094-.29 1.74-1.429 1.45-2.522l-3.905-14.396-39.416 10.668z" fill="#FDCD5C"/><path d="M50.224 102.406l-6.07 1.651a1.388 1.388 0 01-1.697-.982 1.388 1.388 0 01.982-1.696l6.07-1.651a1.389 1.389 0 011.697.982c.178.736-.246 1.517-.982 1.696z" fill="#E6EFFF"/><path d="M69.68 98.6a2.79 2.79 0 10-1.457-5.385A2.79 2.79 0 0069.68 98.6z" fill="#FF6B6B"/><path d="M73.722 97.51a2.79 2.79 0 10-1.458-5.385 2.79 2.79 0 001.458 5.386z" fill="#E6EFFF"/><path d="M128.396 81.816l-23.718-6.459a1.369 1.369 0 00-1.67.956l-.221.812-.809 2.969-2.62 9.625a1.368 1.368 0 00.955 1.67l23.718 6.458a1.369 1.369 0 001.67-.955l2.621-9.625.808-2.969.221-.812c.227-.71-.205-1.466-.955-1.67z" fill="#008AA9"/><path d="M119.027 92.926a5.182 5.182 0 102.723-10 5.182 5.182 0 00-2.723 10z" fill="#fff"/><path d="M120.999 88.395a1.722 1.722 0 001.377-1.237 1.728 1.728 0 00-1.205-2.107 1.728 1.728 0 00-2.107 1.206c-.179.656.066 1.36.56 1.763-1.241-.002-2.405.822-2.746 2.072l5.438 1.48a2.788 2.788 0 00-1.317-3.177z" fill="#008AA9"/><path d="M109.404 81.176l-3.906-1.064a.51.51 0 01-.364-.636.511.511 0 01.636-.364l3.906 1.064a.511.511 0 01.364.636.512.512 0 01-.636.364zm4.094 1.114l-1.532-.416a.511.511 0 01-.363-.637.51.51 0 01.636-.363l1.531.416c.281.077.44.355.364.637a.512.512 0 01-.636.363zm-4.145-.188l3.906 1.063a.51.51 0 01.364.637.511.511 0 01-.636.363l-3.906-1.063a.512.512 0 01-.364-.636c.108-.273.386-.432.636-.364zm-4.094-1.115l1.532.417a.51.51 0 01.363.636.51.51 0 01-.636.364l-1.531-.417a.512.512 0 01-.364-.636.533.533 0 01.636-.364zm2.469 7.083l3.906 1.064a.512.512 0 01.364.636.512.512 0 01-.636.364l-3.906-1.064a.51.51 0 01-.364-.636c.108-.272.386-.432.636-.364zm-4.094-1.114l1.532.417a.51.51 0 01.363.636.511.511 0 01-.636.364l-1.531-.417a.512.512 0 01-.364-.636.533.533 0 01.636-.364z" fill="#fff"/><path d="M42.59 28.91c6.302-3.364 8.683-11.199 5.32-17.5-3.364-6.302-11.199-8.683-17.5-5.32-6.302 3.364-8.683 11.199-5.32 17.5 3.364 6.302 11.199 8.683 17.5 5.32z" fill="#FBA927"/><path d="M41.087 26.093c4.745-2.533 6.539-8.434 4.006-13.18-2.533-4.745-8.434-6.54-13.18-4.006-4.745 2.533-6.539 8.434-4.006 13.18 2.533 4.745 8.434 6.539 13.18 4.006z" fill="#FDCD5C"/><path d="M36.495 29.184a11.678 11.678 0 01-10.321-6.192c-3.032-5.677-.871-12.772 4.805-15.804 2.742-1.484 5.903-1.774 8.902-.87 3 .902 5.45 2.934 6.902 5.676 1.484 2.741 1.774 5.902.871 8.901-.903 3-2.903 5.45-5.676 6.902a11.536 11.536 0 01-5.483 1.387zm-9.773-6.483c2.87 5.387 9.58 7.418 14.965 4.548 2.613-1.387 4.516-3.709 5.387-6.547.87-2.839.58-5.806-.84-8.418-1.386-2.613-3.708-4.516-6.546-5.386-2.839-.871-5.806-.58-8.418.838-5.386 2.87-7.418 9.58-4.548 14.965z" fill="#FDCD5C"/><path d="M32.882 12.445l-.451-.806 1.419-.774.451.838c1.387-.419 2.516.194 3.322 1.71l.194.354-1.645.871-.258-.451c-.42-.807-.903-.936-1.451-.613-.549.29-.71.774-.29 1.548 1.225 2.29 4.676.58 6.386 3.741.806 1.516.677 2.806-.42 3.742l.42.806-1.42.774-.451-.838c-1.387.419-2.548-.226-3.354-1.71l-.42-.774 1.645-.87.452.87c.419.806.935.903 1.483.58.549-.29.742-.774.323-1.548-1.161-2.29-4.645-.58-6.322-3.74-.806-1.485-.71-2.775.387-3.71zM90.26 127.597c3.054 2.592 7.542 2.307 10.024-.637 2.482-2.944 2.019-7.432-1.034-10.023-3.053-2.592-7.541-2.307-10.023.637-2.483 2.944-2.02 7.432 1.034 10.023z" fill="#FBA927"/><path d="M91.37 126.281c2.3 1.952 5.68 1.737 7.549-.48 1.869-2.217 1.521-5.596-.779-7.548s-5.68-1.737-7.549.48c-1.869 2.217-1.52 5.596.78 7.548z" fill="#FDCD5C"/><path d="M88.848 124.525c-.883-2.192-.592-4.736.955-6.593 2.23-2.683 6.272-2.926 9-.546a6.796 6.796 0 012.317 4.485c.176 1.743-.335 3.418-1.414 4.707-1.073 1.306-2.61 2.069-4.316 2.177-1.706.108-3.367-.463-4.685-1.632a6.802 6.802 0 01-1.857-2.598zm1.217-6.363c-2.117 2.543-1.73 6.443.856 8.703 1.252 1.097 2.826 1.643 4.444 1.549a5.61 5.61 0 004.078-2.067c1.028-1.23 1.501-2.812 1.343-4.464a6.343 6.343 0 00-2.198-4.239c-2.587-2.26-6.405-2.024-8.523.518z" fill="#FDCD5C"/><path d="M96.537 119.376l.31-.394.695.607-.328.4c.508.657.439 1.375-.155 2.094l-.138.17-.79-.708.173-.223c.317-.377.28-.659 0-.889-.264-.236-.543-.229-.844.142-.896 1.089.704 2.597-.528 4.111-.594.719-1.274.897-1.98.493l-.318.377-.694-.607.328-.4c-.508-.657-.43-1.398.148-2.111l.302-.371.79.708-.343.407c-.318.377-.257.67.023.9.263.236.549.246.85-.125.91-1.055-.697-2.58.543-4.077.577-.712 1.25-.908 1.956-.504z" fill="#FBA927"/><path d="M7.5 110c-4.167 0-7.5-3.354-7.5-7.453C0 98.354 3.333 95 7.5 95s7.5 3.354 7.5 7.547c-.093 4.099-3.426 7.453-7.5 7.453zm0-13.137c-3.148 0-5.648 2.516-5.648 5.684 0 3.167 2.5 5.683 5.648 5.683 3.148 0 5.648-2.516 5.648-5.683-.092-3.168-2.592-5.684-5.648-5.684z" fill="#FB9F88"/><path d="M149 22c-2.222 0-4-1.789-4-3.975A3.996 3.996 0 01149 14c2.222 0 4 1.789 4 4.025-.049 2.186-1.827 3.975-4 3.975zm0-7.006a3.002 3.002 0 00-3.012 3.03A3.002 3.002 0 00149 21.057a3.002 3.002 0 003.012-3.031c-.049-1.69-1.382-3.031-3.012-3.031z" fill="#4F57AA"/></svg>