<svg width="648" height="249" fill="none" xmlns="http://www.w3.org/2000/svg"><path d="M55.224 237.824l2.944-1.024h1.28V248h-1.472v-9.6l-2.384.704-.368-1.28zM165.808 248h-7.232v-1.216l3.952-4.032c1.056-1.056 1.584-1.963 1.584-2.72 0-.619-.192-1.104-.576-1.456-.373-.363-.843-.544-1.408-.544-1.056 0-1.824.501-2.304 1.504l-1.248-.736c.341-.715.821-1.259 1.44-1.632.619-.384 1.317-.576 2.096-.576.949 0 1.765.309 2.448.928.693.629 1.04 1.461 1.04 2.496 0 1.131-.667 2.363-2 3.696l-2.864 2.848h5.072V248zm106.68-9.888l-2.432 3.28c.875.16 1.579.533 2.112 1.12.533.587.8 1.312.8 2.176 0 1.099-.373 1.957-1.12 2.576-.757.629-1.664.944-2.72.944-.875 0-1.637-.197-2.288-.592a3.276 3.276 0 01-1.392-1.68l1.248-.736c.331 1.035 1.141 1.552 2.432 1.552.704 0 1.269-.181 1.696-.544.437-.373.656-.88.656-1.52s-.219-1.147-.656-1.52c-.427-.373-.992-.56-1.696-.56h-.384l-.592-.912 2.592-3.504h-4.976V236.8h6.72v1.312zm109.096 6.368h1.36v1.392h-1.36V248h-1.488v-2.128h-5.712v-1.392l4.016-7.68h1.6l-4.016 7.68h4.112v-3.168h1.488v3.168zm102.104-3.312h1.632c1.056 0 1.947.315 2.672.944.736.629 1.104 1.488 1.104 2.576 0 1.099-.373 1.957-1.12 2.576-.757.629-1.664.944-2.72.944-.875 0-1.648-.208-2.32-.624a3.32 3.32 0 01-1.376-1.776l1.264-.72c.149.533.437.944.864 1.232.427.288.949.432 1.568.432.715 0 1.285-.181 1.712-.544.437-.373.656-.88.656-1.52s-.219-1.147-.656-1.52c-.427-.373-.987-.56-1.68-.56h-3.168l.416-5.808h6.128v1.392h-4.784l-.192 2.976zm105.616-.496c1.12 0 2.043.352 2.768 1.056.725.693 1.088 1.595 1.088 2.704 0 1.109-.363 2.016-1.088 2.72-.725.704-1.648 1.056-2.768 1.056-1.141 0-2.069-.352-2.784-1.056-.715-.704-1.072-1.611-1.072-2.72 0-.875.224-1.621.672-2.24l3.6-5.392h1.696l-2.64 3.904c.32-.021.496-.032.528-.032zm0 1.424c-.715 0-1.291.213-1.728.64-.437.427-.656.992-.656 1.696s.219 1.275.656 1.712c.448.427 1.024.64 1.728.64s1.275-.213 1.712-.64c.448-.437.672-1.008.672-1.712s-.224-1.269-.672-1.696c-.437-.427-1.008-.64-1.712-.64z" fill="#fff"/><path fill="#97A7FD" d="M0 17h1v199H0zm647 0h1v199h-1z"/><path d="M0 215h648v1H0v-1zm0-33h648v1H0v-1zm0-33h648v1H0v-1zm0-33h648v1H0v-1zm0-33h648v1H0v-1zm0-33h648v1H0v-1zm0-33h648v1H0v-1z" fill="#97A7FD"/><path d="M589 34.5l-530 164V215h530V34.5z" fill="#97A7FD" fill-opacity=".46"/><path d="M55 199a4 4 0 018 0v16h-8v-16z" fill="#CAFF4D"/><path d="M44 165a3 3 0 00-3 3v14a3 3 0 003 3h11.151L59 189l3.849-4H74a3 3 0 003-3v-14a3 3 0 00-3-3H44z" fill="#FB9F88"/><path d="M47.076 171.11l2.576-.91h1.4v9.8h-1.61v-8.078l-1.974.56-.392-1.372zm12.264 7.686c-.672.924-1.614 1.386-2.828 1.386-1.203 0-2.15-.462-2.842-1.386-.672-.924-1.008-2.156-1.008-3.696s.337-2.772 1.008-3.696c.691-.924 1.639-1.386 2.843-1.386 1.213 0 2.156.462 2.828 1.386.68.915 1.021 2.147 1.021 3.696 0 1.549-.34 2.781-1.022 3.696zm-2.828-.182c.728 0 1.284-.303 1.666-.91.383-.607.575-1.475.575-2.604s-.192-1.997-.575-2.604c-.382-.607-.938-.91-1.665-.91-.72 0-1.274.303-1.666.91-.383.607-.575 1.475-.575 2.604s.192 1.997.575 2.604c.392.607.947.91 1.666.91zm8.755-7.952c.44.439.659.971.659 1.596 0 .625-.22 1.157-.659 1.596-.429.429-.97.644-1.623.644-.663 0-1.21-.215-1.639-.644a2.174 2.174 0 01-.658-1.596c0-.616.22-1.143.658-1.582.44-.439.985-.658 1.639-.658.653 0 1.194.215 1.623.644zm-1.637 2.604c.298 0 .54-.093.727-.28.187-.196.28-.439.28-.728s-.093-.532-.28-.728a.96.96 0 00-.727-.294.943.943 0 00-.715.294c-.186.196-.28.439-.28.728a1 1 0 00.28.714.972.972 0 00.715.294zm-.7 5.74l-.757-.448 6.454-7.182.757.434-6.455 7.196zm5.194 1.162c-.663 0-1.21-.215-1.638-.644a2.174 2.174 0 01-.659-1.596c0-.616.22-1.143.659-1.582.438-.439.984-.658 1.638-.658.644 0 1.185.219 1.624.658.438.439.657.966.657 1.582 0 .625-.219 1.157-.657 1.596-.43.429-.971.644-1.624.644zm-.014-1.232c.298 0 .54-.093.728-.28.186-.196.28-.439.28-.728s-.094-.532-.28-.728a.96.96 0 00-.728-.294.943.943 0 00-.715.294c-.186.196-.28.439-.28.728a1 1 0 00.28.714.972.972 0 00.715.294z" fill="#fff"/><path d="M158 166a4 4 0 018 0v49h-8v-49z" fill="#CAFF4D"/><path d="M147 134a3 3 0 00-3 3v14a3 3 0 003 3h11.151l3.849 4 3.849-4H177a3 3 0 003-3v-14a3 3 0 00-3-3h-30z" fill="#FB9F88"/><path d="M150.67 140.11l2.576-.91h1.4v9.8h-1.61v-8.078l-1.974.56-.392-1.372zm7.645 2.786h1.232c.934 0 1.722.28 2.366.84.644.551.966 1.316.966 2.296 0 .98-.331 1.75-.994 2.31-.653.56-1.465.84-2.436.84-.793 0-1.484-.182-2.072-.546a3.017 3.017 0 01-1.26-1.554l1.386-.798c.271.887.92 1.33 1.946 1.33.551 0 .99-.14 1.316-.42.336-.289.504-.677.504-1.162 0-.476-.163-.854-.49-1.134-.326-.289-.76-.434-1.302-.434h-2.856l.378-5.264h5.46v1.512h-3.976l-.168 2.184zm9.358-3.234c.438.439.658.971.658 1.596 0 .625-.22 1.157-.658 1.596-.43.429-.971.644-1.624.644-.663 0-1.209-.215-1.638-.644a2.173 2.173 0 01-.658-1.596c0-.616.219-1.143.658-1.582.438-.439.984-.658 1.638-.658.653 0 1.194.215 1.624.644zm-1.638 2.604c.298 0 .541-.093.728-.28.186-.196.28-.439.28-.728s-.094-.532-.28-.728a.961.961 0 00-.728-.294.941.941 0 00-.714.294c-.187.196-.28.439-.28.728 0 .28.093.518.28.714a.972.972 0 00.714.294zm-.7 5.74l-.756-.448 6.454-7.182.756.434-6.454 7.196zm5.194 1.162c-.663 0-1.209-.215-1.638-.644a2.173 2.173 0 01-.658-1.596c0-.616.219-1.143.658-1.582.438-.439.984-.658 1.638-.658.644 0 1.185.219 1.624.658.438.439.658.966.658 1.582 0 .625-.22 1.157-.658 1.596-.43.429-.971.644-1.624.644zm-.014-1.232c.298 0 .541-.093.728-.28.186-.196.28-.439.28-.728s-.094-.532-.28-.728a.961.961 0 00-.728-.294.941.941 0 00-.714.294c-.187.196-.28.439-.28.728 0 .28.093.518.28.714a.972.972 0 00.714.294z" fill="#fff"/><path d="M266 133a4 4 0 018 0v82h-8v-82z" fill="#CAFF4D"/><path d="M255 99a3 3 0 00-3 3v14a3 3 0 003 3h11.151l3.849 4 3.849-4H285a3 3 0 003-3v-14a3 3 0 00-3-3h-30z" fill="#FB9F88"/><path d="M263.749 114h-6.454v-1.26l3.416-3.486c.831-.831 1.246-1.549 1.246-2.156 0-.467-.14-.835-.42-1.106-.28-.271-.644-.406-1.092-.406-.821 0-1.428.406-1.82 1.218l-1.358-.798c.299-.644.728-1.134 1.288-1.47a3.507 3.507 0 011.876-.518c.868 0 1.606.271 2.212.812.616.551.924 1.288.924 2.212 0 .989-.555 2.053-1.666 3.192l-2.212 2.212h4.06V114zm7.624-1.204c-.672.924-1.615 1.386-2.828 1.386-1.204 0-2.152-.462-2.842-1.386-.672-.924-1.008-2.156-1.008-3.696s.336-2.772 1.008-3.696c.69-.924 1.638-1.386 2.842-1.386 1.213 0 2.156.462 2.828 1.386.681.915 1.022 2.147 1.022 3.696 0 1.549-.341 2.781-1.022 3.696zm-2.828-.182c.728 0 1.283-.303 1.666-.91.382-.607.574-1.475.574-2.604s-.192-1.997-.574-2.604c-.383-.607-.938-.91-1.666-.91-.719 0-1.274.303-1.666.91-.383.607-.574 1.475-.574 2.604s.191 1.997.574 2.604c.392.607.947.91 1.666.91zm8.755-7.952c.438.439.658.971.658 1.596 0 .625-.22 1.157-.658 1.596-.43.429-.971.644-1.624.644-.663 0-1.209-.215-1.638-.644a2.173 2.173 0 01-.658-1.596c0-.616.219-1.143.658-1.582.438-.439.984-.658 1.638-.658.653 0 1.194.215 1.624.644zm-1.638 2.604c.298 0 .541-.093.728-.28.186-.196.28-.439.28-.728s-.094-.532-.28-.728a.961.961 0 00-.728-.294.941.941 0 00-.714.294c-.187.196-.28.439-.28.728 0 .28.093.518.28.714a.972.972 0 00.714.294zm-.7 5.74l-.756-.448 6.454-7.182.756.434-6.454 7.196zm5.194 1.162c-.663 0-1.209-.215-1.638-.644a2.173 2.173 0 01-.658-1.596c0-.616.219-1.143.658-1.582.438-.439.984-.658 1.638-.658.644 0 1.185.219 1.624.658.438.439.658.966.658 1.582 0 .625-.22 1.157-.658 1.596-.43.429-.971.644-1.624.644zm-.014-1.232c.298 0 .541-.093.728-.28.186-.196.28-.439.28-.728s-.094-.532-.28-.728a.961.961 0 00-.728-.294.941.941 0 00-.714.294c-.187.196-.28.439-.28.728 0 .28.093.518.28.714a.972.972 0 00.714.294z" fill="#fff"/><path d="M374 100a4 4 0 018 0v115h-8V100z" fill="#CAFF4D"/><path d="M363 66a3 3 0 00-3 3v14a3 3 0 003 3h11.151L378 90l3.849-4H393a3 3 0 003-3V69a3 3 0 00-3-3h-30z" fill="#FB9F88"/><path d="M372.344 81h-6.454v-1.26l3.416-3.486c.831-.83 1.246-1.55 1.246-2.156 0-.467-.14-.835-.42-1.106-.28-.27-.644-.406-1.092-.406-.821 0-1.428.406-1.82 1.218l-1.358-.798c.299-.644.728-1.134 1.288-1.47a3.502 3.502 0 011.876-.518c.868 0 1.605.27 2.212.812.616.55.924 1.288.924 2.212 0 .99-.555 2.053-1.666 3.192l-2.212 2.212h4.06V81zm3.003-6.104h1.232c.934 0 1.722.28 2.366.84.644.55.966 1.316.966 2.296 0 .98-.331 1.75-.994 2.31-.653.56-1.465.84-2.436.84-.793 0-1.484-.182-2.072-.546a3.017 3.017 0 01-1.26-1.554l1.386-.798c.271.887.92 1.33 1.946 1.33.551 0 .99-.14 1.316-.42.336-.29.504-.677.504-1.162 0-.476-.163-.854-.49-1.134-.326-.29-.76-.434-1.302-.434h-2.856l.378-5.264h5.46v1.512h-3.976l-.168 2.184zm9.358-3.234c.439.439.658.97.658 1.596 0 .625-.219 1.157-.658 1.596-.429.43-.971.644-1.624.644-.663 0-1.209-.215-1.638-.644a2.172 2.172 0 01-.658-1.596c0-.616.219-1.143.658-1.582.439-.439.985-.658 1.638-.658.653 0 1.195.215 1.624.644zm-1.638 2.604c.299 0 .541-.093.728-.28.187-.196.28-.439.28-.728 0-.29-.093-.532-.28-.728a.96.96 0 00-.728-.294.944.944 0 00-.714.294c-.187.196-.28.439-.28.728 0 .28.093.518.28.714a.972.972 0 00.714.294zm-.7 5.74l-.756-.448 6.454-7.182.756.434-6.454 7.196zm5.194 1.162c-.663 0-1.209-.215-1.638-.644a2.172 2.172 0 01-.658-1.596c0-.616.219-1.143.658-1.582.439-.439.985-.658 1.638-.658.644 0 1.185.22 1.624.658.439.439.658.966.658 1.582 0 .625-.219 1.157-.658 1.596-.429.43-.971.644-1.624.644zm-.014-1.232c.299 0 .541-.093.728-.28.187-.196.28-.439.28-.728 0-.29-.093-.532-.28-.728a.96.96 0 00-.728-.294.944.944 0 00-.714.294c-.187.196-.28.439-.28.728 0 .28.093.518.28.714a.972.972 0 00.714.294z" fill="#fff"/><path d="M482 67a4 4 0 018 0v148h-8V67z" fill="#CAFF4D"/><path d="M471 33a3 3 0 00-3 3v14a3 3 0 003 3h11.151L486 57l3.849-4H501a3 3 0 003-3V36a3 3 0 00-3-3h-30z" fill="#FB9F88"/><path d="M479.382 39.572l-1.988 2.632c.728.168 1.306.504 1.736 1.008.438.495.658 1.101.658 1.82 0 .98-.332 1.75-.994 2.31-.654.56-1.466.84-2.436.84-.766 0-1.442-.173-2.03-.518a2.958 2.958 0 01-1.26-1.512l1.372-.798c.289.84.928 1.26 1.918 1.26.56 0 1.003-.14 1.33-.42.326-.29.49-.677.49-1.162 0-.485-.164-.868-.49-1.148-.327-.28-.77-.42-1.33-.42h-.364l-.644-.966 2.114-2.786h-4.102V38.2h6.02v1.372zm8.134 7.224c-.672.924-1.614 1.386-2.828 1.386-1.204 0-2.151-.462-2.842-1.386-.672-.924-1.008-2.156-1.008-3.696s.336-2.772 1.008-3.696c.691-.924 1.638-1.386 2.842-1.386 1.214 0 2.156.462 2.828 1.386.682.915 1.022 2.147 1.022 3.696 0 1.55-.34 2.781-1.022 3.696zm-2.828-.182c.728 0 1.284-.303 1.666-.91.383-.607.574-1.475.574-2.604 0-1.13-.191-1.997-.574-2.604-.382-.607-.938-.91-1.666-.91-.718 0-1.274.303-1.666.91-.382.607-.574 1.475-.574 2.604 0 1.13.192 1.997.574 2.604.392.607.948.91 1.666.91zm8.755-7.952c.439.439.658.97.658 1.596 0 .625-.219 1.157-.658 1.596-.429.43-.97.644-1.624.644-.662 0-1.208-.215-1.638-.644a2.176 2.176 0 01-.658-1.596c0-.616.22-1.143.658-1.582.439-.439.985-.658 1.638-.658.654 0 1.195.215 1.624.644zm-1.638 2.604c.299 0 .542-.093.728-.28.187-.196.28-.439.28-.728 0-.29-.093-.532-.28-.728-.186-.196-.429-.294-.728-.294a.944.944 0 00-.714.294c-.186.196-.28.439-.28.728a1 1 0 00.28.714.972.972 0 00.714.294zm-.7 5.74l-.756-.448 6.454-7.182.756.434-6.454 7.196zm5.194 1.162c-.662 0-1.208-.215-1.638-.644a2.176 2.176 0 01-.658-1.596c0-.616.22-1.143.658-1.582.439-.439.985-.658 1.638-.658.644 0 1.186.22 1.624.658.439.439.658.966.658 1.582 0 .625-.219 1.157-.658 1.596-.429.43-.97.644-1.624.644zm-.014-1.232c.299 0 .542-.093.728-.28.187-.196.28-.439.28-.728 0-.29-.093-.532-.28-.728-.186-.196-.429-.294-.728-.294a.944.944 0 00-.714.294c-.186.196-.28.439-.28.728a1 1 0 00.28.714.972.972 0 00.714.294z" fill="#fff"/><path d="M585 34a4 4 0 018 0v181h-8V34z" fill="#CAFF4D"/><path d="M574 0a3 3 0 00-3 3v14a3 3 0 003 3h11.151L589 24l3.849-4H604a3 3 0 003-3V3a3 3 0 00-3-3h-30z" fill="#FB9F88"/><path d="M583.045 6.572l-1.988 2.632c.728.168 1.307.504 1.736 1.008.439.495.658 1.101.658 1.82 0 .98-.331 1.75-.994 2.31-.653.56-1.465.84-2.436.84-.765 0-1.442-.173-2.03-.518a2.958 2.958 0 01-1.26-1.512l1.372-.798c.289.84.929 1.26 1.918 1.26.56 0 1.003-.14 1.33-.42.327-.29.49-.677.49-1.162 0-.485-.163-.868-.49-1.148-.327-.28-.77-.42-1.33-.42h-.364l-.644-.966 2.114-2.786h-4.102V5.2h6.02v1.372zm3.378 2.324h1.232c.933 0 1.722.28 2.366.84.644.55.966 1.316.966 2.296 0 .98-.332 1.75-.994 2.31-.654.56-1.466.84-2.436.84-.794 0-1.484-.182-2.072-.546a3.017 3.017 0 01-1.26-1.554l1.386-.798c.27.887.919 1.33 1.946 1.33.55 0 .989-.14 1.316-.42.336-.29.504-.677.504-1.162 0-.476-.164-.854-.49-1.134-.327-.29-.761-.434-1.302-.434h-2.856l.378-5.264h5.46v1.512h-3.976l-.168 2.184zm9.357-3.234c.439.439.658.97.658 1.596 0 .625-.219 1.157-.658 1.596-.429.43-.971.644-1.624.644-.663 0-1.209-.215-1.638-.644a2.172 2.172 0 01-.658-1.596c0-.616.219-1.143.658-1.582.439-.439.985-.658 1.638-.658.653 0 1.195.215 1.624.644zm-1.638 2.604c.299 0 .541-.093.728-.28.187-.196.28-.439.28-.728 0-.29-.093-.532-.28-.728a.96.96 0 00-.728-.294.944.944 0 00-.714.294c-.187.196-.28.439-.28.728 0 .28.093.518.28.714a.972.972 0 00.714.294zm-.7 5.74l-.756-.448 6.454-7.182.756.434-6.454 7.196zm5.194 1.162c-.663 0-1.209-.215-1.638-.644a2.172 2.172 0 01-.658-1.596c0-.616.219-1.143.658-1.582.439-.439.985-.658 1.638-.658.644 0 1.185.22 1.624.658.439.439.658.966.658 1.582 0 .625-.219 1.157-.658 1.596-.429.43-.971.644-1.624.644zm-.014-1.232c.299 0 .541-.093.728-.28.187-.196.28-.439.28-.728 0-.29-.093-.532-.28-.728a.96.96 0 00-.728-.294.944.944 0 00-.714.294c-.187.196-.28.439-.28.728 0 .28.093.518.28.714a.972.972 0 00.714.294z" fill="#fff"/></svg>