<svg width="648" height="249" viewBox="0 0 648 249" fill="none" xmlns="http://www.w3.org/2000/svg">
<path d="M55.224 237.824L58.168 236.8H59.448V248H57.976V238.4L55.592 239.104L55.224 237.824Z" fill="white"/>
<path d="M165.808 248H158.576V246.784L162.528 242.752C163.584 241.696 164.112 240.789 164.112 240.032C164.112 239.413 163.92 238.928 163.536 238.576C163.163 238.213 162.693 238.032 162.128 238.032C161.072 238.032 160.304 238.533 159.824 239.536L158.576 238.8C158.917 238.085 159.397 237.541 160.016 237.168C160.635 236.784 161.333 236.592 162.112 236.592C163.061 236.592 163.877 236.901 164.56 237.52C165.253 238.149 165.6 238.981 165.6 240.016C165.6 241.147 164.933 242.379 163.6 243.712L160.736 246.56H165.808V248Z" fill="white"/>
<path d="M272.488 238.112L270.056 241.392C270.931 241.552 271.635 241.925 272.168 242.512C272.701 243.099 272.968 243.824 272.968 244.688C272.968 245.787 272.595 246.645 271.848 247.264C271.091 247.893 270.184 248.208 269.128 248.208C268.253 248.208 267.491 248.011 266.84 247.616C266.189 247.221 265.725 246.661 265.448 245.936L266.696 245.2C267.027 246.235 267.837 246.752 269.128 246.752C269.832 246.752 270.397 246.571 270.824 246.208C271.261 245.835 271.48 245.328 271.48 244.688C271.48 244.048 271.261 243.541 270.824 243.168C270.397 242.795 269.832 242.608 269.128 242.608H268.744L268.152 241.696L270.744 238.192H265.768V236.8H272.488V238.112Z" fill="white"/>
<path d="M381.584 244.48H382.944V245.872H381.584V248H380.096V245.872H374.384V244.48L378.4 236.8H380L375.984 244.48H380.096V241.312H381.584V244.48Z" fill="white"/>
<path d="M483.688 241.168H485.32C486.376 241.168 487.267 241.483 487.992 242.112C488.728 242.741 489.096 243.6 489.096 244.688C489.096 245.787 488.723 246.645 487.976 247.264C487.219 247.893 486.312 248.208 485.256 248.208C484.381 248.208 483.608 248 482.936 247.584C482.275 247.157 481.816 246.565 481.56 245.808L482.824 245.088C482.973 245.621 483.261 246.032 483.688 246.32C484.115 246.608 484.637 246.752 485.256 246.752C485.971 246.752 486.541 246.571 486.968 246.208C487.405 245.835 487.624 245.328 487.624 244.688C487.624 244.048 487.405 243.541 486.968 243.168C486.541 242.795 485.981 242.608 485.288 242.608H482.12L482.536 236.8H488.664V238.192H483.88L483.688 241.168Z" fill="white"/>
<path d="M589.304 240.672C590.424 240.672 591.347 241.024 592.072 241.728C592.797 242.421 593.16 243.323 593.16 244.432C593.16 245.541 592.797 246.448 592.072 247.152C591.347 247.856 590.424 248.208 589.304 248.208C588.163 248.208 587.235 247.856 586.52 247.152C585.805 246.448 585.448 245.541 585.448 244.432C585.448 243.557 585.672 242.811 586.12 242.192L589.72 236.8H591.416L588.776 240.704C589.096 240.683 589.272 240.672 589.304 240.672ZM589.304 242.096C588.589 242.096 588.013 242.309 587.576 242.736C587.139 243.163 586.92 243.728 586.92 244.432C586.92 245.136 587.139 245.707 587.576 246.144C588.024 246.571 588.6 246.784 589.304 246.784C590.008 246.784 590.579 246.571 591.016 246.144C591.464 245.707 591.688 245.136 591.688 244.432C591.688 243.728 591.464 243.163 591.016 242.736C590.579 242.309 590.008 242.096 589.304 242.096Z" fill="white"/>
<rect y="17" width="1" height="199" fill="#97A7FD"/>
<rect x="647" y="17" width="1" height="199" fill="#97A7FD"/>
<path d="M0 215H648V216H0V215Z" fill="#97A7FD"/>
<path d="M0 182H648V183H0V182Z" fill="#97A7FD"/>
<path d="M0 149H648V150H0V149Z" fill="#97A7FD"/>
<path d="M0 116H648V117H0V116Z" fill="#97A7FD"/>
<path d="M0 83H648V84H0V83Z" fill="#97A7FD"/>
<path d="M0 50H648V51H0V50Z" fill="#97A7FD"/>
<path d="M0 17H648V18H0V17Z" fill="#97A7FD"/>
<path d="M589 34.5L59 198.5V215H589V34.5Z" fill="#97A7FD" fill-opacity="0.46"/>
<path d="M55 199C55 196.791 56.7909 195 59 195C61.2091 195 63 196.791 63 199V215H55V199Z" fill="#CAFF4D"/>
<path d="M44 165C42.3431 165 41 166.343 41 168V182C41 183.657 42.3431 185 44 185H55.151L59 189L62.849 185H74C75.6569 185 77 183.657 77 182V168C77 166.343 75.6569 165 74 165H44Z" fill="#FB9F88"/>
<path d="M47.0756 171.11L49.6516 170.2H51.0516V180H49.4416V171.922L47.4676 172.482L47.0756 171.11ZM59.3405 178.796C58.6685 179.72 57.7259 180.182 56.5125 180.182C55.3085 180.182 54.3612 179.72 53.6705 178.796C52.9985 177.872 52.6625 176.64 52.6625 175.1C52.6625 173.56 52.9985 172.328 53.6705 171.404C54.3612 170.48 55.3085 170.018 56.5125 170.018C57.7259 170.018 58.6685 170.48 59.3405 171.404C60.0219 172.319 60.3625 173.551 60.3625 175.1C60.3625 176.649 60.0219 177.881 59.3405 178.796ZM56.5125 178.614C57.2405 178.614 57.7959 178.311 58.1785 177.704C58.5612 177.097 58.7525 176.229 58.7525 175.1C58.7525 173.971 58.5612 173.103 58.1785 172.496C57.7959 171.889 57.2405 171.586 56.5125 171.586C55.7939 171.586 55.2385 171.889 54.8465 172.496C54.4639 173.103 54.2725 173.971 54.2725 175.1C54.2725 176.229 54.4639 177.097 54.8465 177.704C55.2385 178.311 55.7939 178.614 56.5125 178.614ZM65.2675 170.662C65.7061 171.101 65.9255 171.633 65.9255 172.258C65.9255 172.883 65.7061 173.415 65.2675 173.854C64.8381 174.283 64.2968 174.498 63.6435 174.498C62.9808 174.498 62.4348 174.283 62.0055 173.854C61.5668 173.415 61.3475 172.883 61.3475 172.258C61.3475 171.642 61.5668 171.115 62.0055 170.676C62.4441 170.237 62.9901 170.018 63.6435 170.018C64.2968 170.018 64.8381 170.233 65.2675 170.662ZM63.6295 173.266C63.9281 173.266 64.1708 173.173 64.3575 172.986C64.5441 172.79 64.6375 172.547 64.6375 172.258C64.6375 171.969 64.5441 171.726 64.3575 171.53C64.1708 171.334 63.9281 171.236 63.6295 171.236C63.3401 171.236 63.1021 171.334 62.9155 171.53C62.7288 171.726 62.6355 171.969 62.6355 172.258C62.6355 172.538 62.7288 172.776 62.9155 172.972C63.1115 173.168 63.3495 173.266 63.6295 173.266ZM62.9295 179.006L62.1735 178.558L68.6275 171.376L69.3835 171.81L62.9295 179.006ZM68.1235 180.168C67.4608 180.168 66.9148 179.953 66.4855 179.524C66.0468 179.085 65.8275 178.553 65.8275 177.928C65.8275 177.312 66.0468 176.785 66.4855 176.346C66.9241 175.907 67.4701 175.688 68.1235 175.688C68.7675 175.688 69.3088 175.907 69.7475 176.346C70.1861 176.785 70.4055 177.312 70.4055 177.928C70.4055 178.553 70.1861 179.085 69.7475 179.524C69.3181 179.953 68.7768 180.168 68.1235 180.168ZM68.1095 178.936C68.4081 178.936 68.6508 178.843 68.8375 178.656C69.0241 178.46 69.1175 178.217 69.1175 177.928C69.1175 177.639 69.0241 177.396 68.8375 177.2C68.6508 177.004 68.4081 176.906 68.1095 176.906C67.8201 176.906 67.5821 177.004 67.3955 177.2C67.2088 177.396 67.1155 177.639 67.1155 177.928C67.1155 178.208 67.2088 178.446 67.3955 178.642C67.5915 178.838 67.8295 178.936 68.1095 178.936Z" fill="white"/>
<path d="M158 166C158 163.791 159.791 162 162 162C164.209 162 166 163.791 166 166V215H158V166Z" fill="#CAFF4D"/>
<path d="M147 134C145.343 134 144 135.343 144 137V151C144 152.657 145.343 154 147 154H158.151L162 158L165.849 154H177C178.657 154 180 152.657 180 151V137C180 135.343 178.657 134 177 134H147Z" fill="#FB9F88"/>
<path d="M150.67 140.11L153.246 139.2H154.646V149H153.036V140.922L151.062 141.482L150.67 140.11ZM158.315 142.896H159.547C160.481 142.896 161.269 143.176 161.913 143.736C162.557 144.287 162.879 145.052 162.879 146.032C162.879 147.012 162.548 147.782 161.885 148.342C161.232 148.902 160.42 149.182 159.449 149.182C158.656 149.182 157.965 149 157.377 148.636C156.789 148.272 156.369 147.754 156.117 147.082L157.503 146.284C157.774 147.171 158.423 147.614 159.449 147.614C160 147.614 160.439 147.474 160.765 147.194C161.101 146.905 161.269 146.517 161.269 146.032C161.269 145.556 161.106 145.178 160.779 144.898C160.453 144.609 160.019 144.464 159.477 144.464H156.621L156.999 139.2H162.459V140.712H158.483L158.315 142.896ZM167.673 139.662C168.111 140.101 168.331 140.633 168.331 141.258C168.331 141.883 168.111 142.415 167.673 142.854C167.243 143.283 166.702 143.498 166.049 143.498C165.386 143.498 164.84 143.283 164.411 142.854C163.972 142.415 163.753 141.883 163.753 141.258C163.753 140.642 163.972 140.115 164.411 139.676C164.849 139.237 165.395 139.018 166.049 139.018C166.702 139.018 167.243 139.233 167.673 139.662ZM166.035 142.266C166.333 142.266 166.576 142.173 166.763 141.986C166.949 141.79 167.043 141.547 167.043 141.258C167.043 140.969 166.949 140.726 166.763 140.53C166.576 140.334 166.333 140.236 166.035 140.236C165.745 140.236 165.507 140.334 165.321 140.53C165.134 140.726 165.041 140.969 165.041 141.258C165.041 141.538 165.134 141.776 165.321 141.972C165.517 142.168 165.755 142.266 166.035 142.266ZM165.335 148.006L164.579 147.558L171.033 140.376L171.789 140.81L165.335 148.006ZM170.529 149.168C169.866 149.168 169.32 148.953 168.891 148.524C168.452 148.085 168.233 147.553 168.233 146.928C168.233 146.312 168.452 145.785 168.891 145.346C169.329 144.907 169.875 144.688 170.529 144.688C171.173 144.688 171.714 144.907 172.153 145.346C172.591 145.785 172.811 146.312 172.811 146.928C172.811 147.553 172.591 148.085 172.153 148.524C171.723 148.953 171.182 149.168 170.529 149.168ZM170.515 147.936C170.813 147.936 171.056 147.843 171.243 147.656C171.429 147.46 171.523 147.217 171.523 146.928C171.523 146.639 171.429 146.396 171.243 146.2C171.056 146.004 170.813 145.906 170.515 145.906C170.225 145.906 169.987 146.004 169.801 146.2C169.614 146.396 169.521 146.639 169.521 146.928C169.521 147.208 169.614 147.446 169.801 147.642C169.997 147.838 170.235 147.936 170.515 147.936Z" fill="white"/>
<path d="M266 133C266 130.791 267.791 129 270 129C272.209 129 274 130.791 274 133V215H266V133Z" fill="#CAFF4D"/>
<path d="M255 99C253.343 99 252 100.343 252 102V116C252 117.657 253.343 119 255 119H266.151L270 123L273.849 119H285C286.657 119 288 117.657 288 116V102C288 100.343 286.657 99 285 99H255Z" fill="#FB9F88"/>
<path d="M263.749 114H257.295V112.74L260.711 109.254C261.542 108.423 261.957 107.705 261.957 107.098C261.957 106.631 261.817 106.263 261.537 105.992C261.257 105.721 260.893 105.586 260.445 105.586C259.624 105.586 259.017 105.992 258.625 106.804L257.267 106.006C257.566 105.362 257.995 104.872 258.555 104.536C259.115 104.191 259.741 104.018 260.431 104.018C261.299 104.018 262.037 104.289 262.643 104.83C263.259 105.381 263.567 106.118 263.567 107.042C263.567 108.031 263.012 109.095 261.901 110.234L259.689 112.446H263.749V114ZM271.373 112.796C270.701 113.72 269.758 114.182 268.545 114.182C267.341 114.182 266.393 113.72 265.703 112.796C265.031 111.872 264.695 110.64 264.695 109.1C264.695 107.56 265.031 106.328 265.703 105.404C266.393 104.48 267.341 104.018 268.545 104.018C269.758 104.018 270.701 104.48 271.373 105.404C272.054 106.319 272.395 107.551 272.395 109.1C272.395 110.649 272.054 111.881 271.373 112.796ZM268.545 112.614C269.273 112.614 269.828 112.311 270.211 111.704C270.593 111.097 270.785 110.229 270.785 109.1C270.785 107.971 270.593 107.103 270.211 106.496C269.828 105.889 269.273 105.586 268.545 105.586C267.826 105.586 267.271 105.889 266.879 106.496C266.496 107.103 266.305 107.971 266.305 109.1C266.305 110.229 266.496 111.097 266.879 111.704C267.271 112.311 267.826 112.614 268.545 112.614ZM277.3 104.662C277.738 105.101 277.958 105.633 277.958 106.258C277.958 106.883 277.738 107.415 277.3 107.854C276.87 108.283 276.329 108.498 275.676 108.498C275.013 108.498 274.467 108.283 274.038 107.854C273.599 107.415 273.38 106.883 273.38 106.258C273.38 105.642 273.599 105.115 274.038 104.676C274.476 104.237 275.022 104.018 275.676 104.018C276.329 104.018 276.87 104.233 277.3 104.662ZM275.662 107.266C275.96 107.266 276.203 107.173 276.39 106.986C276.576 106.79 276.67 106.547 276.67 106.258C276.67 105.969 276.576 105.726 276.39 105.53C276.203 105.334 275.96 105.236 275.662 105.236C275.372 105.236 275.134 105.334 274.948 105.53C274.761 105.726 274.668 105.969 274.668 106.258C274.668 106.538 274.761 106.776 274.948 106.972C275.144 107.168 275.382 107.266 275.662 107.266ZM274.962 113.006L274.206 112.558L280.66 105.376L281.416 105.81L274.962 113.006ZM280.156 114.168C279.493 114.168 278.947 113.953 278.518 113.524C278.079 113.085 277.86 112.553 277.86 111.928C277.86 111.312 278.079 110.785 278.518 110.346C278.956 109.907 279.502 109.688 280.156 109.688C280.8 109.688 281.341 109.907 281.78 110.346C282.218 110.785 282.438 111.312 282.438 111.928C282.438 112.553 282.218 113.085 281.78 113.524C281.35 113.953 280.809 114.168 280.156 114.168ZM280.142 112.936C280.44 112.936 280.683 112.843 280.87 112.656C281.056 112.46 281.15 112.217 281.15 111.928C281.15 111.639 281.056 111.396 280.87 111.2C280.683 111.004 280.44 110.906 280.142 110.906C279.852 110.906 279.614 111.004 279.428 111.2C279.241 111.396 279.148 111.639 279.148 111.928C279.148 112.208 279.241 112.446 279.428 112.642C279.624 112.838 279.862 112.936 280.142 112.936Z" fill="white"/>
<path d="M374 100C374 97.7909 375.791 96 378 96C380.209 96 382 97.7909 382 100V215H374V100Z" fill="#CAFF4D"/>
<path d="M363 66C361.343 66 360 67.3431 360 69V83C360 84.6569 361.343 86 363 86H374.151L378 90L381.849 86H393C394.657 86 396 84.6569 396 83V69C396 67.3431 394.657 66 393 66H363Z" fill="#FB9F88"/>
<path d="M372.344 81H365.89V79.74L369.306 76.254C370.137 75.4233 370.552 74.7047 370.552 74.098C370.552 73.6313 370.412 73.2627 370.132 72.992C369.852 72.7213 369.488 72.586 369.04 72.586C368.219 72.586 367.612 72.992 367.22 73.804L365.862 73.006C366.161 72.362 366.59 71.872 367.15 71.536C367.71 71.1907 368.335 71.018 369.026 71.018C369.894 71.018 370.631 71.2887 371.238 71.83C371.854 72.3807 372.162 73.118 372.162 74.042C372.162 75.0313 371.607 76.0953 370.496 77.234L368.284 79.446H372.344V81ZM375.347 74.896H376.579C377.513 74.896 378.301 75.176 378.945 75.736C379.589 76.2867 379.911 77.052 379.911 78.032C379.911 79.012 379.58 79.782 378.917 80.342C378.264 80.902 377.452 81.182 376.481 81.182C375.688 81.182 374.997 81 374.409 80.636C373.821 80.272 373.401 79.754 373.149 79.082L374.535 78.284C374.806 79.1707 375.455 79.614 376.481 79.614C377.032 79.614 377.471 79.474 377.797 79.194C378.133 78.9047 378.301 78.5173 378.301 78.032C378.301 77.556 378.138 77.178 377.811 76.898C377.485 76.6087 377.051 76.464 376.509 76.464H373.653L374.031 71.2H379.491V72.712H375.515L375.347 74.896ZM384.705 71.662C385.144 72.1007 385.363 72.6327 385.363 73.258C385.363 73.8833 385.144 74.4153 384.705 74.854C384.276 75.2833 383.734 75.498 383.081 75.498C382.418 75.498 381.872 75.2833 381.443 74.854C381.004 74.4153 380.785 73.8833 380.785 73.258C380.785 72.642 381.004 72.1147 381.443 71.676C381.882 71.2373 382.428 71.018 383.081 71.018C383.734 71.018 384.276 71.2327 384.705 71.662ZM383.067 74.266C383.366 74.266 383.608 74.1727 383.795 73.986C383.982 73.79 384.075 73.5473 384.075 73.258C384.075 72.9687 383.982 72.726 383.795 72.53C383.608 72.334 383.366 72.236 383.067 72.236C382.778 72.236 382.54 72.334 382.353 72.53C382.166 72.726 382.073 72.9687 382.073 73.258C382.073 73.538 382.166 73.776 382.353 73.972C382.549 74.168 382.787 74.266 383.067 74.266ZM382.367 80.006L381.611 79.558L388.065 72.376L388.821 72.81L382.367 80.006ZM387.561 81.168C386.898 81.168 386.352 80.9533 385.923 80.524C385.484 80.0853 385.265 79.5533 385.265 78.928C385.265 78.312 385.484 77.7847 385.923 77.346C386.362 76.9073 386.908 76.688 387.561 76.688C388.205 76.688 388.746 76.9073 389.185 77.346C389.624 77.7847 389.843 78.312 389.843 78.928C389.843 79.5533 389.624 80.0853 389.185 80.524C388.756 80.9533 388.214 81.168 387.561 81.168ZM387.547 79.936C387.846 79.936 388.088 79.8427 388.275 79.656C388.462 79.46 388.555 79.2173 388.555 78.928C388.555 78.6387 388.462 78.396 388.275 78.2C388.088 78.004 387.846 77.906 387.547 77.906C387.258 77.906 387.02 78.004 386.833 78.2C386.646 78.396 386.553 78.6387 386.553 78.928C386.553 79.208 386.646 79.446 386.833 79.642C387.029 79.838 387.267 79.936 387.547 79.936Z" fill="white"/>
<path d="M482 67C482 64.7909 483.791 63 486 63C488.209 63 490 64.7909 490 67V215H482V67Z" fill="#CAFF4D"/>
<path d="M471 33C469.343 33 468 34.3431 468 36V50C468 51.6569 469.343 53 471 53H482.151L486 57L489.849 53H501C502.657 53 504 51.6569 504 50V36C504 34.3431 502.657 33 501 33H471Z" fill="#FB9F88"/>
<path d="M479.382 39.572L477.394 42.204C478.122 42.372 478.7 42.708 479.13 43.212C479.568 43.7067 479.788 44.3133 479.788 45.032C479.788 46.012 479.456 46.782 478.794 47.342C478.14 47.902 477.328 48.182 476.358 48.182C475.592 48.182 474.916 48.0093 474.328 47.664C473.74 47.3093 473.32 46.8053 473.068 46.152L474.44 45.354C474.729 46.194 475.368 46.614 476.358 46.614C476.918 46.614 477.361 46.474 477.688 46.194C478.014 45.9047 478.178 45.5173 478.178 45.032C478.178 44.5467 478.014 44.164 477.688 43.884C477.361 43.604 476.918 43.464 476.358 43.464H475.994L475.35 42.498L477.464 39.712H473.362V38.2H479.382V39.572ZM487.516 46.796C486.844 47.72 485.902 48.182 484.688 48.182C483.484 48.182 482.537 47.72 481.846 46.796C481.174 45.872 480.838 44.64 480.838 43.1C480.838 41.56 481.174 40.328 481.846 39.404C482.537 38.48 483.484 38.018 484.688 38.018C485.902 38.018 486.844 38.48 487.516 39.404C488.198 40.3187 488.538 41.5507 488.538 43.1C488.538 44.6493 488.198 45.8813 487.516 46.796ZM484.688 46.614C485.416 46.614 485.972 46.3107 486.354 45.704C486.737 45.0973 486.928 44.2293 486.928 43.1C486.928 41.9707 486.737 41.1027 486.354 40.496C485.972 39.8893 485.416 39.586 484.688 39.586C483.97 39.586 483.414 39.8893 483.022 40.496C482.64 41.1027 482.448 41.9707 482.448 43.1C482.448 44.2293 482.64 45.0973 483.022 45.704C483.414 46.3107 483.97 46.614 484.688 46.614ZM493.443 38.662C493.882 39.1007 494.101 39.6327 494.101 40.258C494.101 40.8833 493.882 41.4153 493.443 41.854C493.014 42.2833 492.473 42.498 491.819 42.498C491.157 42.498 490.611 42.2833 490.181 41.854C489.743 41.4153 489.523 40.8833 489.523 40.258C489.523 39.642 489.743 39.1147 490.181 38.676C490.62 38.2373 491.166 38.018 491.819 38.018C492.473 38.018 493.014 38.2327 493.443 38.662ZM491.805 41.266C492.104 41.266 492.347 41.1727 492.533 40.986C492.72 40.79 492.813 40.5473 492.813 40.258C492.813 39.9687 492.72 39.726 492.533 39.53C492.347 39.334 492.104 39.236 491.805 39.236C491.516 39.236 491.278 39.334 491.091 39.53C490.905 39.726 490.811 39.9687 490.811 40.258C490.811 40.538 490.905 40.776 491.091 40.972C491.287 41.168 491.525 41.266 491.805 41.266ZM491.105 47.006L490.349 46.558L496.803 39.376L497.559 39.81L491.105 47.006ZM496.299 48.168C495.637 48.168 495.091 47.9533 494.661 47.524C494.223 47.0853 494.003 46.5533 494.003 45.928C494.003 45.312 494.223 44.7847 494.661 44.346C495.1 43.9073 495.646 43.688 496.299 43.688C496.943 43.688 497.485 43.9073 497.923 44.346C498.362 44.7847 498.581 45.312 498.581 45.928C498.581 46.5533 498.362 47.0853 497.923 47.524C497.494 47.9533 496.953 48.168 496.299 48.168ZM496.285 46.936C496.584 46.936 496.827 46.8427 497.013 46.656C497.2 46.46 497.293 46.2173 497.293 45.928C497.293 45.6387 497.2 45.396 497.013 45.2C496.827 45.004 496.584 44.906 496.285 44.906C495.996 44.906 495.758 45.004 495.571 45.2C495.385 45.396 495.291 45.6387 495.291 45.928C495.291 46.208 495.385 46.446 495.571 46.642C495.767 46.838 496.005 46.936 496.285 46.936Z" fill="white"/>
<path d="M585 34C585 31.7909 586.791 30 589 30C591.209 30 593 31.7909 593 34V215H585V34Z" fill="#CAFF4D"/>
<path d="M574 0C572.343 0 571 1.34314 571 3V17C571 18.6569 572.343 20 574 20H585.151L589 24L592.849 20H604C605.657 20 607 18.6569 607 17V3C607 1.34314 605.657 0 604 0H574Z" fill="#FB9F88"/>
<path d="M583.045 6.572L581.057 9.204C581.785 9.372 582.364 9.708 582.793 10.212C583.232 10.7067 583.451 11.3133 583.451 12.032C583.451 13.012 583.12 13.782 582.457 14.342C581.804 14.902 580.992 15.182 580.021 15.182C579.256 15.182 578.579 15.0093 577.991 14.664C577.403 14.3093 576.983 13.8053 576.731 13.152L578.103 12.354C578.392 13.194 579.032 13.614 580.021 13.614C580.581 13.614 581.024 13.474 581.351 13.194C581.678 12.9047 581.841 12.5173 581.841 12.032C581.841 11.5467 581.678 11.164 581.351 10.884C581.024 10.604 580.581 10.464 580.021 10.464H579.657L579.013 9.498L581.127 6.712H577.025V5.2H583.045V6.572ZM586.423 8.896H587.655C588.588 8.896 589.377 9.176 590.021 9.736C590.665 10.2867 590.987 11.052 590.987 12.032C590.987 13.012 590.655 13.782 589.993 14.342C589.339 14.902 588.527 15.182 587.557 15.182C586.763 15.182 586.073 15 585.485 14.636C584.897 14.272 584.477 13.754 584.225 13.082L585.611 12.284C585.881 13.1707 586.53 13.614 587.557 13.614C588.107 13.614 588.546 13.474 588.873 13.194C589.209 12.9047 589.377 12.5173 589.377 12.032C589.377 11.556 589.213 11.178 588.887 10.898C588.56 10.6087 588.126 10.464 587.585 10.464H584.729L585.107 5.2H590.567V6.712H586.591L586.423 8.896ZM595.78 5.662C596.219 6.10067 596.438 6.63267 596.438 7.258C596.438 7.88333 596.219 8.41533 595.78 8.854C595.351 9.28333 594.809 9.498 594.156 9.498C593.493 9.498 592.947 9.28333 592.518 8.854C592.079 8.41533 591.86 7.88333 591.86 7.258C591.86 6.642 592.079 6.11467 592.518 5.676C592.957 5.23733 593.503 5.018 594.156 5.018C594.809 5.018 595.351 5.23267 595.78 5.662ZM594.142 8.266C594.441 8.266 594.683 8.17267 594.87 7.986C595.057 7.79 595.15 7.54733 595.15 7.258C595.15 6.96867 595.057 6.726 594.87 6.53C594.683 6.334 594.441 6.236 594.142 6.236C593.853 6.236 593.615 6.334 593.428 6.53C593.241 6.726 593.148 6.96867 593.148 7.258C593.148 7.538 593.241 7.776 593.428 7.972C593.624 8.168 593.862 8.266 594.142 8.266ZM593.442 14.006L592.686 13.558L599.14 6.376L599.896 6.81L593.442 14.006ZM598.636 15.168C597.973 15.168 597.427 14.9533 596.998 14.524C596.559 14.0853 596.34 13.5533 596.34 12.928C596.34 12.312 596.559 11.7847 596.998 11.346C597.437 10.9073 597.983 10.688 598.636 10.688C599.28 10.688 599.821 10.9073 600.26 11.346C600.699 11.7847 600.918 12.312 600.918 12.928C600.918 13.5533 600.699 14.0853 600.26 14.524C599.831 14.9533 599.289 15.168 598.636 15.168ZM598.622 13.936C598.921 13.936 599.163 13.8427 599.35 13.656C599.537 13.46 599.63 13.2173 599.63 12.928C599.63 12.6387 599.537 12.396 599.35 12.2C599.163 12.004 598.921 11.906 598.622 11.906C598.333 11.906 598.095 12.004 597.908 12.2C597.721 12.396 597.628 12.6387 597.628 12.928C597.628 13.208 597.721 13.446 597.908 13.642C598.104 13.838 598.342 13.936 598.622 13.936Z" fill="white"/>
</svg>
