<svg width="306" height="243" fill="none" xmlns="http://www.w3.org/2000/svg"><path d="M3.387 170.096l2.576-.896h1.12v9.8H5.795v-8.4l-2.086.616-.322-1.12zm11.99 7.7c-.653.924-1.581 1.386-2.785 1.386-1.204 0-2.133-.462-2.786-1.386-.663-.933-.994-2.165-.994-3.696 0-1.531.331-2.763.994-3.696.653-.924 1.582-1.386 2.786-1.386s2.132.462 2.786 1.386c.662.933.994 2.165.994 3.696 0 1.531-.332 2.763-.994 3.696zm-5.263-3.696c0 1.213.214 2.151.644 2.814.429.663 1.04.994 1.834.994.793 0 1.404-.331 1.834-.994.438-.663.658-1.601.658-2.814s-.22-2.151-.658-2.814c-.43-.672-1.041-1.008-1.834-1.008-.794 0-1.405.331-1.834.994-.43.663-.644 1.605-.644 2.828zm5.264 36.696c-.654.924-1.582 1.386-2.786 1.386s-2.133-.462-2.786-1.386c-.663-.933-.994-2.165-.994-3.696 0-1.531.331-2.763.994-3.696.653-.924 1.582-1.386 2.786-1.386s2.132.462 2.786 1.386c.662.933.994 2.165.994 3.696 0 1.531-.332 2.763-.994 3.696zm-5.264-3.696c0 1.213.214 2.151.644 2.814.429.663 1.04.994 1.834.994.793 0 1.404-.331 1.834-.994.438-.663.658-1.601.658-2.814s-.22-2.151-.658-2.814c-.43-.672-1.041-1.008-1.834-1.008-.794 0-1.405.331-1.834.994-.43.663-.644 1.605-.644 2.828zm33.082 25.996l2.576-.896h1.12v9.8h-1.288v-8.4l-2.086.616-.322-1.12zM93.322 242h-6.328v-1.064l3.458-3.528c.924-.924 1.386-1.717 1.386-2.38 0-.541-.168-.966-.504-1.274-.326-.317-.737-.476-1.232-.476-.924 0-1.596.439-2.016 1.316l-1.092-.644c.299-.625.719-1.101 1.26-1.428a3.406 3.406 0 011.834-.504c.83 0 1.545.271 2.142.812.607.551.91 1.279.91 2.184 0 .989-.583 2.067-1.75 3.234l-2.506 2.492h4.438V242zm45.603-8.652l-2.128 2.87c.765.14 1.381.467 1.848.98.467.513.7 1.148.7 1.904 0 .961-.327 1.713-.98 2.254-.663.551-1.456.826-2.38.826-.765 0-1.433-.173-2.002-.518a2.868 2.868 0 01-1.218-1.47l1.092-.644c.289.905.999 1.358 2.128 1.358.616 0 1.111-.159 1.484-.476.383-.327.574-.77.574-1.33s-.191-1.003-.574-1.33c-.373-.327-.868-.49-1.484-.49h-.336l-.518-.798 2.268-3.066h-4.354V232.2h5.88v1.148zm46.076 5.572h1.19v1.218h-1.19V242h-1.302v-1.862h-4.998v-1.218l3.514-6.72h1.4l-3.514 6.72h3.598v-2.772h1.302v2.772zm42.337-2.898h1.428c.924 0 1.704.275 2.338.826.644.551.966 1.302.966 2.254 0 .961-.326 1.713-.98 2.254-.662.551-1.456.826-2.38.826-.765 0-1.442-.182-2.03-.546a2.902 2.902 0 01-1.204-1.554l1.106-.63c.131.467.383.826.756 1.078.374.252.831.378 1.372.378.626 0 1.125-.159 1.498-.476.383-.327.574-.77.574-1.33s-.191-1.003-.574-1.33c-.373-.327-.863-.49-1.47-.49h-2.772l.364-5.082h5.362v1.218h-4.186l-.168 2.604zm47.516-.434c.98 0 1.787.308 2.422.924.635.607.952 1.395.952 2.366 0 .971-.317 1.764-.952 2.38-.635.616-1.442.924-2.422.924-.999 0-1.811-.308-2.436-.924-.625-.616-.938-1.409-.938-2.38 0-.765.196-1.419.588-1.96l3.15-4.718h1.484l-2.31 3.416c.28-.019.434-.028.462-.028zm0 1.246c-.625 0-1.129.187-1.512.56-.383.373-.574.868-.574 1.484s.191 1.115.574 1.498c.392.373.896.56 1.512.56s1.115-.187 1.498-.56c.392-.383.588-.882.588-1.498s-.196-1.111-.588-1.484c-.383-.373-.882-.56-1.498-.56zM4.604 137.096l2.576-.896H8.3v9.8H7.012v-8.4l-2.086.616-.322-1.12zm7.146 2.926h1.428c.924 0 1.704.275 2.338.826.644.551.966 1.302.966 2.254 0 .961-.326 1.713-.98 2.254-.662.551-1.456.826-2.38.826-.765 0-1.442-.182-2.03-.546a2.899 2.899 0 01-1.204-1.554l1.106-.63c.131.467.383.826.756 1.078.374.252.831.378 1.372.378.626 0 1.125-.159 1.498-.476.383-.327.574-.77.574-1.33s-.19-1.003-.574-1.33c-.373-.327-.863-.49-1.47-.49h-2.772l.364-5.082h5.362v1.218h-4.186l-.168 2.604zM7.768 113H1.44v-1.064l3.458-3.528c.924-.924 1.386-1.717 1.386-2.38 0-.541-.168-.966-.504-1.274-.327-.317-.738-.476-1.232-.476-.924 0-1.596.439-2.016 1.316l-1.092-.644c.298-.625.718-1.101 1.26-1.428a3.406 3.406 0 011.834-.504c.83 0 1.544.271 2.142.812.606.551.91 1.279.91 2.184 0 .989-.584 2.067-1.75 3.234L3.33 111.74h4.438V113zm7.61-1.204c-.654.924-1.582 1.386-2.786 1.386s-2.133-.462-2.786-1.386c-.663-.933-.994-2.165-.994-3.696 0-1.531.331-2.763.994-3.696.653-.924 1.582-1.386 2.786-1.386s2.132.462 2.786 1.386c.662.933.994 2.165.994 3.696 0 1.531-.332 2.763-.994 3.696zm-5.264-3.696c0 1.213.214 2.151.644 2.814.429.663 1.04.994 1.834.994.793 0 1.404-.331 1.834-.994.438-.663.658-1.601.658-2.814s-.22-2.151-.658-2.814c-.43-.672-1.041-1.008-1.834-1.008-.794 0-1.405.331-1.834.994-.43.663-.644 1.605-.644 2.828zM8.957 80H2.629v-1.064l3.458-3.528c.924-.924 1.386-1.717 1.386-2.38 0-.541-.168-.966-.504-1.274-.327-.317-.737-.476-1.232-.476-.924 0-1.596.439-2.016 1.316l-1.092-.644c.299-.625.719-1.101 1.26-1.428a3.406 3.406 0 011.834-.504c.83 0 1.545.27 2.142.812.607.55.91 1.279.91 2.184 0 .99-.583 2.067-1.75 3.234L4.519 78.74h4.438V80zm2.793-5.978h1.428c.924 0 1.704.275 2.338.826.644.55.966 1.302.966 2.254 0 .961-.326 1.713-.98 2.254-.662.55-1.456.826-2.38.826-.765 0-1.442-.182-2.03-.546a2.9 2.9 0 01-1.204-1.554l1.106-.63c.131.467.383.826.756 1.078.374.252.831.378 1.372.378.626 0 1.125-.159 1.498-.476.383-.327.574-.77.574-1.33s-.19-1.003-.574-1.33c-.373-.327-.863-.49-1.47-.49h-2.772l.364-5.082h5.362v1.218h-4.186l-.168 2.604zM7.241 38.348l-2.128 2.87c.766.14 1.382.467 1.848.98.467.513.7 1.148.7 1.904 0 .961-.326 1.713-.98 2.254-.662.55-1.456.826-2.38.826-.765 0-1.432-.173-2.002-.518a2.867 2.867 0 01-1.218-1.47l1.092-.644c.29.905 1 1.358 2.128 1.358.616 0 1.111-.159 1.484-.476.383-.327.574-.77.574-1.33s-.19-1.003-.574-1.33c-.373-.327-.868-.49-1.484-.49h-.336l-.518-.798 2.268-3.066H1.361V37.2h5.88v1.148zm8.137 7.448c-.654.924-1.582 1.386-2.786 1.386s-2.133-.462-2.786-1.386c-.663-.933-.994-2.165-.994-3.696 0-1.53.331-2.763.994-3.696.653-.924 1.582-1.386 2.786-1.386s2.132.462 2.786 1.386c.662.933.994 2.165.994 3.696 0 1.53-.332 2.763-.994 3.696zM10.114 42.1c0 1.213.214 2.151.644 2.814.429.663 1.04.994 1.834.994.793 0 1.404-.331 1.834-.994.438-.663.658-1.6.658-2.814 0-1.213-.22-2.151-.658-2.814-.43-.672-1.041-1.008-1.834-1.008-.794 0-1.405.331-1.834.994-.43.663-.644 1.605-.644 2.828zM8.595 5.348l-2.128 2.87c.765.14 1.381.467 1.848.98.467.513.7 1.148.7 1.904 0 .961-.327 1.713-.98 2.254-.663.55-1.456.826-2.38.826-.765 0-1.433-.173-2.002-.518a2.867 2.867 0 01-1.218-1.47l1.092-.644c.29.905.999 1.358 2.128 1.358.616 0 1.11-.159 1.484-.476.383-.327.574-.77.574-1.33s-.191-1.003-.574-1.33c-.373-.327-.868-.49-1.484-.49h-.336l-.518-.798 2.268-3.066H2.715V4.2h5.88v1.148zm3.155 2.674h1.428c.924 0 1.704.275 2.338.826.644.55.966 1.302.966 2.254 0 .961-.326 1.713-.98 2.254-.662.55-1.456.826-2.38.826-.765 0-1.442-.182-2.03-.546a2.9 2.9 0 01-1.204-1.554l1.106-.63c.131.467.383.826.756 1.078.374.252.831.378 1.372.378.626 0 1.125-.159 1.498-.476.383-.327.574-.77.574-1.33s-.19-1.003-.574-1.33c-.373-.327-.863-.49-1.47-.49h-2.772l.364-5.082h5.362v1.218h-4.186l-.168 2.604z" fill="#fff"/><path d="M37 207h259v1H37v-1zm0-33h259v1H37v-1zm0-33h259v1H37v-1zm0-33h259v1H37v-1zm0-33h259v1H37v-1zm0-33h259v1H37v-1zm0-33h259v1H37V9z" fill="#97A7FD"/><rect x="42" y="177" width="8" height="28" rx="4" fill="#CAFF4D"/><rect x="86" y="144" width="8" height="61" rx="4" fill="#CAFF4D"/><rect x="132" y="111" width="8" height="94" rx="4" fill="#CAFF4D"/><rect x="179" y="78" width="8" height="127" rx="4" fill="#CAFF4D"/><rect x="225" y="45" width="8" height="160" rx="4" fill="#CAFF4D"/><rect x="271" y="12" width="8" height="193" rx="4" fill="#CAFF4D"/></svg>