<svg width="42" height="47" viewBox="0 0 42 47" fill="none" xmlns="http://www.w3.org/2000/svg">
<path d="M36.4 11.9L38 10.3L39.9 12.2L41.1 10.9L36 5.9L34.8 7.2L36.7 9.1L35.1 10.7C31.7 7.3 27 5.2 21.8 5V2.8H25.9V0H15.9V2.8H20V5C15 5.2 10.4 7.3 6.8 10.5L5.2 8.8L7 7.1L5.7 5.9L0.7 10.9L2 12.1L4 10.1L5.6 11.7C2.1 15.4 0 20.4 0 25.9C0 37.5 9.4 46.8 20.9 46.8C32.5 46.8 41.8 37.4 41.8 25.9C41.9 20.5 39.8 15.6 36.4 11.9ZM20.9 44.1C10.9 44.1 2.7 35.9 2.7 25.9C2.7 15.9 10.9 7.7 20.9 7.7C30.9 7.7 39.1 15.9 39.1 25.9C39.1 36 31 44.1 20.9 44.1ZM20.9 9.1C11.6 9.1 4.1 16.6 4.1 25.9C4.1 35.2 11.6 42.7 20.9 42.7C30.2 42.7 37.7 35.2 37.7 25.9C37.8 16.6 30.2 9.1 20.9 9.1ZM20.9 41C12.6 41 5.8 34.2 5.8 25.9C5.8 17.6 12.6 10.8 20.9 10.8C29.2 10.8 36 17.6 36 25.9C36 34.2 29.3 41 20.9 41ZM22.3 23.4L20.9 24.8L17.3 21.2L16 22.4L20.2 26.6C20.4 26.8 20.6 26.9 20.8 26.9C21 26.9 21.2 26.8 21.4 26.6L28.8 19.4L27.6 18.1L22.3 23.4ZM8.1 26.9H10.7V25.1H8.1V26.9ZM31.3 25.1V26.9H33.7V25.1H31.3ZM21.7 13.2H20V15.5H21.8V13.2H21.7ZM20 38.8H21.8V36.6H20V38.8Z" fill="white"/>
</svg>
